<?xml version="1.0" standalone="no"?>
<!DOCTYPE svg PUBLIC "-//W3C//DTD SVG 1.1//EN" "http://www.w3.org/Graphics/SVG/1.1/DTD/svg11.dtd" >
<svg>
<metadata>
Created by FontForge 20090622 at Thu Jun 21 04:48:21 2018
 By ffonts
2017 Iconian Fonts - www.iconian.com
</metadata>
<defs>
<font id="1stEnterprises3DItalic" horiz-adv-x="674" >
  <font-face 
    font-family="1st Enterprises 3D Italic"
    font-weight="400"
    font-style="italic"
    font-stretch="normal"
    units-per-em="1000"
    panose-1="0 0 0 0 0 0 0 0 0 0"
    ascent="800"
    descent="-200"
    x-height="593"
    cap-height="593"
    bbox="20.875 -164 1275.56 785"
    underline-thickness="50"
    underline-position="-75"
    unicode-range="U+001E-U+2122"
  />
<missing-glyph horiz-adv-x="500" 
 />
    <glyph glyph-name=".notdef" horiz-adv-x="500" 
 />
    <glyph glyph-name=".null" horiz-adv-x="0" 
 />
    <glyph glyph-name="nonmarkingreturn" horiz-adv-x="500" 
 />
    <glyph glyph-name="space" unicode=" " horiz-adv-x="371" 
 />
    <glyph glyph-name="space" unicode="&#xa0;" horiz-adv-x="371" 
 />
    <glyph glyph-name="Zcaron" horiz-adv-x="630" 
d="M603 540v-154q0 -33 -15 -66t-40.5 -59.5t-59.5 -43.5t-73 -17h-200q-8 0 -9 -6v-9q2 -5 9 -5h350q17 0 28.5 -11.5t11.5 -28.5v-100q0 -17 -11.5 -28.5t-28.5 -11.5h-500q-17 0 -28.5 11.5t-11.5 28.5v150q0 39 15 73.5t41 60.5t60.5 41t73.5 15h200q6 0 8 3v13
q-1 4 -8 4h-350q-17 0 -28.5 11.5t-11.5 28.5v100q0 17 11.5 28.5t28.5 11.5h498q17 0 28.5 -11.5t11.5 -28.5zM296 743l19 -35l18 35q5 11 11.5 19.5t19.5 8.5h82q14 0 23.5 -9t9.5 -22l-44 -83q-5 -8 -15.5 -19.5t-17.5 -11.5h-175q-7 0 -17.5 11.5t-15.5 19.5l-44 83
q0 13 9.5 22t23.5 9h82q13 0 19.5 -8.5t11.5 -19.5z" />
    <glyph glyph-name="zcaron" horiz-adv-x="630" 
d="M603 540v-154q0 -33 -15 -66t-40.5 -59.5t-59.5 -43.5t-73 -17h-200q-8 0 -9 -6v-9q2 -5 9 -5h350q17 0 28.5 -11.5t11.5 -28.5v-100q0 -17 -11.5 -28.5t-28.5 -11.5h-500q-17 0 -28.5 11.5t-11.5 28.5v150q0 39 15 73.5t41 60.5t60.5 41t73.5 15h200q6 0 8 3v13
q-1 4 -8 4h-350q-17 0 -28.5 11.5t-11.5 28.5v100q0 17 11.5 28.5t28.5 11.5h498q17 0 28.5 -11.5t11.5 -28.5zM296 743l19 -35l18 35q5 11 11.5 19.5t19.5 8.5h82q14 0 23.5 -9t9.5 -22l-44 -83q-5 -8 -15.5 -19.5t-17.5 -11.5h-175q-7 0 -17.5 11.5t-15.5 19.5l-44 83
q0 13 9.5 22t23.5 9h82q13 0 19.5 -8.5t11.5 -19.5z" />
    <glyph glyph-name="exclam" unicode="!" horiz-adv-x="274" 
d="M150 539l-65 -304q-7 -36 19 -49h-1l9 -14q-21 -14 -37 -35t-21 -46q-6 -29 3 -53t29 -38l17 -20q24 -30 64 -30q20 0 40 8t36.5 22t28.5 32t17 39q5 20 0.5 38.5t-15.5 32.5l-18 23h2q23 0 39.5 13.5t21.5 36.5l65 304q5 23 -6 37l-22 27l-1 -1q-7 31 -42 31h-99
q-23 0 -41 -15t-23 -39zM165 539q3 17 16 28t30 11h99q17 0 25.5 -11t5.5 -28l-65 -304q-4 -17 -17 -28t-30 -11h-99q-17 0 -25.5 11t-4.5 28zM69 91q4 18 14.5 34t25 28t32 19t35.5 7t32.5 -7t24 -19t13 -28t-0.5 -34t-14.5 -34t-25 -28.5t-32 -19.5t-35.5 -7
q-36 0 -56.5 26.5t-12.5 62.5z" />
    <glyph glyph-name="quotedbl" unicode="&#x22;" horiz-adv-x="478" 
d="M336 392q-3 -17 5.5 -27.5t25.5 -10.5h99q17 0 30.5 10.5t16.5 27.5l31 145q4 17 -5 28t-26 11h-99q-17 0 -30 -11t-17 -28zM133 392q-3 -17 5.5 -27.5t25.5 -10.5h99q17 0 30.5 10.5t16.5 27.5l31 145q4 17 -5 28t-26 11h-99q-17 0 -30 -11t-17 -28zM149 537
q5 24 23.5 39t42.5 15h99q35 0 42 -31v1l2 -4q10 16 25.5 25t34.5 9h99q35 0 42 -31v1l23 -27q10 -14 6 -36l-31 -145q-5 -23 -22 -37t-40 -14h-99q-23 0 -34 14l-16 19q-8 -15 -22.5 -24t-31.5 -9h-100q-22 0 -33 14l-22 27h1q-27 14 -20 49z" />
    <glyph glyph-name="numbersign" unicode="#" horiz-adv-x="735" 
d="M85 235l-21 -99q-7 -36 19 -50h-1l23 -27q9 -14 30 -14l-1 -4q-7 -35 19 -49h-1l21 -28q11 -14 34 -14h100q23 0 40 14t22 37l10 44h35l-1 -4q-7 -35 19 -49h-1l22 -28q11 -14 34 -14h99q23 0 40 14t22 37l10 44h40q23 0 39.5 14t21.5 37l21 99q6 22 -6 37l-21 26
q19 3 33 17t19 34l21 100q5 23 -6 37l-22 27l-1 -1q-6 30 -42 30q2 21 -7 34l-22 27l-1 -1q-7 31 -42 31h-99q-24 0 -42 -15t-23 -39l-8 -37h-35q2 21 -7 34l-22 27l-1 -1q-7 31 -42 31h-99q-24 0 -42 -15t-23 -39l-8 -37h-36q-24 0 -42.5 -14.5t-23.5 -38.5l-21 -100
q-6 -36 19 -49h-1l9 -13q-19 -5 -33 -18.5t-18 -33.5zM100 235q4 17 17 28t30 11h51l8 36h-51q-17 0 -25.5 11t-5.5 28l21 100q4 17 17.5 27.5t30.5 10.5h51l11 52q3 17 16.5 28t30.5 11h99q17 0 25.5 -11t5.5 -28l-11 -52h102l11 52q3 17 16.5 28t30.5 11h99q17 0 25.5 -11
t5.5 -28l-11 -52h52q17 0 25.5 -10.5t4.5 -27.5l-21 -100q-3 -17 -16.5 -28t-30.5 -11h-52l-8 -36h52q17 0 26 -11t5 -28l-21 -99q-4 -17 -17 -28t-30 -11h-52l-12 -56q-4 -17 -17.5 -28t-30.5 -11h-99q-17 0 -25.5 11t-4.5 28l12 56h-102l-12 -56q-4 -17 -17.5 -28
t-30.5 -11h-99q-17 0 -25.5 11t-4.5 28l12 56h-51q-17 0 -26 11t-5 28zM485 310h-102l-8 -36h102z" />
    <glyph glyph-name="dollar" unicode="$" 
d="M701 349q23 0 40 14t22 37l21 100q5 23 -6 37l-22 27v-1q-7 31 -43 31h-107l2 9q4 24 -6 36l-22 27l-1 -1q-7 31 -42 31h-100q-24 0 -42.5 -15t-23.5 -39l-10 -48q-42 -1 -82 -18t-73 -44.5t-56 -64t-32 -77.5q-11 -54 2.5 -96.5t45.5 -70.5l14 -15q2 -4 4.5 -7.5
t5.5 -5.5h-60q-24 0 -42 -15t-23 -39l-21 -100q-7 -35 19 -49h-1l22 -28q11 -14 34 -14h105l-2 -12q-7 -35 19 -49h-1l22 -28q12 -14 34 -14h100q23 0 40 14t22 37l11 52q31 0 61 9t57.5 25.5t50.5 38.5t40 49q19 28 28 59t9 60t-8.5 55.5t-24.5 45.5l-13 16q-6 11 -14 21
t-17 20h64zM89 2q-17 0 -25.5 11t-4.5 28l21 100q4 17 17 28t30 11h349q11 0 14 11q2 11 -9 11h-200q-39 0 -70 14.5t-51 40t-27.5 60t0.5 73.5t30 73t53.5 60t69 41t75.5 15h12l13 63q4 17 17.5 28t30.5 11h100q17 0 25.5 -11t4.5 -28l-13 -63h159q17 0 25.5 -11t5.5 -28
l-21 -100q-4 -17 -17.5 -28t-30.5 -11h-349q-5 0 -8.5 -3.5t-4.5 -7.5t1 -7.5t8 -3.5h200q38 0 69 -15t51 -40.5t28 -60t0 -72.5q-9 -39 -31.5 -73.5t-53.5 -60t-68.5 -40.5t-75.5 -15h-11l-13 -64q-4 -17 -17 -28t-30 -11h-100q-17 0 -26 11t-5 28l13 64h-160z" />
    <glyph glyph-name="percent" unicode="%" horiz-adv-x="807" 
d="M627 101q-18 0 -14 19l4 19q3 19 23 19h19q18 0 15 -19l-4 -19q-4 -19 -24 -19h-19zM275 425q-18 0 -15 19l4 19q4 19 23 19h18q19 0 15 -19l-4 -19q-3 -19 -23 -19h-18zM309 309q19 0 38 7.5t34.5 20t26.5 29.5t15 37l21 100q8 38 -13 65.5t-61 27.5h-99
q-19 0 -37.5 -7.5t-34.5 -20.5t-27 -29.5t-15 -35.5l-21 -100q-4 -20 0 -37t14 -29.5t25.5 -20t34.5 -7.5h99zM662 -15q19 0 38 7.5t34.5 20t26.5 29.5t15 37l21 99q8 38 -13.5 66t-60.5 28h-99q-19 0 -37.5 -7.5t-34 -20.5t-27 -30t-15.5 -36l-21 -99q-4 -20 0 -37
t14 -29.5t25.5 -20t34.5 -7.5h99zM704 539q3 17 -5 28t-25 11h-100q-17 0 -30.5 -11t-16.5 -28l-305 -498q-4 -17 4.5 -28t25.5 -11h100q17 0 30.5 11t17.5 28zM472 538q10 -14 16 -36l24 39q5 23 23.5 37.5t41.5 14.5h100q32 0 40 -29v1l24 -29q11 -14 6 -37l-129 -213
q1 1 9 1h99q30 0 51 -14t30 -37l18 -22q11 -14 16 -33t0 -42l-22 -100q-10 -45 -46 -75.5t-82 -30.5h-100q-22 0 -40 8.5t-29 22.5l-18 23q-14 10 -22.5 24.5t-9.5 34.5l-29 -46q-5 -23 -22.5 -36.5t-39.5 -13.5h-100q-23 0 -34 14l-22 29h1q-27 13 -19 50l131 214h-99
q-23 0 -41 8.5t-29 22.5l-18 22q-20 14 -28.5 38.5t-1.5 54.5l21 100q4 22 17 41.5t31 34.5t40 23.5t44 8.5h99q30 0 50.5 -14t30.5 -37z" />
    <glyph glyph-name="ampersand" unicode="&#x26;" horiz-adv-x="768" 
d="M139 9q21 -27 53.5 -43t74.5 -16h200q40 0 80 15.5t73 42.5t57 63.5t33 78.5h43q23 0 40 13.5t22 36.5l21 100q5 23 -6 37l-23 27v-1q-7 31 -42 31h-4v2q0 1 1 1.5t1 2.5l21 99q5 23 -6 37l-22 27l-1 -1q-7 31 -42 31h-349q-42 0 -82.5 -16t-73.5 -44t-57 -64.5
t-33 -78.5q-6 -26 -1.5 -54t23.5 -50q-24 -17 -42 -44t-23 -52q-11 -54 4 -97t49 -71zM281 201q-11 0 -14 -11q-2 -11 9 -11h200q11 0 13 11l32 150q4 15 16.5 27t26.5 12h198q17 0 25.5 -11t4.5 -28l-21 -100q-4 -17 -17 -28t-30 -11h-55l-3 -11q-8 -39 -30 -73
t-53.5 -59.5t-69 -40.5t-75.5 -15h-200q-38 0 -69 15t-51 40.5t-28 59.5t0 73q3 14 10.5 29.5t18.5 29t24 23.5t27 13q-27 18 -35 48t-2 57q8 38 30.5 72.5t53.5 60t68.5 40.5t75.5 15h349q17 0 25.5 -11t5.5 -28l-21 -99q-4 -17 -17.5 -28t-30.5 -11h-349q-5 0 -8.5 -3.5
t-4.5 -7.5t1 -7.5t8 -3.5h150q17 0 25.5 -11t4.5 -28l-21 -100q-4 -17 -17 -28t-30 -11h-150z" />
    <glyph glyph-name="quotesingle" unicode="'" horiz-adv-x="274" 
d="M149 537l-31 -145q-7 -35 20 -49h-1l21 -27q11 -14 34 -14h99q23 0 40 14t22 37l31 145q4 22 -6 36l-23 27v-1q-7 31 -42 31h-99q-23 0 -41.5 -15t-23.5 -39zM164 537q4 17 16.5 28t29.5 11h99q17 0 26 -11t5 -28l-31 -145q-3 -17 -16.5 -27.5t-30.5 -10.5h-99
q-17 0 -25 10.5t-5 27.5z" />
    <glyph glyph-name="parenleft" unicode="(" horiz-adv-x="374" 
d="M417 423q23 0 40 14t22 37l21 100q4 22 -6 36l-23 27v-1q-7 31 -42 31h-49q-43 0 -83.5 -15.5t-73.5 -43t-56.5 -64.5t-32.5 -80l-74 -348q-11 -54 2 -96t45 -70l14 -17q21 -27 54 -42.5t75 -15.5h50q23 0 40 14t22 37l22 100q4 19 -7 37l-22 27v-1q-7 31 -42 31h-9
l64 303h49zM222 -73q-39 0 -70 15t-50.5 40.5t-27 60t0.5 73.5l74 348q8 39 30 73t53 59.5t68.5 40.5t76.5 15h49q17 0 25.5 -11t4.5 -28l-21 -99q-3 -17 -16.5 -28t-30.5 -11h-49q-11 0 -13 -11l-74 -348q-3 -11 8 -11h49q17 0 26 -11t5 -28l-21 -100q-4 -17 -17.5 -28
t-30.5 -11h-49z" />
    <glyph glyph-name="parenright" unicode=")" horiz-adv-x="374" 
d="M122 -73q39 0 76.5 15t69 40.5t53.5 60t30 73.5l74 348q8 39 0.5 73t-27.5 59.5t-51 40.5t-70 15h-49q-17 0 -30.5 -11t-17.5 -28l-21 -99q-3 -17 5.5 -28t25.5 -11h49q11 0 9 -11l-74 -348q-3 -11 -14 -11h-49q-17 0 -30 -11t-17 -28l-21 -100q-4 -17 4.5 -28t25.5 -11
h49zM163 464h1q-28 12 -20 50l21 99q5 24 23.5 39t42.5 15h49q52 0 89.5 -22.5t57.5 -60.5l9 -12l5 -5q21 -27 28.5 -64t-1.5 -79l-74 -348q-9 -42 -32.5 -78.5t-56.5 -64t-72.5 -43t-81.5 -15.5h-50q-23 0 -34 14l-21 28h1q-26 14 -19 49l21 100q5 24 23.5 39t42.5 15h45
l64 303h-6q-23 0 -34 14z" />
    <glyph glyph-name="asterisk" unicode="*" horiz-adv-x="306" 
d="M176 449l78 -70l16 23l20 -23l108 70l-20 23l37 7l-16 100l-27 32v-1l-1 11l-15 -6l-13 17l3 6h-119l-4 -27l-21 16l-61 -108l9 -2h-1l11 -15l-19 -13l14 -14zM204 518l-42 11l41 74l32 -21l4 41h87l-12 -41l44 19l11 -73l-52 -10l28 -30l-79 -50l-13 41l-31 -41l-57 51z
" />
    <glyph glyph-name="plus" unicode="+" horiz-adv-x="455" 
d="M381 483h-100q-24 0 -42.5 -15t-23.5 -39l-7 -36h-35q-24 0 -42.5 -15t-23.5 -39l-21 -99q-7 -36 19 -50h-1l23 -27q9 -14 29 -14q-7 -39 19 -49h-1l23 -27q11 -14 34 -14h100q22 0 38.5 14t21.5 36l9 40h40q23 0 40 14t22 37l21 100q5 23 -7 36l-22 27v-1q-7 31 -42 31
q2 20 -7 33l-23 27v-1q-4 31 -41 31zM377 468q17 0 26 -11t5 -28l-11 -51h51q17 0 26 -11t5 -28l-21 -99q-4 -17 -17 -28t-30 -11h-51l-11 -52q-4 -17 -17.5 -28t-30.5 -11h-100q-17 0 -25.5 11t-4.5 28l11 52h-50q-17 0 -26 11t-5 28l21 99q4 17 17 28t30 11h50l11 51
q4 17 17 28t30 11h100z" />
    <glyph glyph-name="comma" unicode="," horiz-adv-x="274" 
d="M54 90l-16 -74q-6 -29 3 -52.5t29 -37.5l17 -20q24 -30 65 -30q19 0 39 8t36.5 21t28.5 30.5t16 37.5l17 78q5 20 0.5 38t-15.5 32l-19 22q-8 23 -28 37t-48 14q-21 0 -41.5 -8.5t-37.5 -22.5t-29.5 -33t-16.5 -40zM69 90q4 18 14.5 34t25 28t32 19.5t35.5 7.5
q17 0 31.5 -7.5t24 -19.5t13.5 -28t0 -34l-16 -77q-4 -17 -15 -32.5t-26 -27.5t-32 -19t-34 -7q-36 0 -56.5 26.5t-12.5 62.5z" />
    <glyph glyph-name="hyphen" unicode="-" horiz-adv-x="455" 
d="M107 338l-21 -99q-7 -36 19 -50h-1l23 -26q11 -14 33 -14h280q23 0 39.5 14t21.5 36l22 100q5 21 -7 36l-22 27v-1q-7 31 -43 31h-279q-24 0 -42 -15t-23 -39zM122 338q4 17 17 28t30 11h279q17 0 26 -11t5 -28l-21 -99q-4 -17 -17 -28t-30 -11h-279q-17 0 -26 11t-5 28z
" />
    <glyph glyph-name="period" unicode="." horiz-adv-x="274" 
d="M69 90q-8 -36 12.5 -62t56.5 -26q18 0 35.5 7t32 19t25 28t14.5 34t0 34t-13.5 28t-24 19.5t-31.5 7.5q-18 0 -35.5 -7.5t-32 -19.5t-25 -28t-14.5 -34zM54 90q4 21 16.5 39.5t29.5 33t37.5 22.5t41.5 8q28 0 48 -13.5t28 -36.5l19 -22q23 -29 15 -70q-5 -21 -17 -39
t-28.5 -32t-36.5 -22t-40 -8q-40 0 -64 30l-17 20q-20 14 -29 37.5t-3 52.5z" />
    <glyph glyph-name="slash" unicode="/" horiz-adv-x="473" 
d="M84 -36q11 -14 33 -14h100q22 0 39.5 13.5t22.5 36.5l304 498q5 24 -6 38l-24 29v-1q-8 29 -41 29h-99q-23 0 -41.5 -14.5t-23.5 -37.5l-304 -498q-8 -37 19 -50h-1zM236 41q-4 -17 -17.5 -28t-30.5 -11h-99q-17 0 -25.5 11t-4.5 28l304 498q3 17 16.5 28t30.5 11h99
q17 0 25.5 -11t5.5 -28z" />
    <glyph glyph-name="zero" unicode="0" 
d="M418 194q23 0 44 17t26 41l16 76q1 5 0.5 9.5t-0.5 9.5h-1q-5 1 -8 1.5t-4 0.5h-77q-26 0 -47.5 -17.5t-26.5 -43.5l-16 -76q-1 -5 -2 -8.5t0 -7.5q8 -2 9 -2h10h77zM338 179q-32 0 -48 20.5t-9 52.5l16 76q7 32 31.5 52.5t56.5 20.5h77q30 0 47 -20.5t10 -52.5l-16 -76
q-7 -32 -32.5 -52.5t-55.5 -20.5h-77zM438 2q38 0 75.5 15t69 40.5t53.5 59.5t30 73l43 200q8 39 0.5 73t-27.5 59.5t-51 40.5t-70 15h-200q-38 0 -75.5 -15t-69 -40.5t-53.5 -59.5t-30 -73l-43 -200q-8 -39 -0.5 -73t27.5 -59.5t51 -40.5t70 -15h200zM124 25q-32 27 -46 70
t-3 95l43 200q9 42 32.5 79t57 64.5t74 43.5t82.5 16h200q51 0 89 -23t58 -61l9 -12l5 -5q21 -26 28.5 -63t-1.5 -79l-42 -199q-9 -42 -32.5 -78.5t-56.5 -64t-72.5 -43t-81.5 -15.5h-200q-43 0 -76 15.5t-53 42.5z" />
    <glyph glyph-name="one" unicode="1" horiz-adv-x="374" 
d="M158 41q-4 -17 4.5 -28t25.5 -11h99q17 0 30.5 11t17.5 28l74 349q8 39 0.5 73t-27.5 59.5t-51 40.5t-70 15h-49q-17 0 -30.5 -11t-16.5 -28l-21 -99q-4 -17 4.5 -27.5t25.5 -11.5q12 0 21 -7.5t15 -18.5t8.5 -23t0.5 -22zM204 330q2 11 -1 19h-1q-23 1 -34 15l-20 26h1
q-27 14 -20 50l21 99q5 24 23 39t42 15h49q52 0 89.5 -23t57.5 -61l14 -17q21 -26 28.5 -63t-1.5 -79l-74 -349q-5 -23 -22 -37t-40 -14h-99q-23 0 -34 14l-22 28h1q-26 14 -19 49z" />
    <glyph glyph-name="two" unicode="2" 
d="M75 190l-31 -149q-7 -35 19 -49h-1l22 -28q11 -14 34 -14h498q23 0 40 14t22 37l21 100q6 22 -6 37l-22 26v-1q-6 24 -28 28q40 28 69.5 69t39.5 90q9 42 1 79t-29 63l-13 16q-20 38 -57.5 61.5t-88.5 23.5h-350q-24 0 -42 -15t-23 -39l-21 -99q-9 -37 19 -50h-1l22 -27
q4 -10 18 -13q-42 -29 -71.5 -70t-40.5 -90zM90 190q8 39 30.5 73t54 60t69 41t76.5 15h200q4 0 7.5 3.5t4.5 7.5t-0.5 7.5t-7.5 3.5h-350q-17 0 -25.5 11t-4.5 28l21 99q3 17 16.5 28t30.5 11h350q38 0 69 -15t51 -40.5t27.5 -60t-0.5 -72.5q-8 -39 -30 -73.5t-53 -60
t-68.5 -40.5t-75.5 -15h-200q-12 0 -15 -11q-2 -11 10 -11h348q17 0 25.5 -11t5.5 -27l-21 -100q-4 -17 -17.5 -28t-30.5 -11h-498q-17 0 -25.5 11t-4.5 28z" />
    <glyph glyph-name="three" unicode="3" 
d="M107 340l-21 -100q-7 -36 19 -50v-1q-15 -5 -26 -18.5t-14 -29.5l-21 -100q-7 -35 19 -49h-1l22 -28q11 -14 34 -14h349q40 0 80 15.5t73 43t57 64t33 78.5q5 22 1.5 46t-17.5 42l-4 5v-1l-6 9q25 16 44 44t24 54q9 42 1 78.5t-30 62.5l-12 15q-20 39 -58 63t-89 24h-349
q-24 0 -42 -15t-23 -39l-21 -99q-9 -37 19 -50v-1q-16 -5 -26.5 -18.5t-14.5 -30.5zM122 340q4 17 17.5 28t30.5 11h349q5 0 8.5 3.5t4.5 7.5t-1 7.5t-8 3.5h-349q-17 0 -25.5 11t-4.5 28l21 99q3 17 16.5 28t30.5 11h349q38 0 69 -15t51.5 -40.5t28 -60t-0.5 -72.5
q-3 -15 -11 -30t-19 -28.5t-25.5 -24t-29.5 -16.5q15 -6 25 -17.5t14.5 -25.5t5 -29t-2.5 -29q-8 -39 -30.5 -73t-53.5 -59.5t-68.5 -40.5t-75.5 -15h-349q-17 0 -25.5 11t-4.5 28l21 100q3 16 16.5 27t30.5 11h349q11 0 13 11q3 11 -8 11h-349q-17 0 -26 11t-5 28z" />
    <glyph glyph-name="four" unicode="4" 
d="M345 312l40 187q5 23 -6 37l-22 27l-1 -1q-7 31 -42 31h-99q-24 0 -42 -15t-23 -39l-53 -249q-11 -54 3.5 -97.5t49.5 -70.5l10 -13q21 -27 54 -43t75 -16h156l-2 -9q-7 -35 19 -49h-1l21 -28q11 -14 34 -14h100q23 0 40 14t22 37l106 498q5 23 -6 37l-22 27l-1 -1
q-7 31 -42 31h-100q-23 0 -41 -15t-23 -39l-53 -245h-136q-8 0 -17 3q0 3 0.5 6.5t1.5 8.5zM635 41q-4 -17 -17.5 -28t-30.5 -11h-100q-16 0 -24.5 11t-4.5 28l13 61h-211q-39 0 -70 15t-51 40.5t-27.5 59.5t0.5 73l53 249q3 17 16.5 28t30.5 11h99q17 0 25.5 -11t5.5 -28
l-40 -187q-4 -20 0.5 -33.5t13.5 -22.5t20.5 -13t20.5 -4h151l56 260q3 17 16.5 28t29.5 11h100q17 0 25.5 -11t5.5 -28z" />
    <glyph glyph-name="five" unicode="5" 
d="M133 390q-8 -39 -0.5 -73t28 -60t51.5 -41t70 -15h200q10 0 7 -11q-2 -11 -12 -11h-350q-17 0 -30.5 -11t-16.5 -27l-21 -100q-4 -17 4.5 -28t25.5 -11h350q38 0 75.5 15t68 40.5t53 60t30.5 72.5q8 39 0.5 73.5t-27.5 60t-50.5 40.5t-68.5 15h-200q-12 0 -10 11t14 11
h348q17 0 30.5 11t17.5 28l21 99q3 17 -5.5 28t-25.5 11h-497q-17 0 -30.5 -11t-16.5 -28zM151 539q5 24 23 39t42 15h497q35 0 42 -31l1 1l22 -27q11 -14 6 -37l-21 -99q-5 -23 -22 -37t-40 -14h-62q9 -10 17 -20t13 -22l7 -9l5 -5q22 -27 30 -63.5t-1 -78.5
q-9 -41 -32.5 -77.5t-56 -64t-72 -43.5t-81.5 -16h-350q-23 0 -34 14l-22 28h1q-26 14 -19 49l21 100q5 23 23 38t42 15h62q-4 3 -6.5 6.5t-4.5 7.5l-12 14q-34 28 -48 71t-3 97z" />
    <glyph glyph-name="six" unicode="6" 
d="M138 8q20 -27 53 -42.5t76 -15.5h200q62 0 118 34t92 88q19 28 28 59t9 60t-8.5 55.5t-24.5 45.5l-13 16q-6 11 -14 21t-17 20h64q23 0 40 14t22 37l21 99q5 23 -6 37l-22 27l-1 -1q-7 31 -42 31h-349q-42 0 -82.5 -16t-74 -43.5t-57 -64.5t-32.5 -79l-43 -200
q-11 -52 3 -95t46 -70zM339 401q-18 -1 -31 -22h211q38 0 69 -15t51 -41t27.5 -60t-0.5 -73t-30.5 -73t-53.5 -59.5t-68.5 -40.5t-75.5 -15h-200q-39 0 -70 15t-51 40.5t-27.5 59.5t0.5 73l43 200q8 39 30 73t53.5 59.5t69 40.5t75.5 15h349q17 0 25.5 -11t5.5 -28l-21 -99
q-4 -17 -17.5 -28t-30.5 -11h-333zM270 201q0 -9 7.5 -15.5t15.5 -6.5h183q11 0 13 11q3 11 -8 11h-211z" />
    <glyph glyph-name="seven" unicode="7" 
d="M458 41q-4 -17 4.5 -28t24.5 -11h100q17 0 30.5 11t17.5 28l74 349q8 39 0.5 73t-27.5 59.5t-51 40.5t-69 15h-350q-17 0 -30.5 -11t-16.5 -28l-21 -99q-4 -17 4.5 -28t25.5 -11h287q10 0 22 -4t21.5 -12.5t14 -22.5t0.5 -33zM504 329q1 2 1 9v9h-2q-4 1 -7 1.5t-6 0.5
h-287q-23 0 -34 14l-22 27h1q-28 13 -19 50l21 99q5 24 23 39t42 15h350q52 0 90.5 -24t56.5 -64l7 -8l5 -5q21 -26 29.5 -62.5t-1.5 -79.5l-74 -349q-5 -23 -22 -37t-40 -14h-100q-23 0 -34 14l-21 28h1q-26 14 -19 49z" />
    <glyph glyph-name="eight" unicode="8" 
d="M139 9q20 -27 53 -43t75 -16h200q40 0 80 15.5t73 43t57 64t33 78.5q5 22 0 45.5t-19 40.5l-5 7q25 16 43 48t23 58q9 42 1 78.5t-30 62.5v1l-12 14q-20 39 -58 63t-89 24h-200q-42 0 -82.5 -16t-73.5 -44t-57 -64.5t-33 -78.5q-3 -13 -3.5 -27.5t2 -28.5t9 -26.5
t17.5 -21.5q-22 -17 -42.5 -44.5t-25.5 -51.5q-11 -54 4 -97t49 -71zM238 2q-38 0 -69 15t-51 40.5t-28 59.5t0 73q3 13 12 28.5t21 29t24.5 24.5t22.5 16q-15 6 -24 17.5t-13 25.5t-3.5 29.5t3.5 29.5q8 38 30.5 72.5t53.5 60t68.5 40.5t75.5 15h200q38 0 69 -15
t51.5 -40.5t28 -60t-0.5 -72.5q-3 -14 -10.5 -31t-18 -32.5t-24.5 -27t-30 -14.5q23 -10 34.5 -38t5.5 -57q-8 -39 -30.5 -73t-53.5 -59.5t-68.5 -40.5t-75.5 -15h-200zM267 190q-2 -11 9 -11h200q11 0 13 11q3 11 -8 11h-200q-11 0 -14 -11zM310 390q-3 -11 9 -11h200
q5 0 8.5 3.5t4.5 7.5t-1 7.5t-8 3.5h-200q-10 0 -13 -11z" />
    <glyph glyph-name="nine" unicode="9" 
d="M159 108q20 -27 53.5 -42.5t76.5 -15.5h156l-2 -9q-7 -35 19 -49h-1l21 -28q11 -14 34 -14h100q23 0 40 14t22 37l106 498q5 23 -6 37l-22 27l-1 -1q-7 31 -42 31h-349q-42 0 -82.5 -16t-74 -43.5t-57 -64.5t-32.5 -79l-21 -100q-11 -54 2.5 -96t46.5 -69zM635 41
q-4 -17 -17.5 -28t-30.5 -11h-100q-16 0 -24.5 11t-4.5 28l74 351q1 9 -8 9h-142q-35 0 -55 -13t-23 -27l-9 -43q-2 -10 3.5 -17t15 -12t21.5 -7.5t23 -2.5h89q17 0 26 -11t5 -28l-21 -99q-4 -17 -17 -28t-30 -11h-150q-39 0 -70 14.5t-51 40t-27.5 60t0.5 73.5l21 100
q8 39 30 73t53.5 59.5t69 40.5t75.5 15h349q17 0 25.5 -11t5.5 -28zM450 294h-89h-10q-7 0 -9 1l5 26q2 11 19 19.5t45 8.5h97l-17 -80q-5 11 -16 18t-25 7z" />
    <glyph glyph-name="colon" unicode=":" horiz-adv-x="274" 
d="M102 313q-7 -29 2 -53t29 -38l17 -20q2 -4 9 -11q-19 -3 -36 -12.5t-31.5 -23t-24 -30t-13.5 -34.5q-6 -29 3 -53t29 -38l17 -20q24 -30 64 -30q20 0 40 8t36.5 22t28.5 32t17 39q5 20 0.5 38.5t-15.5 31.5l-19 22q-4 9 -8.5 17t-12.5 14q36 8 65 36t37 63q5 21 0.5 39
t-15.5 32l-18 20q-8 23 -28.5 37.5t-48.5 14.5q-21 0 -41.5 -8t-37.5 -22.5t-29 -33t-16 -39.5zM117 313q4 18 14 34t24.5 28t32 19t35.5 7t32.5 -7t24 -19t13.5 -28t0 -34t-14.5 -34t-25.5 -28.5t-32 -19.5t-35 -7q-36 0 -56.5 26.5t-12.5 62.5zM69 91q4 17 14.5 33t25 28
t32 19.5t35.5 7.5q17 0 31.5 -7.5t24.5 -19.5t13.5 -28t-0.5 -33q-4 -18 -14.5 -34t-25 -28.5t-32 -19.5t-35.5 -7q-36 0 -56.5 26.5t-12.5 62.5z" />
    <glyph glyph-name="semicolon" unicode=";" horiz-adv-x="274" 
d="M102 313q-7 -29 2 -53t29 -38l17 -20q2 -4 9 -11q-19 -3 -36 -12.5t-31.5 -23t-24 -30t-13.5 -34.5l-16 -75q-6 -29 3 -52.5t29 -37.5l17 -21q24 -30 64 -30q19 0 39 8t37 21.5t29 31t16 37.5l17 78q5 20 0.5 38.5t-15.5 32.5l-19 21q-4 9 -8.5 17t-12.5 14q36 8 65 36
t37 63q5 21 0.5 39t-15.5 32l-17 21q-9 23 -29.5 37t-48.5 14q-21 0 -41.5 -8t-37.5 -22t-29 -33t-16 -40zM69 91q4 17 14.5 33t25 28t32 19.5t35.5 7.5q17 0 31.5 -7.5t24.5 -19.5t13.5 -28t-0.5 -33l-16 -78q-4 -17 -15 -32.5t-26 -27.5t-32 -19t-34 -7q-36 0 -56.5 26.5
t-12.5 62.5zM117 313q4 18 14 34t24.5 28.5t32 19.5t35.5 7t32.5 -7t24 -19.5t13.5 -28.5t0 -34t-14.5 -34t-25.5 -28.5t-32 -19.5t-35 -7q-36 0 -56.5 26.5t-12.5 62.5z" />
    <glyph glyph-name="less" unicode="&#x3c;" horiz-adv-x="374" 
d="M95 288l46 -250q-4 -17 2 -28.5t18 -17.5h-1l22 -28q11 -14 34 -14h99q23 0 40 14.5t22 37.5l-46 246l153 250q5 24 -6 38l-24 29v-1q-8 29 -41 29h-99q-23 0 -41.5 -14.5t-23.5 -37.5zM264 539q3 17 16.5 28t30.5 11h99q17 0 25.5 -11t5.5 -28l-153 -251l46 -247
q-4 -17 -17.5 -28t-30.5 -11h-99q-17 0 -25.5 11t-4.5 28l-46 247z" />
    <glyph glyph-name="equal" unicode="=" horiz-adv-x="455" 
d="M130 448l-21 -100q-6 -35 19 -48h-1l9 -13q-19 -5 -33 -18.5t-18 -33.5l-21 -100q-7 -35 19 -49h-1l23 -27q11 -14 33 -14h280q23 0 39.5 14t21.5 37l21 99q6 22 -6 37l-21 26q19 3 33 17t19 34l21 99q5 23 -6 37l-23 27v-1q-7 31 -42 31h-279q-24 0 -42.5 -15t-23.5 -39
zM100 235q4 17 17 28t30 11h279q17 0 26 -11t5 -28l-21 -100q-4 -16 -17 -27t-30 -11h-279q-17 0 -26 11t-5 27zM145 448q4 17 17.5 28t30.5 11h279q17 0 25.5 -11t4.5 -28l-21 -100q-3 -16 -16.5 -27t-30.5 -11h-279q-17 0 -25.5 11t-5.5 27z" />
    <glyph glyph-name="greater" unicode="&#x3e;" horiz-adv-x="374" 
d="M84 -36q11 -14 34 -14h100q22 0 39 13.5t22 36.5l153 248l-48 252q3 22 -6 36l-22 29v-1q-8 29 -42 29h-99q-24 0 -42.5 -16t-23.5 -40l44 -249l-148 -245q-8 -37 19 -50h-1zM237 41q-4 -17 -17.5 -28t-30.5 -11h-99q-17 0 -25.5 11t-4.5 28l150 247l-45 251
q3 17 16.5 28t30.5 11h99q17 0 25.5 -11t5.5 -28l45 -251z" />
    <glyph glyph-name="question" unicode="?" 
d="M213 186h6l17 -24q-34 -28 -44 -71q-6 -29 3.5 -53t29.5 -38l17 -20q24 -30 64 -30q20 0 40 8t37 22t29 32t17 39q5 20 0.5 38.5t-15.5 32.5l-18 22l-1 -1l-2 7h118q63 0 119 33.5t90 87.5q36 58 36 119t-32 102l-5 5l-8 11q-20 38 -57.5 61.5t-88.5 23.5h-350
q-24 0 -42 -15t-23 -39l-21 -99q-9 -37 19 -50h-1l22 -27q11 -14 34 -14h114q-38 -25 -64 -59t-35 -76zM233 214q7 34 29.5 64t53.5 52.5t68.5 35.5t74.5 13h61q4 0 7.5 3.5t4.5 7.5t-0.5 7.5t-7.5 3.5h-350q-17 0 -25.5 11t-4.5 28l21 99q3 17 16.5 28t30.5 11h350
q38 0 69 -15t51 -40.5t27.5 -60t-0.5 -72.5q-8 -39 -30 -73.5t-53 -60t-68.5 -40.5t-75.5 -15h-251zM207 91q4 18 14.5 34t25.5 28t32.5 19t35.5 7t32.5 -7t24 -19t13.5 -28t0 -34t-14.5 -34t-25.5 -28.5t-32.5 -19.5t-35.5 -7t-32.5 7t-24.5 19.5t-13.5 28.5t0.5 34z" />
    <glyph glyph-name="at" unicode="@" horiz-adv-x="822" 
d="M377 423h-8l-2 -8zM656 378l3 -3q0 -3 2 -5l11 53h-46q3 -5 5.5 -10l6.5 -13v1l19 -22zM334 151q-11 8 -19 19l-10 -50h55q-2 2 -4 4.5t-4 4.5zM458 265q-18 0 -15 19l4 19q4 19 23 19h19q19 0 15 -19l-4 -19q-3 -19 -23 -19h-19zM618 151q38 0 75.5 15t69 40.5t53.5 60
t30 73.5l27 124q8 39 0.5 73t-27.5 59.5t-51 40.5t-70 15h-348q-38 0 -75.5 -15t-69 -40.5t-53.5 -59.5t-30 -73l-74 -348q-8 -39 -0.5 -73.5t27.5 -60t50.5 -40.5t69.5 -15h279q17 0 30.5 11t17.5 28l21 100q4 17 -5 28t-26 11h-279q-11 0 -8 11l74 348q2 11 13 11h348
q11 0 9 -11l-35 -163q-3 -11 -13 -11h-31l11 53q8 38 -13.5 66t-60.5 28h-100q-19 0 -37.5 -7.5t-34 -20.5t-27 -30t-15.5 -36l-21 -100q-4 -19 0 -36t14 -29.5t25.5 -20t34.5 -7.5zM108 -50q-32 28 -45.5 70t-2.5 96l74 348q9 43 32.5 80t57 64.5t74 43t82.5 15.5h348
q51 0 89 -22.5t58 -60.5l14 -17q21 -27 28.5 -64t-1.5 -79l-26 -124q-9 -41 -32.5 -77.5t-56.5 -64t-73 -43.5t-82 -16l-64 -1q1 -2 1.5 -4t2.5 -6v1l21 -26q10 -15 6 -37l-22 -100q-5 -23 -21.5 -37t-39.5 -14h-279q-43 0 -75.5 15.5t-53.5 42.5z" />
    <glyph glyph-name="A" unicode="A" horiz-adv-x="673" 
d="M84 -36q11 -14 34 -14h99q23 0 40 14t22 37l4 20l10 -12q11 -14 34 -14h129l5 -3h-1l21 -28q11 -14 34 -14h100q23 0 40 14t22 37l107 503q2 8 -1.5 18t-9.5 18l-20 25q-5 11 -12.5 19.5t-15.5 8.5h-109q-69 -28 -141.5 -66l-147.5 -80q-5 -3 -11 -6t-11 -6
q-4 -3 -10 -6.5t-11 -5.5l-11 -5.5l-3 -1.5h1l-12 -6q-75 -42 -122.5 -99.5t-61.5 -120.5l-31 -149q-7 -35 19 -49h-1zM634 41q-4 -17 -17.5 -28t-30.5 -11h-100q-16 0 -24.5 11t-4.5 28v6h-159q-17 0 -25.5 11t-5.5 28l21 99q4 17 17.5 28t30.5 11h160l27 127
q-40 -17 -74 -35.5l-60 -33.5q-10 -7 -17.5 -11l-13.5 -7q-11 -7 -26.5 -18.5l-29.5 -22.5l-24 -19.5t-10 -9.5l-32 -153q-4 -17 -17.5 -28t-30.5 -11h-99q-17 0 -25.5 11t-4.5 28l31 149q12 57 57.5 112t117.5 95q12 7 23.5 13t23.5 13l158 86t146 69h106q8 0 14.5 -12.5
t4.5 -21.5zM448 245q8 5 18.5 11t23.5 12l-6 -29h-45q10 5 8.5 4.5t0.5 1.5z" />
    <glyph glyph-name="B" unicode="B" 
d="M337 195q-1 2 -2.5 2.5t-2.5 2.5q-6 2 -7 6l-3 -12h16zM523 401q6 0 8 -3.5t1 -7.5t-4.5 -7.5t-8.5 -3.5h-114q-11 0 -26 -7.5t-29 -20t-25 -28t-14 -31.5t1.5 -32t13.5 -29t20 -21.5t20 -8.5h115q11 0 8 -11q-2 -11 -13 -11h-209l47 222h209zM59 41q-4 -17 4.5 -28
t25.5 -11h349q38 0 75 13.5t68 38t53.5 59t31.5 77.5q3 13 0.5 29.5t-8 31.5t-12.5 27t-14 16q12 3 24.5 14t23.5 25.5t18.5 29t9.5 25.5l1 2q7 41 -1 75.5t-28 59.5t-50.5 39t-68.5 14h-349q-17 0 -30.5 -11t-16.5 -28zM150 539q5 24 23 39t42 15h349q51 0 89.5 -22.5
t57.5 -62.5l8 -10l5 -5q21 -26 29 -62t-1 -81v-2q-2 -10 -8.5 -23.5t-15.5 -27t-20 -26t-22 -19.5q6 -9 11 -22t8.5 -27t5 -28t-0.5 -24q-10 -46 -34 -83t-57 -63.5t-72 -40.5t-80 -14h-349q-23 0 -34 14l-22 28h1q-26 14 -19 49z" />
    <glyph glyph-name="C" unicode="C" 
d="M324 211l16 77q2 9 7.5 19.5t14.5 19.5t22 15.5t30 6.5h287q23 0 40 14t22 37l21 99q5 23 -6 37l-22 27l-1 -1q-7 31 -42 31h-349q-42 0 -82.5 -16t-74 -43.5t-57 -64.5t-32.5 -79l-43 -200q-11 -52 3 -95t46 -70l14 -17q20 -27 53 -42.5t76 -15.5h349q23 0 40 14t22 37
l21 100q6 22 -6 37l-22 26v-1q-7 31 -43 31h-287h-10q-1 0 -9 2q0 4 0.5 7t1.5 8zM238 2q-39 0 -70 15t-51 40.5t-27.5 59.5t0.5 73l43 200q8 39 30 73t53.5 59.5t69 40.5t75.5 15h349q17 0 25.5 -11t5.5 -28l-21 -99q-4 -17 -17.5 -28t-30.5 -11h-287q-21 0 -36.5 -7.5
t-26.5 -19t-17 -24t-8 -22.5l-17 -77q-7 -33 11.5 -52.5t46.5 -19.5h287q17 0 25.5 -11t5.5 -27l-21 -100q-4 -17 -17.5 -28t-30.5 -11h-349z" />
    <glyph glyph-name="D" unicode="D" 
d="M353 349l-33 -155h99q8 0 18.5 3.5t20.5 10.5t18 17.5t11 24.5l17 78q2 8 0 20h-6q-2 0 -3 0.5t-3 0.5h-139zM310 392q4 9 13 9h140q20 0 32 -7.5t18 -19t7 -24t-1 -22.5l-17 -78q-4 -18 -14 -31.5t-23 -22.5t-26 -13t-23 -4h-151zM59 41q-4 -17 4.5 -28t25.5 -11h349
q38 0 75.5 15t69 40.5t53.5 59.5t30 73l43 200q8 39 0.5 73t-27.5 59.5t-51 40.5t-70 15h-349q-17 0 -30.5 -11t-16.5 -28zM150 539q5 24 23 39t42 15h349q51 0 89 -23t58 -61l14 -17q21 -26 28.5 -63t-1.5 -79l-42 -199q-9 -42 -32.5 -78.5t-56.5 -64t-72.5 -43
t-81.5 -15.5h-349q-23 0 -34 14l-22 28h1q-26 14 -19 49z" />
    <glyph glyph-name="E" unicode="E" 
d="M138 8q20 -27 53 -42.5t76 -15.5h349q23 0 40 14t22 37l21 100q6 22 -6 37l-12 15q32 13 40 47l21 100q5 23 -6 37l-13 15q33 12 40 48l21 99q5 23 -6 37l-22 27l-1 -1q-7 31 -42 31h-349q-42 0 -82.5 -16t-74 -43.5t-57 -64.5t-32.5 -79l-43 -200q-11 -52 3 -95t46 -70z
M238 2q-39 0 -70 15t-51 40.5t-27.5 59.5t0.5 73l43 200q8 39 30 73t53.5 59.5t69 40.5t75.5 15h349q17 0 25.5 -11t5.5 -28l-21 -99q-4 -17 -17.5 -28t-30.5 -11h-349q-10 0 -13 -11l-2 -11h360q17 0 25.5 -11t4.5 -28l-21 -100q-4 -17 -17 -28t-30 -11h-361l-2 -11
q0 -11 9 -11h349q17 0 25.5 -11t5.5 -27l-21 -100q-4 -17 -17.5 -28t-30.5 -11h-349z" />
    <glyph glyph-name="F" unicode="F" horiz-adv-x="646" 
d="M59 41q-4 -17 4.5 -28t25.5 -11h99q17 0 30.5 11t17.5 28l31 149q3 11 14 11h321q17 0 30 11t17 28l21 100q4 17 -4.5 28t-25.5 11h-322l4 22h322q17 0 30.5 11t17.5 28l21 99q3 17 -5.5 28t-25.5 11h-470q-17 0 -30.5 -11t-16.5 -28zM150 539q5 24 23 39t42 15h470
q35 0 42 -31l1 1l22 -27q11 -14 6 -37l-21 -99q-7 -36 -40 -48l13 -15q11 -14 6 -37l-21 -100q-5 -23 -22 -36.5t-40 -13.5h-320l-32 -149q-5 -23 -22 -37t-40 -14h-99q-23 0 -34 14l-22 28h1q-26 14 -19 49z" />
    <glyph glyph-name="G" unicode="G" 
d="M138 8q20 -27 53 -42.5t76 -15.5h200q62 0 118 34t92 88q19 28 28 59t9 60t-8.5 55.5t-24.5 45.5l-13 16q-6 11 -14 21t-17 20h46q23 0 40 14t22 37l21 99q5 23 -6 37l-22 27l-1 -1q-7 31 -42 31h-331q-42 0 -82.5 -16t-74 -43.5t-57 -64.5t-32.5 -79l-43 -200
q-11 -52 3 -95t46 -70zM339 401q-9 -1 -19.5 -7t-12.5 -17l-37 -173q-2 -11 5.5 -18t17.5 -7h183q11 0 13 11q3 11 -8 11h-150q-17 0 -26 11t-5 28l21 100q4 17 17.5 28t30.5 11h150q38 0 69 -15t51 -41t27.5 -60t-0.5 -73t-30.5 -73t-53.5 -59.5t-68.5 -40.5t-75.5 -15
h-200q-39 0 -70 15t-51 40.5t-27.5 59.5t0.5 73l43 200q8 39 30 73t53.5 59.5t69 40.5t75.5 15h331q17 0 25.5 -11t5.5 -28l-21 -99q-4 -17 -17.5 -28t-30.5 -11h-315z" />
    <glyph glyph-name="H" unicode="H" horiz-adv-x="652" 
d="M59 41q-4 -17 4.5 -28t25.5 -11h99q17 0 30.5 11t17.5 28l34 160h200l-34 -160q-4 -17 4.5 -28t25.5 -11h99q17 0 30.5 11t17.5 28l106 498q3 17 -5.5 28t-25.5 11h-99q-17 0 -30.5 -11t-16.5 -28l-34 -160h-200l34 160q3 17 -5.5 28t-25.5 11h-99q-17 0 -30.5 -11
t-16.5 -28zM150 539q5 24 23 39t42 15h99q35 0 42 -31l1 1l22 -27q11 -14 6 -37l-22 -105h133l31 145q5 24 23 39t42 15h99q35 0 42 -31l1 1l22 -27q11 -14 6 -37l-106 -498q-5 -23 -22 -37t-40 -14h-100q-24 0 -33 14l-22 28h1q-26 14 -19 49l23 109h-133l-32 -149
q-5 -23 -22 -37t-40 -14h-99q-23 0 -34 14l-22 28h1q-26 14 -19 49z" />
    <glyph glyph-name="I" unicode="I" horiz-adv-x="550" 
d="M577 349q23 0 40 14t22 37l21 99q5 23 -6 37l-22 27l-1 -1q-7 31 -42 31h-374q-24 0 -42 -15t-23 -39l-21 -99q-9 -37 19 -50h-1l22 -27q11 -14 34 -14h43l-33 -155h-83q-24 0 -42 -15t-23 -38l-21 -100q-7 -35 19 -49h-1l22 -28q11 -14 34 -14h374q23 0 40 14t22 37
l21 100q6 22 -6 37l-22 26v-1q-7 31 -43 31h-47l33 155h87zM89 2q-17 0 -25.5 11t-4.5 28l21 100q3 16 16.5 27t30.5 11h98l47 222h-98q-17 0 -25.5 11t-4.5 28l21 99q3 17 16.5 28t30.5 11h374q17 0 25.5 -11t5.5 -28l-21 -99q-4 -17 -17.5 -28t-30.5 -11h-98l-47 -222h98
q17 0 25.5 -11t5.5 -27l-21 -100q-4 -17 -17.5 -28t-30.5 -11h-374z" />
    <glyph glyph-name="J" unicode="J" 
d="M250 294h-99q-24 0 -42 -15t-23 -39l-11 -50q-11 -52 3 -95t46 -70l14 -17q20 -27 53 -42.5t76 -15.5h200q42 0 81.5 15.5t72.5 43t56.5 64t32.5 78.5l74 348q5 23 -6 37l-22 27l-1 -1q-7 31 -42 31h-100q-23 0 -41 -15t-23 -39l-61 -286q-5 -26 -25.5 -42.5t-43.5 -16.5
h-79h-10q-2 0 -8 2q-1 2 -0.5 3.5t0.5 3.5q3 21 -7 34l-23 28v-1q-6 30 -42 30zM278 240q2 -26 16 -43.5t43 -17.5h79q30 0 54.5 20.5t32.5 53.5l61 286q3 17 16.5 28t29.5 11h100q17 0 25.5 -11t5.5 -28l-75 -349q-8 -39 -30 -73t-53.5 -59.5t-69 -40.5t-75.5 -15h-200
q-39 0 -70 15t-51 40.5t-27.5 59.5t0.5 73l11 50q4 17 17 28t30 11h99q17 0 26 -11t5 -28z" />
    <glyph glyph-name="K" unicode="K" horiz-adv-x="673" 
d="M481 -36q11 -14 34 -14h100q23 0 40 14t22 37l32 150q5 23 -2 52.5t-21 47.5q10 7 20.5 18.5t19.5 25t15.5 28t9.5 27.5l32 149q5 23 -6 37l-22 27l-1 -1q-7 31 -42 31h-100q-23 0 -41 -15t-23 -39l-19 -88q-4 -16 -19 -33.5t-38 -22.5h-109l22 104q5 23 -6 37l-22 27
l-1 -1q-7 31 -42 31h-99q-24 0 -42 -15t-23 -39l-106 -498q-7 -35 19 -49h-1l22 -28q11 -14 34 -14h99q23 0 40 14t22 37l32 148h150q0 -5 0.5 -10t-0.5 -9l-19 -89q-7 -35 19 -49h-1zM236 41q-4 -17 -17.5 -28t-30.5 -11h-99q-17 0 -25.5 11t-4.5 28l106 498q3 17 16.5 28
t30.5 11h99q17 0 25.5 -11t5.5 -28l-34 -159h165q15 3 27 11t21 18t15 21.5t8 20.5l19 88q3 17 16.5 28t29.5 11h100q17 0 25.5 -11t5.5 -28l-32 -149q-3 -14 -11 -30t-19 -30t-23 -24.5t-23 -12.5q9 -5 16.5 -16.5t12 -26.5t6 -31t-1.5 -29l-31 -149q-4 -17 -17.5 -28
t-30.5 -11h-100q-16 0 -24.5 11t-4.5 28l19 89q4 19 -5 41.5t-36 28.5h-165z" />
    <glyph glyph-name="L" unicode="L" 
d="M138 8q20 -27 53 -42.5t76 -15.5h349q23 0 40 14t22 37l21 100q6 22 -6 37l-22 26v-1q-7 31 -43 31h-287q-12 0 -19 3q0 3 0.5 6t1.5 8l61 288q5 23 -6 37l-22 27l-1 -1q-7 31 -42 31h-99q-24 0 -42 -15t-23 -39l-75 -349q-11 -52 3 -95t46 -70zM280 251q-4 -20 1 -33.5
t14 -22t20.5 -12.5t22.5 -4h287q17 0 25.5 -11t5.5 -27l-21 -100q-4 -17 -17.5 -28t-30.5 -11h-349q-39 0 -70 15t-51 40.5t-27.5 59.5t0.5 73l75 349q3 17 16.5 28t30.5 11h99q17 0 25.5 -11t5.5 -28z" />
    <glyph glyph-name="M" unicode="M" horiz-adv-x="874" 
d="M364 593q-42 0 -82.5 -16t-74 -44t-57 -64.5t-32.5 -78.5l-74 -349q-7 -35 19 -49h-1l22 -28q11 -14 34 -14h99q23 0 40 14t22 37l13 59q6 -11 14 -19.5t17 -16.5l14 -16q21 -27 54 -42.5t76 -15.5q48 0 93.5 20.5t80.5 55.5q-1 -22 20 -34h-1l22 -28q11 -14 34 -14h100
q23 0 40 14t22 37l74 349q9 42 1 78.5t-30 62.5l-11 13q-19 40 -57 64.5t-92 24.5q-32 0 -64 -10.5t-61 -28.5t-53 -42.5t-41 -52.5q-4 8 -9.5 16l-10.5 16l-12 16q-20 38 -58.5 62t-89.5 24zM532 390q8 38 30.5 72.5t53.5 60t68.5 40.5t75.5 15q39 0 70 -15t51.5 -40.5
t28 -60t-0.5 -72.5l-74 -349q-4 -17 -17.5 -28t-30.5 -11h-100q-17 0 -25.5 11t-4.5 28l74 349q3 11 -9 11q-9 0 -12 -11l-43 -200q-8 -39 -30 -73t-53.5 -59.5t-69 -40.5t-76.5 -15t-70.5 15t-51.5 40.5t-27.5 59.5t0.5 73l43 200q3 11 -9 11q-10 0 -13 -11l-74 -349
q-4 -17 -17 -28t-30 -11h-100q-17 0 -25.5 11t-4.5 28l74 349q8 38 30.5 72.5t53.5 60t68.5 40.5t75.5 15q39 0 70 -15t51.5 -40.5t28 -60t-0.5 -72.5l-43 -200q-2 -11 9 -11t13 11z" />
    <glyph glyph-name="N" unicode="N" 
d="M610 578q-16 0 -29.5 -11t-16.5 -28l-75 -349q-2 -11 -13 -11t-9 11l43 200q8 38 0.5 72.5t-28 60t-51.5 40.5t-70 15q-38 0 -75.5 -15t-68.5 -40.5t-53.5 -60t-30.5 -72.5l-74 -349q-4 -17 4.5 -28t25.5 -11h99q17 0 30.5 11t17.5 28l74 349q3 11 13 11q12 0 9 -11
l-43 -200q-8 -39 -0.5 -73t27.5 -59.5t51.5 -40.5t70.5 -15q38 0 75.5 15t68.5 40.5t53.5 59.5t30.5 73l75 349q3 17 -5.5 28t-25.5 11h-100zM713 593q35 0 42 -31l1 1l22 -27q11 -14 6 -37l-74 -348q-9 -42 -33 -78.5t-57 -64t-73 -43t-80 -15.5q-43 0 -76 15.5t-54 42.5
l-14 16q-9 8 -17 16.5t-14 19.5l-13 -59q-5 -23 -22 -37t-40 -14h-99q-23 0 -34 14l-22 28h1q-26 14 -19 49l74 349q9 42 32.5 78.5t57 64.5t74 44t82.5 16q51 0 89.5 -23.5t58.5 -62.5l7 -11l5 -5l5.5 -7.5l5.5 -7.5l14 63q5 24 23 39t41 15h100z" />
    <glyph glyph-name="O" unicode="O" horiz-adv-x="701" 
d="M445 194q23 0 44 17t26 41l16 76q1 5 0.5 9.5t-0.5 9.5h-1q-5 1 -8 1.5t-4 0.5h-104q-26 0 -47.5 -17.5t-26.5 -43.5l-16 -76q-1 -5 -2 -8.5t0 -7.5q8 -2 9 -2h10h104zM338 179q-32 0 -48 20.5t-9 52.5l16 76q7 32 31.5 52.5t56.5 20.5h104q30 0 47 -20.5t10 -52.5
l-16 -76q-7 -32 -32.5 -52.5t-55.5 -20.5h-104zM466 2q38 0 75 15t68.5 40.5t53.5 59.5t30 73l43 200q8 39 0.5 73t-27.5 59.5t-51 40.5t-69 15h-228q-38 0 -75.5 -15t-69 -40.5t-53.5 -59.5t-30 -73l-43 -200q-8 -39 -0.5 -73t27.5 -59.5t51 -40.5t70 -15h228zM124 25
q-32 27 -46 70t-3 95l43 200q9 42 32.5 79t57 64.5t74 43.5t82.5 16h228q52 0 90.5 -24t56.5 -64l7 -8l5 -5q21 -26 29.5 -62.5t-1.5 -79.5l-42 -199q-9 -42 -32.5 -78.5t-56.5 -64t-72.5 -43t-80.5 -15.5h-228q-43 0 -76 15.5t-53 42.5z" />
    <glyph glyph-name="P" unicode="P" 
d="M353 349l-12 -56q1 1 9 1h89q18 0 38.5 6t24.5 18l6 30q-2 1 -15 1h-140zM59 41q-4 -17 4.5 -28t25.5 -11h99q17 0 30.5 11t17.5 28l74 351q4 9 13 9h141q35 0 50 -13t12 -27l-9 -43q-2 -10 -11 -17t-21 -12t-25.5 -7.5t-23.5 -2.5h-89q-17 0 -30 -11t-17 -28l-21 -99
q-4 -17 5 -28t26 -11h150q38 0 75.5 14.5t68.5 40t53.5 60t30.5 73.5l21 100q8 39 0.5 73t-27.5 59.5t-51 40.5t-70 15h-349q-17 0 -30.5 -11t-16.5 -28zM150 539q5 24 23 39t42 15h349q51 0 89 -23t58 -61l9 -12l5 -5q21 -26 28.5 -63t-1.5 -79l-21 -100q-9 -42 -32 -78.5
t-56 -63.5t-72.5 -42.5t-81.5 -15.5h-150q-23 0 -34 14l-10 12l-16 -75q-5 -23 -22 -37t-40 -14h-99q-23 0 -34 14l-22 28h1q-26 14 -19 49z" />
    <glyph glyph-name="Q" unicode="Q" horiz-adv-x="793" 
d="M65 141l-21 -100q-7 -35 19 -49h-1l22 -28q11 -14 34 -14h468q42 0 81.5 15.5t72.5 43t56.5 64t32.5 78.5l42 199q10 43 1.5 79.5t-29.5 62.5l-12 13q-18 40 -56.5 64t-90.5 24h-220q-43 0 -83.5 -16t-73.5 -43.5t-56.5 -64.5t-32.5 -79l-42 -196h-46q-24 0 -42 -15
t-23 -38zM80 141q3 16 16.5 27t30.5 11h61l45 211q8 39 30 73t53 59.5t68.5 40.5t76.5 15h220q38 0 69 -15t51 -40.5t27.5 -59.5t-0.5 -73l-43 -200q-8 -39 -30 -73t-53.5 -59.5t-68.5 -40.5t-75 -15h-469q-17 0 -25.5 11t-4.5 28zM533 179q32 0 57 20.5t32 52.5l16 76
q7 32 -9.5 52.5t-48.5 20.5h-91q-30 0 -55 -20.5t-32 -52.5l-16 -76q-7 -32 9.5 -52.5t46.5 -20.5h91zM536 194h-91q-10 0 -18 2q0 4 0.5 7.5t1.5 8.5l16 76q5 26 26.5 43.5t46.5 17.5h91q3 0 6 -0.5t7 -1.5h2v-10q0 -7 -1 -9l-16 -76q-5 -24 -26 -41t-45 -17z" />
    <glyph glyph-name="R" unicode="R" horiz-adv-x="673" 
d="M346 317l18 16t19 16h-30zM59 41q-4 -17 4.5 -28t25.5 -11h99q17 0 30.5 11t17.5 28l76 360h211q6 0 7.5 -3.5t0.5 -7.5t-4.5 -7.5t-7.5 -3.5q-39 0 -76.5 -15t-69 -41t-54 -60t-30.5 -73t-0.5 -73t28 -59.5t51.5 -40.5t70 -15h148q17 0 30.5 11t17.5 28l21 100
q3 16 -5.5 27t-25.5 11h-148q-11 0 -9 11q3 11 14 11q38 0 75.5 15t68.5 40.5t53 60t30 73.5q8 38 0.5 72.5t-27.5 60t-51 40.5t-69 15h-349q-17 0 -30.5 -11t-16.5 -28zM150 539q5 24 23 39t42 15h349q51 0 88.5 -23.5t57.5 -61.5l13 -16q21 -26 29 -63t-1 -79
q-10 -49 -39.5 -90t-69.5 -69q22 -4 28 -28v1l22 -26q12 -15 6 -37l-21 -100q-5 -23 -22 -37t-40 -14h-148q-42 0 -75 16t-54 43l-10 13q-22 17 -36 40l-13 -61q-5 -23 -22 -37t-40 -14h-99q-23 0 -34 14l-22 28h1q-26 14 -19 49z" />
    <glyph glyph-name="S" unicode="S" 
d="M76 41q-4 -17 4.5 -28t25.5 -11h332q38 0 75.5 15t68.5 40.5t53.5 59.5t30.5 73t0.5 73t-27.5 60t-51 41t-69 15h-200q-6 0 -8 3.5t-1 7.5t4.5 7.5t8.5 3.5h330q17 0 30.5 11t17.5 28l21 99q3 17 -5.5 28t-25.5 11h-330q-38 0 -75.5 -15t-68.5 -40.5t-53.5 -60
t-30.5 -72.5q-8 -39 -0.5 -73.5t27.5 -60t51 -40.5t70 -15h200q11 0 8 -11q-2 -11 -13 -11h-332q-17 0 -30.5 -11t-16.5 -27zM82 141q5 23 23 38t42 15h43q-3 2 -5.5 5.5t-4.5 7.5l-14 16q-32 28 -45.5 70.5t-2.5 96.5q9 42 32.5 78.5t57 64.5t74 44t82.5 16h330
q35 0 42 -31l1 1l22 -27q11 -14 6 -37l-21 -99q-5 -23 -22 -37t-40 -14h-45q9 -10 17 -20t14 -21l13 -16q16 -19 24.5 -45.5t8.5 -55.5t-9 -60t-28 -59q-36 -54 -92 -88t-118 -34h-332q-23 0 -34 14l-22 28h1q-26 14 -19 49z" />
    <glyph glyph-name="T" unicode="T" 
d="M243 41q-7 -35 19 -49h-1l22 -28q11 -14 34 -14h100q23 0 40 14t22 37l74 348h148q23 0 40 14t22 37l21 99q5 23 -6 37l-22 27l-1 -1q-7 31 -42 31h-498q-24 0 -42 -15t-23 -39l-21 -99q-9 -37 19 -50h-1l22 -27q11 -14 34 -14h105zM334 401h-160q-17 0 -25.5 11t-4.5 28
l21 99q3 17 16.5 28t30.5 11h498q17 0 25.5 -11t5.5 -28l-21 -99q-4 -17 -17.5 -28t-30.5 -11h-160l-76 -360q-4 -17 -17.5 -28t-30.5 -11h-100q-17 0 -25.5 11t-4.5 28z" />
    <glyph glyph-name="U" unicode="U" 
d="M324 211l61 288q5 23 -6 37l-22 27l-1 -1q-7 31 -42 31h-99q-24 0 -42 -15t-23 -39l-75 -349q-11 -52 3 -95t46 -70l14 -17q20 -27 53 -42.5t76 -15.5h349q23 0 40 14t22 37l106 498q5 23 -6 37l-22 27l-1 -1q-7 31 -42 31h-100q-23 0 -41 -15t-23 -39l-74 -345h-136
q-9 0 -17 2q0 2 0.5 6t1.5 9zM635 41q-4 -17 -17.5 -28t-30.5 -11h-349q-39 0 -70 15t-51 40.5t-27.5 59.5t0.5 73l75 349q3 17 16.5 28t30.5 11h99q17 0 25.5 -11t5.5 -28l-62 -288q-2 -11 0 -23.5t8.5 -23t18 -18t29.5 -7.5h140q10 0 13 9l75 351q3 17 16.5 28t29.5 11
h100q17 0 25.5 -11t5.5 -28z" />
    <glyph glyph-name="V" unicode="V" horiz-adv-x="673" 
d="M384 499q5 23 -6 37l-22 27l-1 -1q-7 31 -42 31h-99q-24 0 -42 -15t-23 -39l-39 -181q-12 -52 6 -89t48 -63l8 -9q10 -13 22 -24.5t25 -22.5q72 -60 149 -111.5t150 -88.5h109q6 0 13.5 5t15 12.5t13 15t6.5 13.5l107 503q5 23 -6 37l-22 27l-1 -1q-7 31 -42 31h-100
q-23 0 -41 -15t-23 -39l-62 -288q-24 13 -44 29l-37 30q-7 5 -12.5 9.5t-10.5 7.5h1q-14 10 -29 26zM632 36q-2 -9 -14 -21.5t-20 -12.5h-107q-69 35 -145 86t-148 111q-17 15 -33 31t-27 35t-15 41.5t2 51.5l39 181q3 17 16.5 28t30.5 11h99q17 0 25.5 -11t5.5 -28
l-33 -153q0 -2 6.5 -10l15.5 -19t19.5 -22.5t18.5 -18.5q5 -3 10.5 -7t12.5 -11l46 -33.5t59 -35.5l66 310q3 17 16.5 28t29.5 11h100q17 0 25.5 -11t5.5 -28z" />
    <glyph glyph-name="W" unicode="W" horiz-adv-x="874" 
d="M510 390q3 11 13 11q12 0 9 -11l-43 -200q-8 -38 0 -72.5t28 -60t51 -40.5t69 -15q39 0 76.5 15t68.5 40.5t53.5 60t30.5 72.5l75 349q3 17 -5.5 28t-25.5 11h-100q-17 0 -30.5 -11t-16.5 -28l-75 -349q-2 -11 -13 -11q-10 0 -8 11l43 200q8 39 0.5 73t-28 59.5
t-51.5 40.5t-70 15t-76.5 -15t-69 -40.5t-53.5 -59.5t-30 -73l-43 -200q-2 -11 -13 -11t-9 11l75 349q3 17 -5 28t-25 11h-100q-17 0 -30.5 -11t-16.5 -28l-75 -349q-8 -38 -0.5 -72.5t27.5 -60t51 -40.5t70 -15t76.5 15t68.5 40.5t53.5 60t30.5 72.5zM726 492q2 -6 5 -9
l5 -5l13 61q5 24 22.5 39t41.5 15h100q35 0 42 -31l1 1l22 -27q11 -14 6 -37l-74 -348q-9 -41 -32.5 -77.5t-56.5 -64t-73 -43.5t-82 -16t-74.5 16t-53.5 43l-12 14q-29 23 -44 58q-17 -29 -41 -53t-52 -41.5t-59.5 -27t-62.5 -9.5q-42 0 -74.5 16t-53.5 43l-10 13
q-35 27 -50 70.5t-4 97.5l75 349q5 24 23 39t42 15h100q34 0 41 -31l1 1l22 -27q6 -9 6 -22q35 36 81.5 57.5t97.5 21.5q52 0 90 -23t57 -61z" />
    <glyph glyph-name="X" unicode="X" horiz-adv-x="673" 
d="M342 539q3 17 -5.5 28t-25.5 11h-99q-17 0 -30.5 -11t-16.5 -28l-32 -149q-3 -14 -1.5 -30t6.5 -30t12.5 -24.5t17.5 -12.5q-11 -5 -23.5 -16.5t-23.5 -26.5t-19.5 -31t-11.5 -29l-31 -149q-4 -17 4.5 -28t25.5 -11h99q17 0 30.5 11t17.5 28l19 89q4 19 21.5 41t49.5 29
h109q28 -7 36.5 -29t4.5 -41l-19 -89q-4 -17 4.5 -28t24.5 -11h100q17 0 30.5 11t17.5 28l31 149q9 42 -3.5 67t-29.5 36q21 5 43 27t33 70l32 149q3 17 -5.5 28t-25.5 11h-100q-16 0 -29.5 -11t-16.5 -28l-19 -88q-4 -19 -21.5 -41.5t-49.5 -29.5h-109q-14 3 -23 11
t-13.5 18.5t-5.5 21.5t1 20zM62 -8h1q-26 14 -19 49l31 149q3 11 9.5 25t15.5 28t19.5 26.5t21.5 21.5q-14 17 -21 46t-2 53l32 149q5 24 23 39t42 15h99q35 0 42 -31l1 1l22 -27q11 -14 6 -37l-19 -88q-1 -5 -1.5 -9t-0.5 -6q1 -1 7 -1h101q25 6 39.5 23.5t17.5 32.5l19 88
q5 24 23 39t41 15h100q35 0 42 -31l1 1l22 -27q11 -14 6 -37l-32 -149q-9 -42 -26.5 -65.5t-35.5 -34.5l1 -1l1 -1l2 -2q11 -14 17 -38t-1 -57l-32 -150q-5 -23 -22 -37t-40 -14h-100q-23 0 -34 14l-21 28h1q-26 14 -19 49l19 89q1 4 0.5 9t-0.5 10h-104q-26 -6 -40.5 -24.5
t-18.5 -34.5l-19 -89q-5 -23 -22 -37t-40 -14h-99q-23 0 -34 14z" />
    <glyph glyph-name="Y" unicode="Y" 
d="M342 541q3 15 -5.5 26t-25.5 11h-99q-17 0 -30.5 -11t-16.5 -28l-32 -149q-8 -39 -0.5 -73.5t27.5 -60t51 -40.5t70 -15h211l-3 -11q-2 -11 -13 -11h-349q-17 0 -30.5 -11t-16.5 -27l-21 -100q-4 -17 4.5 -28t25.5 -11h349q38 0 75.5 15t69 40.5t53.5 59.5t30 73l75 349
q3 17 -5.5 28t-25.5 11h-100q-16 0 -29.5 -11t-16.5 -28l-34 -160h-149q-12 0 -24 4t-21 13t-13 22.5t0 32.5zM166 223q-32 28 -45.5 70.5t-2.5 96.5l32 149q5 24 23 39t42 15h99q36 0 43 -31l1 1l21 -27q11 -14 6 -35l-19 -90q-1 -5 -1.5 -8.5t-0.5 -6.5q8 -2 10 -2h10h134
l31 145q5 24 23 39t41 15h100q35 0 42 -31l1 1l22 -27q11 -14 6 -37l-74 -348q-9 -42 -32.5 -78.5t-56.5 -64t-72.5 -43t-81.5 -15.5h-349q-23 0 -34 14l-22 28h1q-26 14 -19 49l21 100q5 23 23 38t42 15h60q-3 2 -5.5 5.5t-4.5 7.5z" />
    <glyph glyph-name="Z" unicode="Z" 
d="M169 363q4 -10 17 -13q-42 -29 -71 -70t-40 -90l-31 -149q-7 -35 19 -49h-1l22 -28q11 -14 34 -14h498q23 0 40 14t22 37l21 100q6 22 -6 37l-22 26v-1q-6 25 -33 30q42 29 72.5 70t39.5 83l32 153q5 23 -6 37l-22 27l-1 -1q-7 31 -42 31h-496q-24 0 -42 -15t-23 -39
l-21 -99q-9 -37 19 -50h-1zM706 386q-7 -33 -29 -66t-52.5 -59.5t-68 -43t-75.5 -16.5h-200q-9 0 -12 -7l-2 -9q0 -6 9 -6h349q17 0 25.5 -11t5.5 -27l-21 -100q-4 -17 -17.5 -28t-30.5 -11h-498q-17 0 -25.5 11t-4.5 28l31 149q8 39 30.5 73t54 60t69 41t75.5 15h200
q8 0 9 4l3 13q-2 5 -8 5h-349q-17 0 -25.5 11t-4.5 28l21 99q3 17 16.5 28t30.5 11h496q17 0 25.5 -11t5.5 -28z" />
    <glyph glyph-name="bracketleft" unicode="[" horiz-adv-x="375" 
d="M59 41q-4 -17 4.5 -28t25.5 -11h199q17 0 30.5 11t17.5 28l21 100q3 16 -5.5 27t-25.5 11h-51l47 222h51q17 0 30.5 11t17.5 28l21 99q3 17 -5.5 28t-25.5 11h-199q-17 0 -30.5 -11t-16.5 -28zM150 539q5 24 23 39t42 15h199q35 0 42 -31l1 1l22 -27q11 -14 6 -37
l-21 -99q-5 -23 -22 -37t-40 -14h-40l-33 -155q36 0 43 -31v1l22 -26q12 -15 6 -37l-21 -100q-5 -23 -22 -37t-40 -14h-200q-23 0 -34 14l-21 28h1q-26 14 -19 49z" />
    <glyph glyph-name="backslash" unicode="\" horiz-adv-x="473" 
d="M149 534l91 -496q-4 -17 2 -28.5t18 -17.5h-1l22 -28q11 -14 34 -14h99q23 0 40 14.5t22 37.5l-92 498q3 22 -6 36l-23 29v-1q-8 29 -42 29h-99q-24 0 -42.5 -15.5t-23.5 -39.5zM164 539q3 17 16.5 28t30.5 11h99q17 0 25.5 -11t5.5 -28l92 -498q-4 -17 -17.5 -28
t-30.5 -11h-99q-17 0 -25.5 11t-4.5 28z" />
    <glyph glyph-name="bracketright" unicode="]" horiz-adv-x="375" 
d="M167 363q9 -14 31 -14l-33 -155h-36q-24 0 -42 -15t-23 -38l-21 -100q-7 -35 19 -49h-1l21 -28q11 -14 34 -14h200q23 0 40 14t22 37l106 498q5 23 -6 37l-22 27l-1 -1q-7 31 -42 31h-199q-24 0 -42 -15t-23 -39l-21 -99q-9 -37 19 -50h-1zM335 41q-4 -17 -17.5 -28
t-30.5 -11h-199q-17 0 -25.5 11t-4.5 28l21 100q3 16 16.5 27t30.5 11h51l47 222h-51q-17 0 -25.5 11t-4.5 28l21 99q3 17 16.5 28t30.5 11h199q17 0 25.5 -11t5.5 -28z" />
    <glyph glyph-name="asciicircum" unicode="^" horiz-adv-x="673" 
d="M150 544l-107 -503q-7 -35 19 -49h-1l22 -28q11 -14 34 -14h99q20 0 37 12.5t24 32.5h148q7 0 24 5q1 -1 10 -7h-1l22 -29q11 -14 34 -14h100q23 0 40 14t22 37l32 150q10 45 -1 88t-40 81l-9 12q-26 45 -68 76q-4 1 -10 6q5 -3 0.5 0.5t-6.5 5.5q-8 5 -12 8.5t-9 6.5
l-8 6l-8 6q-57 42 -114 80t-114 66h-108q-6 0 -14.5 -5.5t-16 -13t-13.5 -16t-7 -14.5zM165 544q1 4 4.5 10t8.5 11t10 9t10 4h105q57 -28 116.5 -69l122.5 -86l17.5 -13t16.5 -13q55 -40 77.5 -95t10.5 -112l-31 -149q-4 -17 -17.5 -28t-30.5 -11h-100q-16 0 -24.5 11
t-4.5 28l32 153q0 1 -6.5 9.5l-15.5 19.5t-19.5 22.5t-18.5 18.5q-5 3 -10.5 7t-12.5 11l-46 33.5t-58 35.5l-27 -127h160q17 0 25.5 -11t4.5 -28l-21 -99q-3 -17 -16.5 -28t-30.5 -11h-159l-2 -6q-4 -17 -17.5 -28t-30.5 -11h-99q-17 0 -25.5 11t-4.5 28zM416 239h-87
l11 53q18 -10 38 -25z" />
    <glyph glyph-name="underscore" unicode="_" horiz-adv-x="574" 
d="M65 140l-21 -99q-7 -35 19 -49h-1l22 -28q11 -14 34 -14h398q23 0 40 14t22 37l21 99q5 23 -6 37l-22 27v-1q-6 30 -43 30h-398q-24 0 -42 -14.5t-23 -38.5zM80 140q3 17 16.5 28t30.5 11h398q17 0 25.5 -11t5.5 -28l-21 -99q-4 -17 -17.5 -28t-30.5 -11h-398
q-17 0 -25.5 11t-4.5 28z" />
    <glyph glyph-name="grave" unicode="`" horiz-adv-x="288" 
d="M152 546l28 -90l1 -2q3 -11 6.5 -20t13.5 -13h-1l25 -30q7 -9 23 -9h81q20 0 34.5 13t19.5 32l-30 89q-2 3 -4 7t-6 9l-16 21l-1 -1q-4 11 -14.5 24.5t-21.5 13.5h-82q-7 0 -16 -3t-17.5 -8.5t-14.5 -12.5t-8 -15v-5zM167 552q2 9 14.5 16t23.5 7h82q6 0 14 -11t12 -19v1
l26 -82q-3 -12 -14 -21t-25 -9h-81q-12 0 -16.5 8t-7.5 19z" />
    <glyph glyph-name="a" unicode="a" 
d="M415 349q-33 0 -51 -18.5t-23 -36.5h155l8 34q2 8 0 19h-1q-5 1 -8 1.5t-4 0.5h-76zM297 328q2 10 8.5 23t17 24t26.5 18.5t37 7.5h76q18 0 30 -7t18.5 -18t8.5 -23.5t0 -24.5l-11 -49h-222zM458 41q-4 -17 4.5 -28t24.5 -11h100q17 0 30.5 11t17.5 28l74 349
q8 39 0.5 73t-27.5 59.5t-51 40.5t-70 15h-200q-38 0 -75.5 -15t-69 -40.5t-53.5 -59.5t-30 -73l-74 -349q-4 -17 4.5 -28t25.5 -11h99q17 0 30.5 11t17.5 28l13 61h222zM445 50h-155l-11 -49q-5 -23 -22 -37t-40 -14h-99q-23 0 -34 14l-22 28h1q-26 14 -19 49l74 349
q9 42 32.5 79t57 64.5t74 43.5t82.5 16h200q51 0 89 -23t58 -61l14 -17q21 -26 28.5 -63t-1.5 -79l-74 -349q-5 -23 -22 -37t-40 -14h-100q-23 0 -34 14l-21 28h1q-26 14 -19 49z" />
    <glyph glyph-name="b" unicode="b" 
d="M337 195q-1 2 -2.5 2.5t-2.5 2.5q-6 2 -7 6l-3 -12h16zM523 401q6 0 8 -3.5t1 -7.5t-4.5 -7.5t-8.5 -3.5h-114q-11 0 -26 -7.5t-29 -20t-25 -28t-14 -31.5t1.5 -32t13.5 -29t20 -21.5t20 -8.5h115q11 0 8 -11q-2 -11 -13 -11h-209l47 222h209zM59 41q-4 -17 4.5 -28
t25.5 -11h349q38 0 75 13.5t68 38t53.5 59t31.5 77.5q3 13 0.5 29.5t-8 31.5t-12.5 27t-14 16q12 3 24.5 14t23.5 25.5t18.5 29t9.5 25.5l1 2q7 41 -1 75.5t-28 59.5t-50.5 39t-68.5 14h-349q-17 0 -30.5 -11t-16.5 -28zM150 539q5 24 23 39t42 15h349q51 0 89.5 -22.5
t57.5 -62.5l8 -10l5 -5q21 -26 29 -62t-1 -81v-2q-2 -10 -8.5 -23.5t-15.5 -27t-20 -26t-22 -19.5q6 -9 11 -22t8.5 -27t5 -28t-0.5 -24q-10 -46 -34 -83t-57 -63.5t-72 -40.5t-80 -14h-349q-23 0 -34 14l-22 28h1q-26 14 -19 49z" />
    <glyph glyph-name="c" unicode="c" 
d="M324 211l16 77q2 9 7.5 19.5t14.5 19.5t22 15.5t30 6.5h287q23 0 40 14t22 37l21 99q5 23 -6 37l-22 27l-1 -1q-7 31 -42 31h-349q-42 0 -82.5 -16t-74 -43.5t-57 -64.5t-32.5 -79l-43 -200q-11 -52 3 -95t46 -70l14 -17q20 -27 53 -42.5t76 -15.5h349q23 0 40 14t22 37
l21 100q6 22 -6 37l-22 26v-1q-7 31 -43 31h-287h-10q-1 0 -9 2q0 4 0.5 7t1.5 8zM238 2q-39 0 -70 15t-51 40.5t-27.5 59.5t0.5 73l43 200q8 39 30 73t53.5 59.5t69 40.5t75.5 15h349q17 0 25.5 -11t5.5 -28l-21 -99q-4 -17 -17.5 -28t-30.5 -11h-287q-21 0 -36.5 -7.5
t-26.5 -19t-17 -24t-8 -22.5l-17 -77q-7 -33 11.5 -52.5t46.5 -19.5h287q17 0 25.5 -11t5.5 -27l-21 -100q-4 -17 -17.5 -28t-30.5 -11h-349z" />
    <glyph glyph-name="d" unicode="d" 
d="M353 349l-33 -155h99q8 0 18.5 3.5t20.5 10.5t18 17.5t11 24.5l17 78q2 8 0 20h-6q-2 0 -3 0.5t-3 0.5h-139zM310 392q4 9 13 9h140q20 0 32 -7.5t18 -19t7 -24t-1 -22.5l-17 -78q-4 -18 -14 -31.5t-23 -22.5t-26 -13t-23 -4h-151zM59 41q-4 -17 4.5 -28t25.5 -11h349
q38 0 75.5 15t69 40.5t53.5 59.5t30 73l43 200q8 39 0.5 73t-27.5 59.5t-51 40.5t-70 15h-349q-17 0 -30.5 -11t-16.5 -28zM150 539q5 24 23 39t42 15h349q51 0 89 -23t58 -61l14 -17q21 -26 28.5 -63t-1.5 -79l-42 -199q-9 -42 -32.5 -78.5t-56.5 -64t-72.5 -43
t-81.5 -15.5h-349q-23 0 -34 14l-22 28h1q-26 14 -19 49z" />
    <glyph glyph-name="e" unicode="e" 
d="M138 8q20 -27 53 -42.5t76 -15.5h349q23 0 40 14t22 37l21 100q6 22 -6 37l-12 15q32 13 40 47l21 100q5 23 -6 37l-13 15q33 12 40 48l21 99q5 23 -6 37l-22 27l-1 -1q-7 31 -42 31h-349q-42 0 -82.5 -16t-74 -43.5t-57 -64.5t-32.5 -79l-43 -200q-11 -52 3 -95t46 -70z
M238 2q-39 0 -70 15t-51 40.5t-27.5 59.5t0.5 73l43 200q8 39 30 73t53.5 59.5t69 40.5t75.5 15h349q17 0 25.5 -11t5.5 -28l-21 -99q-4 -17 -17.5 -28t-30.5 -11h-349q-10 0 -13 -11l-2 -11h360q17 0 25.5 -11t4.5 -28l-21 -100q-4 -17 -17 -28t-30 -11h-361l-2 -11
q0 -11 9 -11h349q17 0 25.5 -11t5.5 -27l-21 -100q-4 -17 -17.5 -28t-30.5 -11h-349z" />
    <glyph glyph-name="f" unicode="f" horiz-adv-x="646" 
d="M150 539l-106 -498q-7 -35 19 -49h-1l22 -28q11 -14 34 -14h99q23 0 40 14t22 37l32 149h320q23 0 40 13.5t22 36.5l21 100q5 23 -6 37l-13 15q33 12 40 48l21 99q5 23 -6 37l-22 27l-1 -1q-7 31 -42 31h-470q-24 0 -42 -15t-23 -39zM165 539q3 17 16.5 28t30.5 11h470
q17 0 25.5 -11t5.5 -28l-21 -99q-4 -17 -17.5 -28t-30.5 -11h-322l-4 -22h322q17 0 25.5 -11t4.5 -28l-21 -100q-4 -17 -17 -28t-30 -11h-321q-11 0 -14 -11l-31 -149q-4 -17 -17.5 -28t-30.5 -11h-99q-17 0 -25.5 11t-4.5 28z" />
    <glyph glyph-name="g" unicode="g" 
d="M138 8q20 -27 53 -42.5t76 -15.5h200q62 0 118 34t92 88q19 28 28 59t9 60t-8.5 55.5t-24.5 45.5l-5 5l-8 11q-6 11 -14 21t-17 20h64q23 0 40 14t22 37l21 99q5 23 -6 37l-22 27l-1 -1q-7 31 -42 31h-349q-42 0 -82.5 -16t-74 -43.5t-57 -64.5t-32.5 -79l-43 -200
q-11 -52 3 -95t46 -70zM339 401q-9 -1 -19.5 -7t-12.5 -17l-37 -173q-2 -11 5.5 -18t17.5 -7h183q11 0 13 11q3 11 -8 11h-150q-17 0 -26 11t-5 28l21 100q4 17 17.5 28t30.5 11h150q38 0 69 -15t51 -41t27.5 -60t-0.5 -73t-30.5 -73t-53.5 -59.5t-68.5 -40.5t-75.5 -15
h-200q-39 0 -70 15t-51 40.5t-27.5 59.5t0.5 73l43 200q8 39 30 73t53.5 59.5t69 40.5t75.5 15h349q17 0 25.5 -11t5.5 -28l-21 -99q-4 -17 -17.5 -28t-30.5 -11h-333z" />
    <glyph glyph-name="h" unicode="h" horiz-adv-x="652" 
d="M150 539l-106 -498q-7 -35 19 -49h-1l22 -28q11 -14 34 -14h99q23 0 40 14t22 37l32 149h133l-23 -109q-7 -35 19 -49h-1l22 -28q9 -14 33 -14h100q23 0 40 14t22 37l106 498q5 23 -6 37l-22 27l-1 -1q-7 31 -42 31h-99q-24 0 -42 -15t-23 -39l-31 -145h-133l22 105
q5 23 -6 37l-22 27l-1 -1q-7 31 -42 31h-99q-24 0 -42 -15t-23 -39zM165 539q3 17 16.5 28t30.5 11h99q17 0 25.5 -11t5.5 -28l-34 -160h200l34 160q3 17 16.5 28t30.5 11h99q17 0 25.5 -11t5.5 -28l-106 -498q-4 -17 -17.5 -28t-30.5 -11h-99q-17 0 -25.5 11t-4.5 28
l34 160h-200l-34 -160q-4 -17 -17.5 -28t-30.5 -11h-99q-17 0 -25.5 11t-4.5 28z" />
    <glyph glyph-name="i" unicode="i" horiz-adv-x="274" 
d="M150 539l-106 -498q-7 -35 19 -49h-1l21 -28q11 -14 34 -14h99q23 0 40 14t22 37l106 498q5 23 -6 37l-22 27l-1 -1q-7 31 -42 31h-99q-23 0 -41 -15t-23 -39zM165 539q3 17 16 28t30 11h99q17 0 25.5 -11t5.5 -28l-106 -498q-4 -17 -17.5 -28t-30.5 -11h-99
q-17 0 -25 11t-4 28z" />
    <glyph glyph-name="j" unicode="j" horiz-adv-x="628" 
d="M503 539l-62 -288q-3 -15 -11 -26t-18.5 -18t-21 -10t-19.5 -3h-241q-24 0 -42 -15t-23 -38l-21 -100q-7 -35 19 -49h-1l22 -28q11 -14 34 -14h303q42 0 81.5 15.5t72.5 43t56.5 64t32.5 78.5l74 348q5 23 -6 37l-22 27l-1 -1q-7 31 -42 31h-99q-24 0 -42 -15t-23 -39z
M518 539q3 17 16.5 28t30.5 11h99q17 0 25.5 -11t5.5 -28l-75 -349q-8 -39 -30 -73t-53.5 -59.5t-69 -40.5t-75.5 -15h-303q-17 0 -25.5 11t-4.5 28l21 100q3 16 16.5 27t30.5 11h241q10 0 24 4t27 12.5t23 22t14 33.5z" />
    <glyph glyph-name="k" unicode="k" horiz-adv-x="688" 
d="M150 539l-106 -498q-7 -35 19 -49h-1l22 -28q11 -14 34 -14h99q23 0 40 14t22 37l32 150h153q4 0 6.5 -0.5t5.5 -1.5q1 -11 0 -18l-19 -90q-7 -35 19 -49h-1l21 -28q11 -14 34 -14h100q23 0 40 14t22 37l32 151q9 42 1.5 77t-28.5 62l-13 15q-2 6 -5.5 11.5l-6.5 10.5
l36 171q5 23 -6 37l-22 27l-1 -1q-7 31 -42 31h-99q-24 0 -42 -15t-23 -39l-31 -144h-79l22 104q5 23 -6 37l-22 27l-1 -1q-7 31 -42 31h-99q-24 0 -42 -15t-23 -39zM165 539q3 17 16.5 28t30.5 11h99q17 0 25.5 -11t5.5 -28l-34 -159h146l34 159q3 17 16.5 28t30.5 11h99
q17 0 25.5 -11t5.5 -28l-40 -188q36 -26 51.5 -67.5t4.5 -92.5l-32 -150q-4 -17 -17.5 -28t-30.5 -11h-100q-16 0 -24.5 11t-4.5 28l19 90q2 10 0 22.5t-8.5 23.5t-18.5 18t-29 7h-154q-8 0 -13 -8l-32 -153q-4 -17 -17.5 -28t-30.5 -11h-99q-17 0 -25.5 11t-4.5 28z" />
    <glyph glyph-name="l" unicode="l" horiz-adv-x="628" 
d="M138 8q20 -27 53 -42.5t76 -15.5h303q23 0 40 14t22 37l21 100q6 22 -6 37l-22 26v-1q-7 31 -43 31h-241q-12 0 -19 3q0 3 0.5 6t1.5 8l61 288q5 23 -6 37l-22 27l-1 -1q-7 31 -42 31h-99q-24 0 -42 -15t-23 -39l-75 -349q-11 -52 3 -95t46 -70zM280 251q-4 -20 1 -33.5
t14 -22t20.5 -12.5t22.5 -4h241q17 0 25.5 -11t5.5 -27l-21 -100q-4 -17 -17.5 -28t-30.5 -11h-303q-39 0 -70 15t-51 40.5t-27.5 59.5t0.5 73l75 349q3 17 16.5 28t30.5 11h99q17 0 25.5 -11t5.5 -28z" />
    <glyph glyph-name="m" unicode="m" horiz-adv-x="874" 
d="M609 396q5 5 11 5h44q17 0 28.5 -7.5t18 -18t8 -23.5t-0.5 -23l-61 -288q-4 -17 4.5 -28t25.5 -11h100q17 0 30.5 11t17.5 28l74 349q8 39 0.5 73t-27.5 59.5t-51 40.5t-70 15h-400q-38 0 -75.5 -15t-69 -40.5t-53.5 -59.5t-30 -73l-74 -349q-4 -17 4.5 -28t25.5 -11h100
q17 0 30 11t17 28l61 288q2 10 9.5 23t18.5 23.5t26 18t32 7.5h35q12 0 12 -6l-75 -354q-4 -17 5 -28t26 -11h100q17 0 30.5 11t17.5 28zM660 -8h1q-25 12 -18 49l61 288q1 4 0.5 9t-0.5 10q-2 0 -3 0.5t-3 0.5h-47l-74 -348q-5 -23 -22 -37t-40 -14h-100q-22 0 -34 15
l-22 27h1q-27 14 -20 49l65 308q-26 -4 -43.5 -23.5t-21.5 -36.5l-61 -288q-5 -23 -22 -37t-40 -14h-99q-23 0 -34 14l-22 28h1q-26 14 -19 49l74 349q9 42 32.5 79t57 64.5t74 43.5t82.5 16h400q54 0 92 -24t56 -64l12 -13q21 -26 29.5 -62.5t-1.5 -79.5l-74 -349
q-5 -23 -22 -37t-40 -14h-100q-23 0 -34 14z" />
    <glyph glyph-name="n" unicode="n" 
d="M59 41q-4 -17 4.5 -28t25.5 -11h99q17 0 30.5 11t17.5 28l74 351q4 9 13 9h140q17 0 29 -7.5t18.5 -18t8.5 -23.5t0 -23l-61 -288q-4 -17 4.5 -28t24.5 -11h100q17 0 30.5 11t17.5 28l74 349q8 39 0.5 73t-27.5 59.5t-51 40.5t-70 15h-349q-17 0 -30.5 -11t-16.5 -28z
M150 539q5 24 23 39t42 15h349q51 0 89 -23t58 -61l9 -12l5 -5q21 -26 28.5 -63t-1.5 -79l-74 -349q-5 -23 -22 -37t-40 -14h-100q-23 0 -34 14l-21 28h1q-26 14 -19 49l61 288q1 7 0 18q-3 1 -5.5 1.5t-6.5 0.5h-139l-74 -348q-5 -23 -22 -37t-40 -14h-99q-23 0 -34 14
l-22 28h1q-26 14 -19 49z" />
    <glyph glyph-name="o" unicode="o" 
d="M138 8q20 -27 53 -42.5t76 -15.5h200q42 0 81.5 15.5t72.5 43t56.5 64t32.5 78.5l42 199q9 42 1.5 79t-28.5 63l-5 5l-9 12q-20 38 -58 61t-89 23h-200q-42 0 -82.5 -16t-74 -43.5t-57 -64.5t-32.5 -79l-43 -200q-11 -52 3 -95t46 -70zM238 2q-39 0 -70 15t-51 40.5
t-27.5 59.5t0.5 73l43 200q8 39 30 73t53.5 59.5t69 40.5t75.5 15h200q39 0 70 -15t51 -40.5t27.5 -59.5t-0.5 -73l-43 -200q-8 -39 -30 -73t-53.5 -59.5t-69 -40.5t-75.5 -15h-200zM415 179q30 0 55.5 20.5t32.5 52.5l16 76q7 32 -10 52.5t-47 20.5h-77q-32 0 -56.5 -20.5
t-31.5 -52.5l-16 -76q-7 -32 9 -52.5t48 -20.5h77zM418 194h-77h-10q-1 0 -9 2q-1 4 0 7.5t2 8.5l16 76q5 26 26.5 43.5t47.5 17.5h77q1 0 4 -0.5t8 -1.5h1q0 -5 0.5 -9.5t-0.5 -9.5l-16 -76q-5 -24 -26 -41t-44 -17z" />
    <glyph glyph-name="p" unicode="p" 
d="M353 349l-12 -56q1 1 9 1h89q18 0 38.5 6t24.5 18l6 30q-2 1 -15 1h-140zM59 41q-4 -17 4.5 -28t25.5 -11h99q17 0 30.5 11t17.5 28l74 351q4 9 13 9h141q35 0 50 -13t12 -27l-9 -43q-2 -10 -11 -17t-21 -12t-25.5 -7.5t-23.5 -2.5h-89q-17 0 -30 -11t-17 -28l-21 -99
q-4 -17 5 -28t26 -11h150q38 0 75.5 14.5t68.5 40t53.5 60t30.5 73.5l21 100q8 39 0.5 73t-27.5 59.5t-51 40.5t-70 15h-349q-17 0 -30.5 -11t-16.5 -28zM150 539q5 24 23 39t42 15h349q51 0 89 -23t58 -61l9 -12l5 -5q21 -26 28.5 -63t-1.5 -79l-21 -100q-9 -42 -32 -78.5
t-56 -63.5t-72.5 -42.5t-81.5 -15.5h-150q-23 0 -34 14l-10 12l-16 -75q-5 -23 -22 -37t-40 -14h-99q-23 0 -34 14l-22 28h1q-26 14 -19 49z" />
    <glyph glyph-name="q" unicode="q" horiz-adv-x="680" 
d="M472 246q2 -2 3 -5.5t3 -7.5l1 -6q12 14 15 25l16 76q1 5 0.5 8.5t-1.5 8.5q1 1 0 1q-9 3 -18 3h-77q-26 0 -47.5 -17.5t-26.5 -43.5l-3 -16l41 23q13 7 30 7q32 0 40 -27h1l1 -3v1zM297 328q7 32 31.5 52.5t56.5 20.5h77q31 0 50 -20.5t13 -52.5l-16 -76
q-5 -18 -18.5 -33t-27.5 -25l-29 73q-6 20 -29 20q-10 0 -22 -6h1l-104 -57q-3 14 1 28zM367 -94q6 -18 29 -18q13 0 21 5l95 51q24 14 27 34q2 10 -1 21v-1l-10 24q25 12 48 29t42.5 38.5t33.5 47t20 53.5l43 200q8 39 0.5 73t-27.5 59.5t-51 40.5t-70 15h-206
q-38 0 -75.5 -15t-69 -40.5t-53.5 -59.5t-30 -73l-43 -200q-8 -39 -0.5 -73t27.5 -59.5t51 -40.5t70 -15h92l37 -95v-1zM330 -50h-63q-43 0 -76 15.5t-53 42.5l-14 17q-32 27 -46 70t-3 95l43 200q9 43 32.5 80t57 64.5t74 43t82.5 15.5h206q51 0 89 -22.5t58 -60.5l9 -12
l5 -5q21 -27 28.5 -64t-1.5 -79l-42 -199q-12 -58 -51 -102.5t-90 -70.5l2 -4q5 -13 6 -22t0 -14q-6 -28 -35 -45l-95 -51q-9 -6 -28 -6q-22 0 -32 12l-24 30h1q-13 5 -17 18v-1z" />
    <glyph glyph-name="r" unicode="r" horiz-adv-x="673" 
d="M346 317l18 16t19 16h-30zM59 41q-4 -17 4.5 -28t25.5 -11h99q17 0 30.5 11t17.5 28l76 360h211q6 0 7.5 -3.5t0.5 -7.5t-4.5 -7.5t-7.5 -3.5q-39 0 -76.5 -15t-69 -41t-54 -60t-30.5 -73t-0.5 -73t28 -59.5t51.5 -40.5t70 -15h148q17 0 30.5 11t17.5 28l21 100
q3 16 -5.5 27t-25.5 11h-148q-11 0 -9 11q3 11 14 11q38 0 75.5 15t68.5 40.5t53 60t30 73.5q8 38 0.5 72.5t-27.5 60t-51 40.5t-69 15h-349q-17 0 -30.5 -11t-16.5 -28zM150 539q5 24 23 39t42 15h349q51 0 88.5 -23.5t57.5 -61.5l13 -16q21 -26 29 -63t-1 -79
q-10 -49 -39.5 -90t-69.5 -69q22 -4 28 -28v1l22 -26q12 -15 6 -37l-21 -100q-5 -23 -22 -37t-40 -14h-148q-42 0 -75 16t-54 43l-10 13q-22 17 -36 40l-13 -61q-5 -23 -22 -37t-40 -14h-99q-23 0 -34 14l-22 28h1q-26 14 -19 49z" />
    <glyph glyph-name="s" unicode="s" 
d="M44 41q-7 -35 19 -49h-1l22 -28q11 -14 34 -14h349q62 0 118 34t92 88q19 28 28 59t9 60t-8.5 55.5t-24.5 45.5l-13 16q-6 11 -14 21t-17 20h64q23 0 40 14t22 37l21 99q5 23 -6 37l-22 27l-1 -1q-7 31 -42 31h-349q-42 0 -82.5 -16t-74 -44t-57 -64.5t-32.5 -78.5
q-11 -54 2.5 -96.5t45.5 -70.5l14 -16q2 -4 4.5 -7.5t5.5 -5.5h-60q-24 0 -42 -15t-23 -38zM80 141q3 16 16.5 27t30.5 11h349q11 0 13 11q3 11 -8 11h-200q-39 0 -70 15t-51 40.5t-27.5 60t0.5 73.5q8 38 30.5 72.5t53.5 60t68.5 40.5t75.5 15h349q17 0 25.5 -11t5.5 -28
l-21 -99q-4 -17 -17.5 -28t-30.5 -11h-349q-5 0 -8.5 -3.5t-4.5 -7.5t1 -7.5t8 -3.5h200q38 0 69 -15t51 -41t27.5 -60t-0.5 -73t-30.5 -73t-53.5 -59.5t-68.5 -40.5t-75.5 -15h-349q-17 0 -25.5 11t-4.5 28z" />
    <glyph glyph-name="t" unicode="t" 
d="M243 41q-7 -35 19 -49h-1l22 -28q11 -14 34 -14h100q23 0 40 14t22 37l74 348h148q23 0 40 14t22 37l21 99q5 23 -6 37l-22 27l-1 -1q-7 31 -42 31h-498q-24 0 -42 -15t-23 -39l-21 -99q-9 -37 19 -50h-1l22 -27q11 -14 34 -14h105zM334 401h-160q-17 0 -25.5 11t-4.5 28
l21 99q3 17 16.5 28t30.5 11h498q17 0 25.5 -11t5.5 -28l-21 -99q-4 -17 -17.5 -28t-30.5 -11h-160l-76 -360q-4 -17 -17.5 -28t-30.5 -11h-100q-17 0 -25.5 11t-4.5 28z" />
    <glyph glyph-name="u" unicode="u" 
d="M488 253q-6 -27 -27.5 -43.5t-41.5 -16.5h-77q-13 0 -20 3q0 3 0.5 6.5t1.5 8.5l61 288q5 23 -6 37l-22 27l-1 -1q-7 31 -42 31h-99q-24 0 -42 -15t-23 -39l-75 -349q-11 -52 3 -95t46 -70l14 -17q20 -27 53 -42.5t76 -15.5h200q42 0 81.5 15.5t72.5 43t56.5 64
t32.5 78.5l74 348q5 27 -5 38l-23 29v-1q-4 12 -14 20t-29 8h-100q-23 0 -41 -15t-23 -39zM564 539q3 17 16.5 28t29.5 11h100q20 0 27 -11t4 -28l-75 -349q-8 -39 -30 -73t-53.5 -59.5t-69 -40.5t-75.5 -15h-200q-39 0 -70 15t-51 40.5t-27.5 59.5t0.5 73l75 349
q3 17 16.5 28t30.5 11h99q17 0 25.5 -11t5.5 -28l-62 -288q-4 -20 0.5 -34t13.5 -22.5t21.5 -12.5t23.5 -4h77q12 0 26 5t26 15t21.5 24t13.5 31z" />
    <glyph glyph-name="v" unicode="v" horiz-adv-x="673" 
d="M58 36q-2 -9 4 -21.5t14 -12.5h106q85 35 181.5 86t196.5 111q24 15 47 31t41.5 35t32.5 41.5t20 51.5l39 181q3 17 -5.5 28t-25.5 11h-100q-16 0 -29.5 -11t-16.5 -28l-33 -153q0 -1 -10 -9.5l-24 -19.5l-29.5 -22.5t-26.5 -18.5l-13.5 -7t-17.5 -11l-60 -33.5
t-73 -35.5l66 310q3 17 -5.5 28t-25.5 11h-99q-17 0 -30.5 -11t-16.5 -28zM150 539q5 24 23 39t42 15h99q35 0 42 -31l1 1l22 -27q11 -14 6 -37l-48 -227q17 9 33.5 19l31.5 19q17 11 31 17h-1l25.5 17l27 19l21.5 15.5t9 7.5l33 153q5 24 23 39t41 15h100q35 0 42 -31l1 1
l22 -27q11 -14 6 -37l-38 -181q-7 -30 -21.5 -54.5t-34 -45t-43 -37t-48.5 -31.5q-97 -60 -195.5 -111.5t-189.5 -88.5h-108q-10 0 -17 10l-22 29h1q-11 5 -18.5 20.5t-5.5 26.5z" />
    <glyph glyph-name="w" unicode="w" horiz-adv-x="874" 
d="M749 539l-61 -286q-6 -27 -22 -43.5t-36 -16.5q-3 0 -6 -0.5t-6 0.5l2 7l63 299q5 27 -5 38l-23 29v-1q-4 12 -14 20t-29 8h-104q-24 -3 -40.5 -16.5t-21.5 -37.5l-64 -297q-16 -49 -54 -49h-8l65 306q5 23 -6 37l-22 27l-1 -1q-7 31 -41 31h-100q-24 0 -42 -15t-23 -39
l-75 -349q-11 -52 3 -95t46 -70l14 -17q21 -27 53.5 -42.5t75.5 -15.5h72q25 0 55.5 7t54.5 27q11 -14 36 -24t52 -10h129q42 0 82 15.5t73 43t56.5 64t32.5 78.5l74 348q4 24 -6 37l-22 27l-1 -1q-4 31 -42 31h-100q-24 0 -41.5 -15t-22.5 -39zM763 539q3 17 16.5 28
t30.5 11h100q18 0 26 -11t5 -28l-75 -349q-8 -39 -30 -73t-53.5 -59.5t-69 -40.5t-76.5 -15h-129q-15 0 -29 3.5t-26 9.5t-20.5 13.5t-11.5 15.5q-23 -25 -53.5 -33.5t-57.5 -8.5h-72q-39 0 -70 15t-51 40.5t-27.5 59.5t0.5 73l75 349q3 17 16.5 28t30.5 11h100q17 0 25 -11
t5 -28l-62 -288q-8 -40 4.5 -56.5t40.5 -16.5q23 0 43 17t29 47l64 297q3 17 15.5 27t29.5 12h103q20 0 27 -11t4 -28l-64 -299q-4 -34 11 -48t40 -14q27 0 47 20t28 55z" />
    <glyph glyph-name="x" unicode="x" horiz-adv-x="715" 
d="M84 -36q11 -14 34 -14h99q23 0 40 14t22 37l19 90q2 9 8 19.5t15.5 19.5t22 15t26.5 6h121q4 0 6.5 -0.5t5.5 -1.5q1 -11 0 -18l-19 -90q-7 -35 19 -49h-1l21 -28q11 -14 34 -14h100q23 0 40 14t22 37l32 151q9 42 1.5 77t-28.5 62l-13 15q-2 6 -5.5 11.5l-6.5 10.5
l36 171q5 23 -6 37l-22 27l-1 -1q-7 31 -42 31h-99q-24 0 -42 -15t-23 -39l-31 -144h-16l22 104q5 23 -6 37l-22 27l-1 -1q-7 31 -42 31h-100q-23 0 -41 -15t-23 -39l-38 -179q-49 -29 -82 -72t-44 -97l-32 -150q-7 -35 19 -49h-1zM515 539q3 17 16.5 28t30.5 11h99
q17 0 25.5 -11t5.5 -28l-40 -188q36 -26 51.5 -67.5t4.5 -92.5l-32 -150q-4 -17 -17.5 -28t-30.5 -11h-100q-16 0 -24.5 11t-4.5 28l19 90q2 10 0 22.5t-8.5 23.5t-18.5 18t-29 7h-121q-17 0 -32 -7t-26 -18t-18.5 -23.5t-9.5 -22.5l-19 -90q-4 -17 -17.5 -28t-30.5 -11h-99
q-17 0 -25.5 11t-4.5 28l32 150q11 51 43.5 92.5t80.5 67.5l40 188q3 17 16.5 28t29.5 11h100q17 0 25.5 -11t5.5 -28l-34 -159h83z" />
    <glyph glyph-name="y" unicode="y" horiz-adv-x="673" 
d="M475 194h-1q1 1 5 1q8 2 28 6t58 18q27 9 50.5 26t42 40t31.5 49.5t19 55.5l32 149q3 17 -5.5 28t-25.5 11h-100q-16 0 -29.5 -11t-16.5 -28l-19 -86q-5 -27 -27 -48t-57 -24h-79q-17 1 -29 9t-19 19t-9.5 22.5t-0.5 20.5l19 87q3 17 -5.5 28t-25.5 11h-99
q-17 0 -30.5 -11t-16.5 -28l-32 -149q-12 -57 6 -105t65 -66q32 -14 50.5 -18t24.5 -6q4 0 5 -1h-1l6 -2l-32 -151q-4 -17 3.5 -28t24.5 -11h103q17 0 30.5 11t17.5 28l32 151zM367 412l-2 -6t-1 -6q7 -4 20 -4h78q28 2 45 18.5t22 38.5l19 86q5 24 23 39t41 15h100
q35 0 42 -31l1 1l22 -27q11 -14 6 -37l-32 -149q-6 -30 -20 -58.5t-34 -52.5t-45.5 -42.5t-53.5 -28.5q-37 -12 -56 -16.5l-27 -6.5q-2 0 -2.5 -0.5t-1.5 -0.5h-1l-31 -143q-5 -23 -22 -37t-40 -14h-103q-22 0 -32 13l-22 28h1q-26 14 -19 50l24 112q-19 5 -38 15h-1
q-17 6 -29 16t-20 22l-12 14q-35 26 -47 71t-1 99l32 149q5 24 23 39t42 15h99q35 0 42 -31l1 1l22 -27q11 -14 6 -37z" />
    <glyph glyph-name="z" unicode="z" 
d="M739 539q3 17 -5.5 28t-25.5 11h-496q-17 0 -30.5 -11t-16.5 -28l-21 -99q-4 -17 4.5 -28t25.5 -11h349q6 0 8 -5l-3 -13q-1 -4 -9 -4h-200q-38 0 -75.5 -15t-69 -41t-54 -60t-30.5 -73l-31 -149q-4 -17 4.5 -28t25.5 -11h498q17 0 30.5 11t17.5 28l21 100q3 16 -5.5 27
t-25.5 11h-349q-9 0 -9 6l2 9q3 7 12 7h200q38 0 75.5 16.5t68 43t52.5 59.5t29 66zM147 390h1q-28 13 -19 50l21 99q5 24 23 39t42 15h496q35 0 42 -31l1 1l22 -27q11 -14 6 -37l-32 -153q-9 -42 -39.5 -83t-72.5 -70q27 -5 33 -30v1l22 -26q12 -15 6 -37l-21 -100
q-5 -23 -22 -37t-40 -14h-498q-23 0 -34 14l-22 28h1q-26 14 -19 49l31 149q11 49 40 90t71 70q-13 3 -17 13z" />
    <glyph glyph-name="braceleft" unicode="{" horiz-adv-x="374" 
d="M401 349q23 0 40 14t22 37l21 99q5 23 -6 37l-22 27l-1 -1q-7 31 -42 31h-49q-43 0 -83.5 -16t-73.5 -43.5t-56.5 -64.5t-32.5 -79l-43 -200q-11 -52 2.5 -95t45.5 -70l14 -17q21 -27 54 -42.5t75 -15.5h50q23 0 40 14t22 37l21 100q6 22 -6 37l-22 26v-1q-7 31 -43 31
h-9l33 155h49zM238 2q-39 0 -70 15t-51 40.5t-27.5 59.5t0.5 73l43 200q8 39 30 73t53 59.5t68.5 40.5t76.5 15h49q17 0 25.5 -11t5.5 -28l-21 -99q-4 -17 -17.5 -28t-30.5 -11h-49q-10 0 -13 -11l-43 -200q-2 -11 9 -11h49q17 0 25.5 -11t5.5 -27l-21 -100
q-4 -17 -17.5 -28t-30.5 -11h-49z" />
    <glyph glyph-name="bar" unicode="|" horiz-adv-x="274" 
d="M171 639l-149 -698q-6 -37 20 -49h-1l21 -28q11 -14 34 -14h99q23 0 40 14t22 37l149 699q5 23 -7 36l-22 27v-1q-7 31 -43 31h-99q-23 0 -41 -15t-23 -39zM186 639q3 17 16 28t30 11h99q17 0 25.5 -11t5.5 -28l-149 -698q-3 -17 -16.5 -28t-30.5 -11h-99q-17 0 -25 11
t-5 28z" />
    <glyph glyph-name="braceright" unicode="}" horiz-adv-x="374" 
d="M138 2q39 0 76.5 15t68.5 40.5t53 59.5t30 73l43 200q8 39 0.5 73t-27.5 59.5t-51 40.5t-70 15h-49q-17 0 -30.5 -11t-16.5 -28l-21 -99q-4 -17 4.5 -28t25.5 -11h49q12 0 9 -11l-43 -200q-2 -11 -13 -11h-49q-17 0 -30.5 -11t-16.5 -27l-21 -100q-4 -17 4.5 -28
t25.5 -11h49zM147 390h1q-28 13 -19 50l21 99q5 24 23 39t42 15h49q52 0 89.5 -23t57.5 -61l9 -12l5 -5q21 -26 28.5 -63t-1.5 -79l-42 -199q-9 -42 -32.5 -78.5t-56.5 -64t-72.5 -43t-81.5 -15.5h-50q-23 0 -34 14l-21 28h1q-26 14 -19 49l21 100q5 23 23 38t42 15h45
l33 155h-6q-23 0 -34 14z" />
    <glyph glyph-name="asciitilde" unicode="~" horiz-adv-x="523" 
d="M334 393h-121q-5 0 -13 -5t-16.5 -12.5t-16 -15.5t-11.5 -15l-70 -104q-4 -17 2 -31t18 -21h-1l23 -26q10 -13 28 -13h86q20 0 30.5 12.5t21.5 28.5l-1 -1l6 -2h-1l25 -28q7 -10 22 -10h121q6 0 13.5 4.5t15 11.5t14.5 14.5t11 12.5l71 106q4 21 -8 38l-23 27v-1
q-6 30 -35 30h-86q-21 0 -32.5 -12.5t-20.5 -27.5l-4 -6l-16 20v-1q-4 11 -11 19t-21 8zM399 348l15.5 20.5t20.5 9.5h86q14 0 22 -11.5t4 -26.5l-68 -102q-8 -10 -21 -23.5t-21 -13.5h-121q-11 0 -16 10t-7 24l-11 45l-30 -45q-9 -14 -17 -24t-22 -10h-86q-14 0 -22 11
t-4 26l68 102q4 6 9.5 12.5t11.5 12t11 9.5t8 4h121q14 0 18.5 -10.5t6.5 -23.5l12 -44z" />
    <glyph glyph-name="FL007Fh" horiz-adv-x="258" 
 />
    <glyph glyph-name="yen" horiz-adv-x="784" 
d="M134 449l-21 -100q-6 -36 19 -49h-1l9 -13q-19 -5 -33 -18.5t-18 -33.5l-21 -99q-7 -36 19 -50h-1l23 -27q11 -14 34 -14h68q3 -5 6.5 -8.5l7.5 -7.5l18 -21q21 -27 53 -42.5t77 -15.5h349q23 0 40 14t22 37l21 100q6 22 -6 37l-22 26v-1q-7 31 -43 31h-83v1q6 22 -6 37
l-21 26q19 3 33 17t19 34l8 40h123q23 0 40 14t22 37l21 99q5 23 -6 37l-22 27l-1 -1q-7 31 -42 31h-349q-54 0 -103 -24.5t-87 -66.5h-80q-24 0 -42.5 -14.5t-23.5 -38.5zM149 449q4 17 17.5 27.5t30.5 10.5h90q34 42 81.5 66.5t98.5 24.5h349q17 0 25.5 -11t5.5 -28
l-21 -99q-4 -17 -17.5 -28t-30.5 -11h-134l-11 -52q-3 -17 -16.5 -28t-30.5 -11h-187l-8 -36h187q17 0 26 -11t5 -28l-12 -56h134q17 0 25.5 -11t5.5 -27l-21 -100q-4 -17 -17.5 -28t-30.5 -11h-349q-54 0 -90.5 26t-51.5 69h-88q-17 0 -26 11t-5 28l21 99q4 17 17 28t30 11
h63l8 36h-63q-17 0 -25.5 11t-5.5 28z" />
    <glyph glyph-name="yen" unicode="&#x20ac;" horiz-adv-x="784" 
d="M134 449l-21 -100q-6 -36 19 -49h-1l9 -13q-19 -5 -33 -18.5t-18 -33.5l-21 -99q-7 -36 19 -50h-1l23 -27q11 -14 34 -14h68q3 -5 6.5 -8.5l7.5 -7.5l18 -21q21 -27 53 -42.5t77 -15.5h349q23 0 40 14t22 37l21 100q6 22 -6 37l-22 26v-1q-7 31 -43 31h-83v1q6 22 -6 37
l-21 26q19 3 33 17t19 34l8 40h123q23 0 40 14t22 37l21 99q5 23 -6 37l-22 27l-1 -1q-7 31 -42 31h-349q-54 0 -103 -24.5t-87 -66.5h-80q-24 0 -42.5 -14.5t-23.5 -38.5zM149 449q4 17 17.5 27.5t30.5 10.5h90q34 42 81.5 66.5t98.5 24.5h349q17 0 25.5 -11t5.5 -28
l-21 -99q-4 -17 -17.5 -28t-30.5 -11h-134l-11 -52q-3 -17 -16.5 -28t-30.5 -11h-187l-8 -36h187q17 0 26 -11t5 -28l-12 -56h134q17 0 25.5 -11t5.5 -27l-21 -100q-4 -17 -17.5 -28t-30.5 -11h-349q-54 0 -90.5 26t-51.5 69h-88q-17 0 -26 11t-5 28l21 99q4 17 17 28t30 11
h63l8 36h-63q-17 0 -25.5 11t-5.5 28z" />
    <glyph glyph-name="quotesinglbase" unicode="&#x201a;" horiz-adv-x="274" 
d="M54 90l-16 -74q-6 -29 3 -52.5t29 -37.5l17 -20q24 -30 65 -30q19 0 39 8t36.5 21t28.5 30.5t16 37.5l17 78q5 20 0.5 38t-15.5 32l-19 22q-8 23 -28 37t-48 14q-21 0 -41.5 -8.5t-37.5 -22.5t-29.5 -33t-16.5 -40zM69 90q4 18 14.5 34t25 28t32 19.5t35.5 7.5
q17 0 31.5 -7.5t24 -19.5t13.5 -28t0 -34l-16 -77q-4 -17 -15 -32.5t-26 -27.5t-32 -19t-34 -7q-36 0 -56.5 26.5t-12.5 62.5z" />
    <glyph glyph-name="florin" unicode="&#x192;" 
d="M310 390q3 11 13 11h200q6 0 8 -3.5t1 -7.5t-4.5 -7.5t-8.5 -3.5h-211zM276 179q-11 0 -9 11l3 11h211q38 0 75.5 15t68.5 41t53.5 60t30.5 73t0 73t-28 59.5t-51 40.5t-69 15h-200q-38 0 -75.5 -15t-69 -40.5t-53.5 -59.5t-30 -73l-43 -200q-8 -39 -0.5 -73t27.5 -59.5
t51 -40.5t70 -15h349q17 0 30.5 11t17.5 28l21 100q3 16 -5.5 27t-25.5 11h-349zM124 25q-32 27 -46 70t-3 95l43 200q9 42 32.5 79t57 64.5t74 43.5t82.5 16h200q52 0 91 -23.5t58 -65.5l10 -13q22 -26 30 -62.5t-1 -78.5q-10 -48 -39 -89t-71 -69q24 -5 29 -29v1l22 -26
q12 -15 6 -37l-21 -100q-5 -23 -22 -37t-40 -14h-349q-43 0 -76 15.5t-53 42.5z" />
    <glyph glyph-name="quotedblbase" unicode="&#x201e;" horiz-adv-x="477" 
d="M54 90l-16 -74q-6 -29 3.5 -52.5t29.5 -37.5l17 -20q21 -30 64 -30q30 0 59.5 18t47.5 45q2 -2 6 -5.5l9 -7.5h-1l17 -20q24 -30 64 -30q20 0 40 8t36.5 21t28.5 30.5t16 37.5l17 78q5 20 0.5 38t-15.5 32l-19 22q-8 23 -28.5 37t-48.5 14q-32 0 -63 -19.5t-48 -49.5
l-14 18q-8 23 -28.5 37t-48.5 14q-21 0 -41.5 -8.5t-37.5 -22.5t-29.5 -33t-16.5 -40zM271 90q4 18 14.5 34t25 28t32 19.5t35.5 7.5t32.5 -7.5t24 -19.5t13.5 -28t0 -34l-16 -77q-4 -17 -15 -32.5t-26 -27.5t-32.5 -19t-34.5 -7t-31.5 7t-24.5 19.5t-13.5 28.5t0.5 34z
M69 90q4 18 14.5 34t25 28t32 19.5t35.5 7.5t32.5 -7.5t24 -19.5t13.5 -28t0 -34l-16 -77q-4 -17 -15 -32.5t-26 -27.5t-32.5 -19t-34.5 -7t-31.5 7t-24.5 19.5t-13.5 28.5t0.5 34z" />
    <glyph glyph-name="ellipsis" unicode="&#x2026;" horiz-adv-x="684" 
d="M478 90q-8 -36 12.5 -62t56.5 -26q18 0 35.5 7t32.5 19t25.5 28t14.5 34t0 34t-13.5 28t-24 19.5t-32.5 7.5t-35.5 -7.5t-32 -19.5t-25 -28t-14.5 -34zM69 90q-8 -36 13 -62t57 -26q17 0 34 7t32 19t26 28t15 34t0 34t-13.5 28.5t-24 19.5t-31.5 7q-18 0 -35.5 -7
t-32.5 -19.5t-25.5 -28.5t-14.5 -34zM273 90q-8 -36 13 -62t57 -26q18 0 35.5 7t32.5 19t25.5 28t14.5 34t0 34t-13.5 28.5t-24 19.5t-32.5 7t-35.5 -7t-32.5 -19.5t-25.5 -28.5t-14.5 -34zM54 90q4 21 16.5 40t29.5 33t38 22t42 8q27 0 48 -13.5t29 -36.5l14 -19
q18 31 48.5 50t64.5 19q28 0 48 -13.5t30 -35.5l14 -20q18 29 48 49t64 20q28 0 48.5 -13.5t28.5 -36.5l19 -22q23 -29 15 -70q-5 -21 -17 -39t-29 -32t-37 -22t-40 -8q-40 0 -64 30l-17 20q-4 3 -8 6.5t-8 7.5q-18 -27 -47 -45.5t-60 -18.5q-40 0 -64 30l-17 20
q-9 6 -17 14q-18 -27 -47 -45.5t-60 -18.5q-39 0 -63 30l-17 20q-20 14 -29.5 37.5t-3.5 52.5z" />
    <glyph glyph-name="dagger" unicode="&#x2020;" horiz-adv-x="455" 
d="M148 41q-4 -17 4.5 -28t25.5 -11h100q17 0 30.5 11t17.5 28l57 269h51q17 0 30.5 11t16.5 28l21 100q4 17 -4.5 27.5t-25.5 10.5h-51l11 52q3 17 -5.5 28t-25.5 11h-100q-17 0 -30.5 -11t-16.5 -28l-11 -52h-50q-17 0 -30.5 -10.5t-17.5 -27.5l-21 -100q-3 -17 5.5 -28
t25.5 -11h50zM179 258q-20 0 -29 14l-22 27h1q-28 12 -20 50l21 100q5 24 23.5 38.5t42.5 14.5h35l8 37q5 24 23 39t42 15h100q37 0 41 -31l1 1l22 -27q9 -13 7 -34q36 0 42 -30l1 1l22 -27q11 -14 6 -37l-21 -100q-5 -23 -22 -37t-40 -14h-40l-55 -257q-5 -23 -22 -37
t-39 -14h-100q-23 0 -34 14l-22 28h1q-26 14 -19 49z" />
    <glyph glyph-name="daggerdbl" unicode="&#x2021;" horiz-adv-x="455" 
d="M79 136q-4 -17 5 -28t26 -11h50l-12 -56q-4 -17 4.5 -28t25.5 -11h100q17 0 30.5 11t17.5 28l12 56h51q17 0 30 11t17 28l21 99q4 17 -5 28t-26 11h-51l8 36h51q17 0 30.5 11t16.5 28l21 100q4 17 -4.5 27.5t-25.5 10.5h-51l11 52q3 17 -5.5 28t-25.5 11h-100
q-17 0 -30.5 -11t-16.5 -28l-11 -52h-50q-17 0 -30.5 -10.5t-17.5 -27.5l-21 -100q-3 -17 5.5 -28t25.5 -11h50l-8 -36h-50q-17 0 -30 -11t-17 -28zM85 235q4 20 18 33.5t33 18.5l-9 13h1q-25 13 -19 49l21 100q5 24 23.5 38.5t42.5 14.5h35l8 37q5 24 23 39t42 15h100
q37 0 41 -31l1 1l22 -27q9 -13 7 -34q36 0 42 -30l1 1l22 -27q11 -14 6 -37l-21 -100q-5 -20 -19 -34t-33 -17l21 -26q12 -15 6 -37l-21 -99q-5 -23 -21.5 -37t-39.5 -14h-40l-10 -44q-5 -23 -22 -37t-39 -14h-100q-23 0 -34 14l-22 28h1q-26 14 -19 49l1 4q-20 0 -29 14
l-23 27h1q-26 14 -19 50z" />
    <glyph glyph-name="circumflex" unicode="&#x2c6;" horiz-adv-x="423" 
d="M330 459q3 -11 7.5 -19t16.5 -8h81q14 0 25 9t13 21l-26 82l-1 -1q-3 8 -11 19t-14 11h-174q-6 0 -18 -11t-20 -19l1 1l-62 -82q-2 -12 5 -21t21 -9h81q12 0 20 8t16 19l26 36zM151 421h1q-12 6 -16.5 18t-1.5 27l63 84q4 5 10.5 11.5t14 12.5t15 10t13.5 4h174
q11 0 22 -13.5t15 -24.5v1l17 -21q3 -5 5 -9t4 -7l30 -89q-4 -19 -18.5 -32t-34.5 -13h-82q-16 0 -22 9l-25 30l-3 -6h-2q-10 -14 -19.5 -23.5t-26.5 -9.5h-82q-18 0 -28 12z" />
    <glyph glyph-name="perthousand" unicode="&#x2030;" horiz-adv-x="1112" 
d="M275 425q-18 0 -15 19l4 19q4 19 23 19h19q19 0 15 -19l-4 -19q-3 -19 -23 -19h-19zM932 101q-18 0 -14 19l4 19q3 19 23 19h19q18 0 15 -19l-4 -19q-4 -19 -24 -19h-19zM628 101q-18 0 -14 19l4 19q3 19 23 19h19q18 0 15 -19l-4 -19q-4 -19 -24 -19h-19zM663 -15
q19 0 38 7.5t34.5 20t26.5 29.5t15 37l21 99q8 38 -13.5 66t-60.5 28h-100q-19 0 -37.5 -7.5t-34 -20.5t-27 -30t-15.5 -36l-21 -99q-4 -20 0 -37t14 -29.5t25.5 -20t34.5 -7.5h100zM967 -15q19 0 38 7.5t34.5 20t26.5 29.5t15 37l21 99q8 38 -13.5 66t-60.5 28h-100
q-19 0 -37.5 -7.5t-34 -20.5t-26.5 -30t-15 -36l-21 -99q-8 -39 13 -66.5t60 -27.5h100zM310 309q19 0 37.5 7.5t34 20t26.5 29.5t15 37l21 100q8 38 -13 65.5t-60 27.5h-100q-19 0 -37.5 -7.5t-34.5 -20.5t-27 -29.5t-15 -35.5l-21 -100q-4 -20 0 -37t14 -29.5t25.5 -20
t34.5 -7.5h100zM705 539q3 17 -5.5 28t-25.5 11h-100q-17 0 -30.5 -11t-16.5 -28l-304 -498q-4 -17 4.5 -28t25.5 -11h99q17 0 30.5 11t17.5 28zM472 538q10 -14 16 -36l24 39q5 23 23.5 37.5t41.5 14.5h100q33 0 41 -29v1l24 -29q11 -14 6 -37l-130 -213q1 1 9 1h100
q30 0 51.5 -14t29.5 -37l10 -14q19 29 49.5 47t63.5 18h100q30 0 51 -14t30 -37l18 -22q11 -14 16 -33t0 -42l-22 -100q-10 -45 -46 -75.5t-82 -30.5h-100q-23 0 -41 8.5t-29 22.5l-16 22l-3 3l-3 3t-3 2q-20 -28 -48.5 -44.5t-60.5 -16.5h-100q-23 0 -41 8.5t-29 22.5
l-18 23q-14 10 -22.5 24.5t-9.5 34.5l-29 -46q-5 -23 -22.5 -36.5t-39.5 -13.5h-100q-22 0 -33 14l-22 29h1q-27 13 -19 50l130 214h-99q-23 0 -41 8.5t-29 22.5l-18 22q-20 14 -28.5 38.5t-1.5 54.5l21 100q4 22 17 41.5t31 34.5t40 23.5t44 8.5h100q29 0 49.5 -14
t30.5 -37z" />
    <glyph glyph-name="Scaron" unicode="&#x160;" 
d="M476 742q-3 11 -8 19t-17 8h-82q-14 0 -25 -9t-13 -21l26 -83l1 1q3 -8 11 -19.5t14 -11.5h175q6 0 18.5 11.5t20.5 19.5l-1 -1l61 83q2 12 -5 21t-20 9h-82q-12 0 -19.5 -8t-15.5 -19l-27 -37zM59 41q-4 -17 4.5 -28t25.5 -11h349q38 0 75.5 15t68.5 40.5t53.5 60
t31.5 73.5q8 38 0 72.5t-28 60t-51 40.5t-69 15h-200q-6 0 -8 3.5t-1 7.5t4.5 7.5t8.5 3.5h349q17 0 30.5 11t17.5 28l21 100q3 17 -5.5 28t-25.5 11h-349q-38 0 -75.5 -15t-69 -41t-53.5 -60t-30 -73t-0.5 -73.5t27.5 -60t51 -40t70 -14.5h200q11 0 9 -11q-3 -11 -14 -11
h-349q-17 0 -30 -11t-17 -28zM65 141q5 24 23 39t42 15h60q-3 2 -5.5 5.5t-4.5 7.5l-14 15q-32 28 -45.5 70.5t-2.5 96.5q9 42 32.5 79t57 65t74 44t82.5 16h22l-16 20h1q-9 5 -18 15.5t-11 19.5l-26 86q5 20 20.5 34.5t36.5 14.5h82q15 0 21.5 -7.5t10.5 -18.5v1l11 -15
l4 4v-1q11 15 21.5 26t30.5 11h82q14 0 22.5 -8t12.5 -20v1l23 -28l1 -1q8 -14 5 -32l-64 -84q-2 -2 -3 -4t-2 -3l-6 -6t-6 -5h94q36 0 43 -31v1l22 -27q11 -14 6 -37l-21 -100q-5 -23 -22 -37t-40 -14h-64q9 -10 17 -20t14 -21l13 -16q16 -19 24.5 -45.5t8.5 -55.5t-9 -60
t-28 -59q-36 -54 -91.5 -88t-118.5 -34h-349q-23 0 -34 14l-22 28h1q-26 14 -19 49z" />
    <glyph glyph-name="guilsinglleft" unicode="&#x2039;" horiz-adv-x="239" 
d="M229 304q11 5 21 11.5t12 18.5l17 82q3 14 -4 23t-19 9l-91 -44h1q-10 -5 -22.5 -15.5t-14.5 -16.5l-37 -174q-2 -6 7 -16.5t16 -15.5h-1l73 -44q12 0 23 9t14 23l17 82q3 12 -4 18.5t-16 11.5l-32 19zM105 151h1l-6 4q-8 5 -16.5 18.5t-6.5 24.5l37 174q1 5 6.5 11.5
t12 13t14 12t13.5 8.5l96 46q14 0 25 -7.5t13 -21.5v1l19 -24l1 1l4 -5q10 -13 5 -31l-18 -82q-3 -17 -15 -25t-27 -15l-7 -4l24 -28q8 -11 5 -26l-18 -82q-4 -19 -19.5 -31t-34.5 -12l-79 47q-6 4 -13 13z" />
    <glyph glyph-name="OE" unicode="&#x152;" horiz-adv-x="1159" 
d="M560 194l33 155h-179q-17 0 -30 -6.5t-22 -15.5t-14 -19.5t-7 -19.5l-16 -77q-1 -5 -1.5 -8t-0.5 -7q6 -2 8 -2h10h219zM338 179q-27 0 -45.5 19.5t-11.5 52.5l17 77q2 10 8 22.5t17 23.5t26.5 19t35.5 8h234l-47 -222h-234zM588 2q13 0 25 7.5t18 19.5q39 -27 92 -27
h349q17 0 30.5 11t17.5 28l21 100q3 16 -5.5 27t-25.5 11h-349q-9 0 -9 11l2 11h361q17 0 30 11t17 28l21 100q4 17 -4.5 28t-25.5 11h-360l2 11q3 11 13 11h349q17 0 30.5 11t17.5 28l21 99q3 17 -5.5 28t-25.5 11h-349q-52 0 -104 -28q-1 13 -10 20.5t-21 7.5h-349
q-39 0 -76.5 -15t-69 -40.5t-53.5 -59.5t-30 -73l-43 -200q-8 -39 -0.5 -73t27.5 -59.5t51.5 -40.5t70.5 -15h349zM124 25q-32 27 -46 70t-3 95l43 200q9 42 32.5 79t57 64.5t74 43.5t83.5 16h349q12 0 21 -6t14 -16q47 22 100 22h349q35 0 42 -31l1 1l22 -27q11 -14 6 -37
l-21 -99q-7 -36 -40 -48l13 -15q11 -14 6 -37l-21 -100q-8 -34 -40 -47l12 -15q12 -15 6 -37l-21 -100q-5 -23 -22 -37t-40 -14h-349q-55 0 -89 22q-8 -10 -20.5 -16t-25.5 -6h-349q-43 0 -76 15.5t-54 42.5z" />
    <glyph glyph-name="FL017Dh" horiz-adv-x="678" 
d="M478 742q-3 11 -8 19t-17 8h-82q-14 0 -25 -9t-13 -21l26 -83l1 1q3 -8 11 -19.5t14 -11.5h175q6 0 18.5 11.5t20.5 19.5l-1 -1l61 83q2 12 -4.5 21t-20.5 9h-82q-12 0 -19.5 -8t-15.5 -19l-27 -37zM741 540q3 17 -5.5 28t-25.5 11h-496q-17 0 -30.5 -11t-16.5 -28
l-21 -100q-4 -17 4.5 -28t25.5 -11h349q6 0 8 -5l-3 -13q-1 -4 -9 -4h-200q-38 0 -75.5 -15t-68.5 -40.5t-53.5 -60t-30.5 -72.5l-32 -150q-4 -17 4.5 -28t25.5 -11h498q17 0 30.5 11t17.5 28l21 100q4 17 -5 28t-26 11h-349q-8 0 -8 6l1 9q4 7 12 7h200q38 0 75.5 16.5
t68.5 43t52.5 59t28.5 65.5zM457 784q16 0 22 -7.5t10 -19.5v1l11 -14l4 4v-1q11 15 21.5 26t30.5 11h82q14 0 22.5 -8t12.5 -20v1l23 -28q10 -14 6 -33l-64 -84q-2 -2 -3 -4t-2 -3l-6 -6t-6 -5h92q36 0 43 -31v1l22 -27q11 -14 6 -37l-32 -154q-9 -42 -39.5 -83t-72.5 -69
q27 -5 33 -30v1l22 -27q12 -15 6 -37l-21 -100q-5 -23 -22 -37t-40 -14h-498q-23 0 -34 14l-22 28h1q-26 14 -19 49l32 150q10 48 39 89t71 70q-13 3 -17 13l-22 27h1q-28 13 -19 50l21 100q5 24 23 39t42 15h171l-16 20h1q-9 5 -18 15.5t-11 19.5l-26 86q5 20 20.5 34.5
t36.5 14.5h82z" />
    <glyph glyph-name="FL017Dh" unicode="&#x17d;" horiz-adv-x="678" 
d="M478 742q-3 11 -8 19t-17 8h-82q-14 0 -25 -9t-13 -21l26 -83l1 1q3 -8 11 -19.5t14 -11.5h175q6 0 18.5 11.5t20.5 19.5l-1 -1l61 83q2 12 -4.5 21t-20.5 9h-82q-12 0 -19.5 -8t-15.5 -19l-27 -37zM741 540q3 17 -5.5 28t-25.5 11h-496q-17 0 -30.5 -11t-16.5 -28
l-21 -100q-4 -17 4.5 -28t25.5 -11h349q6 0 8 -5l-3 -13q-1 -4 -9 -4h-200q-38 0 -75.5 -15t-68.5 -40.5t-53.5 -60t-30.5 -72.5l-32 -150q-4 -17 4.5 -28t25.5 -11h498q17 0 30.5 11t17.5 28l21 100q4 17 -5 28t-26 11h-349q-8 0 -8 6l1 9q4 7 12 7h200q38 0 75.5 16.5
t68.5 43t52.5 59t28.5 65.5zM457 784q16 0 22 -7.5t10 -19.5v1l11 -14l4 4v-1q11 15 21.5 26t30.5 11h82q14 0 22.5 -8t12.5 -20v1l23 -28q10 -14 6 -33l-64 -84q-2 -2 -3 -4t-2 -3l-6 -6t-6 -5h92q36 0 43 -31v1l22 -27q11 -14 6 -37l-32 -154q-9 -42 -39.5 -83t-72.5 -69
q27 -5 33 -30v1l22 -27q12 -15 6 -37l-21 -100q-5 -23 -22 -37t-40 -14h-498q-23 0 -34 14l-22 28h1q-26 14 -19 49l32 150q10 48 39 89t71 70q-13 3 -17 13l-22 27h1q-28 13 -19 50l21 100q5 24 23 39t42 15h171l-16 20h1q-9 5 -18 15.5t-11 19.5l-26 86q5 20 20.5 34.5
t36.5 14.5h82z" />
    <glyph glyph-name="quoteleft" unicode="&#x2018;" horiz-adv-x="274" 
d="M133 392q-3 -17 5 -27.5t25 -10.5h99q17 0 30.5 10.5t16.5 27.5l31 145q4 17 -5 28t-26 11h-99q-17 0 -29.5 -11t-16.5 -28zM149 537q5 24 23.5 39t41.5 15h99q35 0 42 -31v1l23 -27q10 -14 6 -36l-31 -145q-5 -23 -22 -37t-40 -14h-99q-23 0 -34 14l-21 27h1
q-27 14 -20 49z" />
    <glyph glyph-name="quoteright" unicode="&#x2019;" horiz-adv-x="274" 
d="M133 392q-3 -17 5 -27.5t25 -10.5h99q17 0 30.5 10.5t16.5 27.5l31 145q4 17 -5 28t-26 11h-99q-17 0 -29.5 -11t-16.5 -28zM149 537q5 24 23.5 39t41.5 15h99q35 0 42 -31v1l23 -27q10 -14 6 -36l-31 -145q-5 -23 -22 -37t-40 -14h-99q-23 0 -34 14l-21 27h1
q-27 14 -20 49z" />
    <glyph glyph-name="quotedblleft" unicode="&#x201c;" horiz-adv-x="478" 
d="M336 392q-3 -17 5.5 -27.5t25.5 -10.5h99q17 0 30.5 10.5t16.5 27.5l31 145q4 17 -5 28t-26 11h-99q-17 0 -30 -11t-17 -28zM133 392q-3 -17 5.5 -27.5t25.5 -10.5h99q17 0 30.5 10.5t16.5 27.5l31 145q4 17 -5 28t-26 11h-99q-17 0 -30 -11t-17 -28zM149 537
q5 24 23.5 39t42.5 15h99q35 0 42 -31v1l2 -4q10 16 25.5 25t34.5 9h99q35 0 42 -31v1l23 -27q10 -14 6 -36l-31 -145q-5 -23 -22 -37t-40 -14h-99q-23 0 -34 14l-16 19q-8 -15 -22.5 -24t-31.5 -9h-100q-22 0 -33 14l-22 27h1q-27 14 -20 49z" />
    <glyph glyph-name="quotedblright" unicode="&#x201d;" horiz-adv-x="478" 
d="M336 392q-3 -17 5.5 -27.5t25.5 -10.5h99q17 0 30.5 10.5t16.5 27.5l31 145q4 17 -5 28t-26 11h-99q-17 0 -30 -11t-17 -28zM133 392q-3 -17 5.5 -27.5t25.5 -10.5h99q17 0 30.5 10.5t16.5 27.5l31 145q4 17 -5 28t-26 11h-99q-17 0 -30 -11t-17 -28zM149 537
q5 24 23.5 39t42.5 15h99q35 0 42 -31v1l2 -4q10 16 25.5 25t34.5 9h99q35 0 42 -31v1l23 -27q10 -14 6 -36l-31 -145q-5 -23 -22 -37t-40 -14h-99q-23 0 -34 14l-16 19q-8 -15 -22.5 -24t-31.5 -9h-100q-22 0 -33 14l-22 27h1q-27 14 -20 49z" />
    <glyph glyph-name="bullet" unicode="&#x2022;" horiz-adv-x="314" 
d="M235 181q13 0 27 5.5t25.5 15t20 22t11.5 27.5l17 76q6 29 -10.5 49.5t-44.5 20.5h-77q-30 0 -54 -20.5t-30 -49.5l-17 -76q-6 -29 9.5 -49.5t45.5 -20.5h77zM113 177q-36 22 -25 74l17 76q8 37 37 61t66 24h77q23 0 39.5 -12t23.5 -32v1l16 -19l4 -3q19 -22 11 -60
l-16 -75q-4 -18 -14 -33t-23.5 -26.5t-30 -17.5t-32.5 -6h-76q-37 0 -55 23z" />
    <glyph glyph-name="endash" unicode="&#x2013;" horiz-adv-x="455" 
d="M101 239q-4 -17 5 -28t26 -11h279q17 0 30 11t17 28l21 99q4 17 -5 28t-26 11h-279q-17 0 -30 -11t-17 -28zM107 338q5 24 23 39t42 15h279q36 0 43 -31v1l22 -27q12 -15 7 -36l-22 -100q-5 -22 -21.5 -36t-39.5 -14h-280q-22 0 -33 14l-23 26h1q-26 14 -19 50z" />
    <glyph glyph-name="emdash" unicode="&#x2014;" 
d="M630 200q17 0 30 11t17 28l21 99q4 17 -5 28t-26 11h-498q-17 0 -30 -11t-17 -28l-21 -99q-4 -17 5 -28t26 -11h498zM104 189h1q-26 14 -19 50l21 99q5 24 23 39t42 15h498q36 0 43 -31v1l22 -27q12 -15 7 -36l-22 -100q-5 -22 -21.5 -36t-39.5 -14h-498q-23 0 -34 14z
" />
    <glyph glyph-name="tilde" unicode="&#x2dc;" horiz-adv-x="499" 
d="M385 548q-3 11 -7.5 18.5t-16.5 7.5h-114q-5 0 -17.5 -11t-19.5 -19v1l-62 -82q-2 -12 5 -21t21 -9h81q12 0 20 8t16 19l26 36l13 -36q3 -11 7.5 -19t15.5 -8h114q6 0 18.5 11.5t20.5 19.5l-1 -1l62 82q2 12 -5 20.5t-21 8.5h-81q-12 0 -20 -7.5t-16 -18.5l-26 -37z
M364 589q16 0 22.5 -7.5t10.5 -18.5v1l11 -14l4 4v-1q11 14 21 25t30 11h81q15 0 24 -8t12 -19l1 1l23 -28l1 -1q8 -14 5 -32l-64 -85q-8 -10 -24 -23t-26 -13h-114q-16 0 -23 9l-24 29l-4 -5h-1q-10 -14 -19.5 -23.5t-26.5 -9.5h-82q-18 0 -27 12l-23 29h1q-13 6 -17.5 18
t-1.5 27l63 84q4 5 11 11.5t14.5 12.5t15 10t12.5 4h114z" />
    <glyph glyph-name="trademark" unicode="&#x2122;" horiz-adv-x="1115" 
d="M1162 391l4 18l-29 37l1 5l-70 21q2 4 3 8t3 10l-16 22l-13 15l1 3l-18 24h-108l1 2l-30 37l2 5l-62 10l-110 -24l-9 12l2 4l-36 36l-139 -71l-49 44q-48 -19 -107 -90l-61 28h-6q-41 0 -68 -108l-77 9l-21 -66l21 -42l-69 -12l-2 -59l9 -6l26 -32l8 -6l-24 -19
q-9 -41 13 -48h-1l24 -30q5 -8 19 -8l33 -8l-7 -31l7 -1h-1l29 -36l125 -13h-1l9 -8l24 -29l24 -21l131 23l27 -34l32 -13l134 70l3 -3h2l32 -37l46 10l77 78q18 -13 31.5 -19t30.5 -6q28 0 43 28l23 77l54 -12q34 10 42 43l1 6q2 6 1.5 10t-1.5 6l-21 42h49l24 39v-1
q2 2 3 8q3 10 -6 22l-22 28q-2 4 -4.5 7.5t-6.5 8.5q17 15 21 37zM1137 328l-1 -1l-1 -2l-20 -31h-62l28 -62q1 -1 1 -8l-2 -6q-5 -24 -26 -32l-65 15l-28 -91q-10 -16 -28 -16q-14 0 -28 8t-34 23l-84 -85h1l-35 -8l-32 47l-147 -77l-17 7l10 47l-175 -30l-17 14l14 38
l-171 17l6 27l28 28l-105 22q-21 0 -15 27l52 40l-68 40l1 37l78 14l-29 58l16 44l78 -9q22 109 53 109h3l70 -30q32 38 55.5 60t42.5 30l50 -45l137 69l23 -23l-12 -23l5 -8l143 31l45 -7l-16 -47h159l11 -16q-7 -36 -35 -41v-2l126 -41l-1 -8q-7 -37 -58 -43v-2
q80 -38 76 -58zM1111 332l-93 63l69 21h9l-4 18l-146 38l65 46h-183l25 54l-183 -31l4 46l-13 8l-137 -70l-43 48l-94 -91q-7 -4 -15 -4q-24 0 -61 34l-35 -109l-87 8v-34l32 -67l-91 -7l102 -70l-84 -39l154 -41l-64 -44l186 -9l-31 -53l178 38l14 -31l-12 -31l151 76
l52 -46l87 94l81 -32l29 108l86 -17l2 10h2q5 23 -36 92l88 8zM730 398l-54 -13l-6 -20l-4 6l1 5l-45 15l-18 -68l-18 33l-21 25l-13 26l-10 -44q-12 23 -44 23h-11v-1h-7q-12 -8 -21 -15l-13 17l3 7q-59 -11 -87 -29l-15 19l2 7l-23 -5l20 62q16 -12 29 -17t25 -5
q13 0 26 7l83 82l41 -43l105 51l3 1l30 -36l120 20l-2 -4h7l29 -37h75l-2 -2l10 -4h-1l29 -35l61 -17l-34 -10l16 -12l2 -2l-41 12l-7 -26l-3 5l1 5l-43 17l-18 -70l-18 34l-18 23l-16 29l-10 -47l-1 1v-1q-6 29 -31 29q-20 0 -30 -10q-4 -4 -8 -9t-8 -12l-20 26zM588 88
l-7 13l-112 -24l-24 31l3 6l-89 4l1 1l-31 38l7 4l-53 13l53 17l2 11l17 -21q10 -12 31 -12q6 0 20 3l19 6l3 28l12 -14q11 -14 38 -14q11 0 22 3q16 1 31 16l16 -21l43 8l8 37l11 -14q20 -26 43 -26l5 4l4 -5l48 15l3 -3h43q5 9 10.5 16t12.5 11l19 -24l35 -13v1l39 4l8 40
l14 -18q16 -23 36 -24l14 -17l-8 -33l-75 31l-83 -91l-46 43l-121 -60zM535 327q-33 -94 -66 -94q-12 -3 -20 -3q-32 0 -35 22q18 88 70 118q5 0 6 1h5q38 0 40 -44zM757 276q-15 0 -38 -32h-23q23 66 78 133q4 4 16 4q21 0 21 -42l-19 -101l-13 5q-8 33 -22 33zM563 301
l-14 -67l-18 -4l26 132l51 -86l24 95l18 -6l-28 -132q-30 1 -59 68zM845 308l-14 -70l-17 -2l26 131l49 -86l25 96l17 -7l-29 -133q-25 1 -57 71zM420 345q-3 2 -4.5 2.5t-6.5 0.5q-17 0 -37 -20q-24 -27 -30 -56q-6 -28 20 -28q6 0 11.5 0.5t10.5 1.5l-2 -21l-9 -2
q-9 -3 -16 -3q-34 0 -31 60q-2 1 0 9l2 8q13 63 101 79l-9 -31v-1h-1v1h1zM509 308q3 12 0 16v-1q-4 19 -19 19q-19 0 -46 -45l-2 -9q-7 -34 13 -34q10 0 36 12q13 19 18 42zM687 372l22 5l-34 -132l-29 -9zM309 367l20 4l-34 -132l-27 -9zM232 341l1 16l57 -5l-24 -81
l-33 71zM967 377l26 -7l-35 -98l-17 4zM1046 224l-45 9l18 53q12 -22 18.5 -37t8.5 -25zM780 352l-37 -49h41zM920 224l16 11l15 -6l-22 -20zM1039 340l-7 8l34 -23l-34 -3zM230 255l32 3l-6 -20zM283 174l-21 5l11 5z" />
    <glyph glyph-name="scaron" unicode="&#x161;" 
d="M476 742q-3 11 -8 19t-17 8h-82q-14 0 -25 -9t-13 -21l26 -83l1 1q3 -8 11 -19.5t14 -11.5h175q6 0 18.5 11.5t20.5 19.5l-1 -1l61 83q2 12 -5 21t-20 9h-82q-12 0 -19.5 -8t-15.5 -19l-27 -37zM59 41q-4 -17 4.5 -28t25.5 -11h349q38 0 75.5 15t68.5 40.5t53.5 60
t31.5 73.5q8 38 0 72.5t-28 60t-51 40.5t-69 15h-200q-6 0 -8 3.5t-1 7.5t4.5 7.5t8.5 3.5h349q17 0 30.5 11t17.5 28l21 100q3 17 -5.5 28t-25.5 11h-349q-38 0 -75.5 -15t-69 -41t-53.5 -60t-30 -73t-0.5 -73.5t27.5 -60t51 -40t70 -14.5h200q11 0 9 -11q-3 -11 -14 -11
h-349q-17 0 -30 -11t-17 -28zM65 141q5 24 23 39t42 15h60q-3 2 -5.5 5.5t-4.5 7.5l-14 15q-32 28 -45.5 70.5t-2.5 96.5q9 42 32.5 79t57 65t74 44t82.5 16h22l-16 20h1q-9 5 -18 15.5t-11 19.5l-26 86q5 20 20.5 34.5t36.5 14.5h82q15 0 21.5 -7.5t10.5 -18.5v1l11 -15
l4 4v-1q11 15 21.5 26t30.5 11h82q14 0 22.5 -8t12.5 -20v1l23 -28l1 -1q8 -14 5 -32l-64 -84q-2 -2 -3 -4t-2 -3l-6 -6t-6 -5h94q36 0 43 -31v1l22 -27q11 -14 6 -37l-21 -100q-5 -23 -22 -37t-40 -14h-64q9 -10 17 -20t14 -21l13 -16q16 -19 24.5 -45.5t8.5 -55.5t-9 -60
t-28 -59q-36 -54 -91.5 -88t-118.5 -34h-349q-23 0 -34 14l-22 28h1q-26 14 -19 49z" />
    <glyph glyph-name="guilsinglright" unicode="&#x203a;" horiz-adv-x="239" 
d="M84 236l-17 -82q-8 -29 17 -43h-1l23 -27q10 -13 30 -13l93 44q6 3 14 8.5t15 11.5t12 12t6 11l37 174q1 6 -2.5 12.5t-8.5 13.5l-18 23v-1q-2 10 -12 21t-17 16l-75 46q-20 0 -36.5 -13t-21.5 -34l-17 -82q-3 -16 2 -24.5t15 -14.5h-1l11 -14l-2 -1q-17 -8 -29 -16
t-17 -28zM140 304q-10 5 -16 11.5t-4 18.5l17 82q3 14 13.5 23t22.5 9l73 -44q6 -5 15.5 -15.5t7.5 -16.5l-37 -174q-2 -6 -15 -16.5t-22 -15.5l-91 -44q-12 0 -18.5 9t-3.5 23l17 82q3 12 12 18.5t21 11.5l41 19z" />
    <glyph glyph-name="oe" unicode="&#x153;" horiz-adv-x="1159" 
d="M560 194l33 155h-179q-17 0 -30 -6.5t-22 -15.5t-14 -19.5t-7 -19.5l-16 -77q-1 -5 -1.5 -8t-0.5 -7q6 -2 8 -2h10h219zM338 179q-27 0 -45.5 19.5t-11.5 52.5l17 77q2 10 8 22.5t17 23.5t26.5 19t35.5 8h234l-47 -222h-234zM588 2q13 0 25 7.5t18 19.5q39 -27 92 -27
h349q17 0 30.5 11t17.5 28l21 100q3 16 -5.5 27t-25.5 11h-349q-9 0 -9 11l2 11h361q17 0 30 11t17 28l21 100q4 17 -4.5 28t-25.5 11h-360l2 11q3 11 13 11h349q17 0 30.5 11t17.5 28l21 99q3 17 -5.5 28t-25.5 11h-349q-52 0 -104 -28q-1 13 -10 20.5t-21 7.5h-349
q-39 0 -76.5 -15t-69 -40.5t-53.5 -59.5t-30 -73l-43 -200q-8 -39 -0.5 -73t27.5 -59.5t51.5 -40.5t70.5 -15h349zM124 25q-32 27 -46 70t-3 95l43 200q9 42 32.5 79t57 64.5t74 43.5t83.5 16h349q12 0 21 -6t14 -16q47 22 100 22h349q35 0 42 -31l1 1l22 -27q11 -14 6 -37
l-21 -99q-7 -36 -40 -48l13 -15q11 -14 6 -37l-21 -100q-8 -34 -40 -47l12 -15q12 -15 6 -37l-21 -100q-5 -23 -22 -37t-40 -14h-349q-55 0 -89 22q-8 -10 -20.5 -16t-25.5 -6h-349q-43 0 -76 15.5t-54 42.5z" />
    <glyph glyph-name="FL017Eh" horiz-adv-x="678" 
d="M478 742q-3 11 -8 19t-17 8h-82q-14 0 -25 -9t-13 -21l26 -83l1 1q3 -8 11 -19.5t14 -11.5h175q6 0 18.5 11.5t20.5 19.5l-1 -1l61 83q2 12 -4.5 21t-20.5 9h-82q-12 0 -19.5 -8t-15.5 -19l-27 -37zM741 540q3 17 -5.5 28t-25.5 11h-496q-17 0 -30.5 -11t-16.5 -28
l-21 -100q-4 -17 4.5 -28t25.5 -11h349q6 0 8 -5l-3 -13q-1 -4 -9 -4h-200q-38 0 -75.5 -15t-68.5 -40.5t-53.5 -60t-30.5 -72.5l-32 -150q-4 -17 4.5 -28t25.5 -11h498q17 0 30.5 11t17.5 28l21 100q4 17 -5 28t-26 11h-349q-8 0 -8 6l1 9q4 7 12 7h200q38 0 75.5 16.5
t68.5 43t52.5 59t28.5 65.5zM457 784q16 0 22 -7.5t10 -19.5v1l11 -14l4 4v-1q11 15 21.5 26t30.5 11h82q14 0 22.5 -8t12.5 -20v1l23 -28q10 -14 6 -33l-64 -84q-2 -2 -3 -4t-2 -3l-6 -6t-6 -5h92q36 0 43 -31v1l22 -27q11 -14 6 -37l-32 -154q-9 -42 -39.5 -83t-72.5 -69
q27 -5 33 -30v1l22 -27q12 -15 6 -37l-21 -100q-5 -23 -22 -37t-40 -14h-498q-23 0 -34 14l-22 28h1q-26 14 -19 49l32 150q10 48 39 89t71 70q-13 3 -17 13l-22 27h1q-28 13 -19 50l21 100q5 24 23 39t42 15h171l-16 20h1q-9 5 -18 15.5t-11 19.5l-26 86q5 20 20.5 34.5
t36.5 14.5h82z" />
    <glyph glyph-name="FL017Eh" unicode="&#x17e;" horiz-adv-x="678" 
d="M478 742q-3 11 -8 19t-17 8h-82q-14 0 -25 -9t-13 -21l26 -83l1 1q3 -8 11 -19.5t14 -11.5h175q6 0 18.5 11.5t20.5 19.5l-1 -1l61 83q2 12 -4.5 21t-20.5 9h-82q-12 0 -19.5 -8t-15.5 -19l-27 -37zM741 540q3 17 -5.5 28t-25.5 11h-496q-17 0 -30.5 -11t-16.5 -28
l-21 -100q-4 -17 4.5 -28t25.5 -11h349q6 0 8 -5l-3 -13q-1 -4 -9 -4h-200q-38 0 -75.5 -15t-68.5 -40.5t-53.5 -60t-30.5 -72.5l-32 -150q-4 -17 4.5 -28t25.5 -11h498q17 0 30.5 11t17.5 28l21 100q4 17 -5 28t-26 11h-349q-8 0 -8 6l1 9q4 7 12 7h200q38 0 75.5 16.5
t68.5 43t52.5 59t28.5 65.5zM457 784q16 0 22 -7.5t10 -19.5v1l11 -14l4 4v-1q11 15 21.5 26t30.5 11h82q14 0 22.5 -8t12.5 -20v1l23 -28q10 -14 6 -33l-64 -84q-2 -2 -3 -4t-2 -3l-6 -6t-6 -5h92q36 0 43 -31v1l22 -27q11 -14 6 -37l-32 -154q-9 -42 -39.5 -83t-72.5 -69
q27 -5 33 -30v1l22 -27q12 -15 6 -37l-21 -100q-5 -23 -22 -37t-40 -14h-498q-23 0 -34 14l-22 28h1q-26 14 -19 49l32 150q10 48 39 89t71 70q-13 3 -17 13l-22 27h1q-28 13 -19 50l21 100q5 24 23 39t42 15h171l-16 20h1q-9 5 -18 15.5t-11 19.5l-26 86q5 20 20.5 34.5
t36.5 14.5h82z" />
    <glyph glyph-name="Ydieresis" unicode="&#x178;" 
d="M650 697q6 29 -10.5 51t-45.5 22q-14 0 -28.5 -6t-26.5 -16t-21 -23t-12 -28q-6 -29 11 -50t46 -21q15 0 29 5.5t26 15.5t20.5 22.5t11.5 27.5zM321 697q-6 -29 11.5 -50t46.5 -21q14 0 28.5 5.5t26.5 15.5t20.5 22.5t11.5 27.5q6 29 -10.5 51t-45.5 22q-15 0 -29.5 -6
t-26.5 -16t-21 -23t-12 -28zM342 542q3 15 -5.5 26t-25.5 11h-99q-17 0 -30.5 -11t-16.5 -28l-32 -150q-8 -39 -0.5 -73.5t27.5 -60t51 -40t70 -14.5h211l-2 -11q-3 -11 -14 -11h-349q-17 0 -30 -11t-17 -28l-21 -100q-4 -17 4.5 -28t25.5 -11h349q39 0 76.5 15t68 40.5
t53 60t31.5 73.5l74 349q3 17 -5.5 28t-25.5 11h-100q-16 0 -29.5 -11t-16.5 -28l-34 -161h-149q-12 0 -24 4t-21 13t-13 22.5t0 32.5zM307 697q4 18 14 34t24.5 28t32 19t35.5 7q23 0 40 -12.5t25 -33.5v1l18 -23q14 29 42.5 48.5t58.5 19.5q23 0 40 -12.5t25 -33.5v1
l19 -23q9 -11 13 -27t0 -33q-11 -41 -45 -63h64q36 0 43 -31v1l22 -27q11 -14 6 -37l-74 -349q-9 -42 -32.5 -78.5t-56.5 -64t-72.5 -43t-81.5 -15.5h-349q-23 0 -34 14l-22 28h1q-26 14 -19 49l21 100q5 24 23 39t42 15h60q-3 2 -5.5 5.5t-4.5 7.5l-14 15
q-32 28 -45.5 70.5t-2.5 96.5l32 150q5 24 23 39t42 15h99q37 0 44 -31v1l21 -27q11 -17 7 -35l-20 -91q-1 -5 -1.5 -8.5t-0.5 -6.5q8 -2 10 -2h10h134l31 146q4 21 19 36q-19 7 -30 23l-18 22q-11 6 -18 15q-13 -27 -39.5 -44.5t-54.5 -17.5q-37 0 -56 25l-20 24
q-36 24 -25 74z" />
    <glyph glyph-name="exclamdown" unicode="&#xa1;" horiz-adv-x="274" 
d="M83 -36q11 -14 34 -14h99q23 0 40 14t22 37l65 304q5 23 -6 37l-22 26h-1q22 14 38.5 35.5t21.5 46.5q5 21 0.5 38.5t-15.5 31.5l-17 20q-9 23 -29 38t-49 15q-21 0 -41.5 -8t-37.5 -22.5t-29.5 -33.5t-16.5 -40q-6 -28 3 -51.5t28 -37.5l1 -1q-23 -1 -40.5 -16
t-22.5 -38l-64 -304q-7 -35 19 -49h-1zM235 41q-4 -17 -17.5 -28t-30.5 -11h-99q-17 0 -25 11t-4 28l64 304q4 17 17 28t30 11h99q17 0 25.5 -11t4.5 -28zM330 489q-4 -17 -14.5 -33t-25 -28t-32 -19.5t-35.5 -7.5q-17 0 -31.5 7.5t-24.5 19.5t-13.5 28t0.5 33q4 18 14.5 34
t25 28.5t32 19.5t35.5 7q36 0 56 -26.5t13 -62.5z" />
    <glyph glyph-name="cent" unicode="&#xa2;" 
d="M701 349q23 0 40 14t22 37l21 100q5 23 -6 37l-22 27v-1q-7 31 -43 31h-26l2 6q5 23 -7 36l-22 27v-1q-3 14 -14.5 22.5t-27.5 8.5h-100q-24 0 -42 -15t-23 -39l-10 -45h-79q-42 0 -82.5 -16t-74 -43.5t-57 -64.5t-32.5 -80l-42 -199q-11 -54 2.5 -96.5t45.5 -69.5
l14 -17q20 -27 53 -42.5t76 -15.5h39l-2 -9q-6 -37 20 -49h-1l22 -28q11 -14 34 -14h99q23 0 40 14t22 37l10 49h66q23 0 40 14t22 37l21 100q6 22 -6 37l-22 27v-1q-7 31 -43 31h-26l33 154h66zM238 2q-39 0 -70 15t-51 40.5t-27.5 60t1.5 73.5l42 199q8 39 30 73.5
t53.5 60t69 40.5t75.5 15h94l13 60q3 17 16.5 28t30.5 11h100q16 0 24.5 -11t5.5 -28l-13 -60h78q17 0 25.5 -11t5.5 -28l-21 -100q-4 -17 -17.5 -28t-30.5 -11h-78l-47 -221h78q17 0 26 -11t5 -28l-21 -100q-4 -17 -17.5 -28t-30.5 -11h-78l-13 -61q-3 -17 -16.5 -28
t-29.5 -11h-100q-17 0 -25.5 11t-5.5 28l13 61h-94zM385 401q-21 0 -36.5 -7.5t-26.5 -19t-17 -24t-8 -22.5l-17 -77q-7 -32 11.5 -51.5t46.5 -19.5h32l47 221h-32zM324 211l16 77q3 14 15 31t35 25l-32 -149h-17h-10q-1 0 -9 2q0 4 0.5 7t1.5 7z" />
    <glyph glyph-name="sterling" unicode="&#xa3;" horiz-adv-x="743" 
d="M107 340l-21 -100q-7 -36 19 -50v-1q-15 -5 -26 -18.5t-14 -29.5l-21 -100q-7 -35 19 -49h-1l22 -28q11 -14 34 -14h567q23 0 40 14t22 37l21 100q6 22 -6 37l-22 26v-1q-7 31 -43 31h-25l1 2l0.5 1l1.5 3l21 100q5 23 -6 37l-23 27v-1q-7 31 -42 31h-32v2q0 1 1 1.5
t1 2.5l21 99q5 23 -6 37l-22 27l-1 -1q-7 31 -42 31h-82q-42 0 -82 -16t-73 -43t-57 -63.5t-33 -76.5h-45q-24 0 -42.5 -15t-23.5 -39zM122 340q4 17 17.5 28t30.5 11h60l2 11q8 38 30.5 72.5t53.5 60t68.5 40.5t75.5 15h82q17 0 25.5 -11t5.5 -28l-21 -99q-4 -17 -17.5 -28
t-30.5 -11h-82q-5 0 -8.5 -3.5t-4.5 -7.5t0 -7.5t6 -3.5h207q17 0 25.5 -11t4.5 -28l-21 -100q-4 -17 -17 -28t-30 -11h-204q-11 0 -14 -11q-2 -11 6 -11h322q17 0 25.5 -11t5.5 -27l-21 -100q-4 -17 -17.5 -28t-30.5 -11h-567q-17 0 -25.5 11t-4.5 28l21 100q3 16 16.5 27
t30.5 11h60l5 22h-60q-17 0 -26 11t-5 28z" />
    <glyph glyph-name="currency" unicode="&#xa4;" horiz-adv-x="673" 
d="M379 536l-22 27l-1 -1q-7 31 -42 31h-99q-24 0 -42 -15t-23 -39l-35 -163q-5 -24 2 -53t21 -46q-11 -9 -21.5 -21.5t-19.5 -26.5t-15.5 -28t-9.5 -25l-28 -135q-7 -35 19 -49h-1l22 -28q11 -14 34 -14h99q23 0 40 14t22 37l9 40q8 -2 16.5 -2.5t18.5 -0.5h118
q-4 -17 2 -28.5t18 -17.5h-1l21 -28q11 -14 34 -14h100q23 0 40 14t22 37l29 136q7 33 1 57t-17 38l-2 2l-1 1l-1 1q18 11 36 34.5t26 65.5l35 163q5 23 -6 37l-22 27l-1 -1q-7 31 -42 31h-100q-23 0 -41 -15t-23 -39l-8 -34q-12 3 -23 3h-130q0 14 -8 28zM294 90
q-27 0 -46 9l-12 -58q-4 -17 -17.5 -28t-30.5 -11h-99q-17 0 -25.5 11t-4.5 28l28 135q3 13 11.5 29t19.5 31t23.5 26.5t23.5 16.5q-10 2 -17.5 12.5t-12.5 24.5t-6.5 30t1.5 30l35 163q3 17 16.5 28t30.5 11h99q17 0 25.5 -11t5.5 -28l-13 -57q25 11 51 11h134q20 0 38 -6
l11 52q3 17 16.5 28t29.5 11h100q17 0 25.5 -11t5.5 -28l-35 -163q-11 -48 -33 -70t-43 -27q17 -11 29.5 -36t3.5 -67l-28 -135q-4 -17 -17.5 -28t-30.5 -11h-100q-16 0 -24.5 11t-4.5 28l11 54q-10 -3 -19.5 -4t-20.5 -1h-134zM415 246q23 0 31 26l8 40q3 12 -2.5 19.5
t-16.5 7.5h-39q-12 0 -20.5 -7.5t-11.5 -19.5l-8 -40q-6 -26 20 -26h39zM408 272q2 6 6.5 10.5t10.5 4.5h9l-3 -15q-1 -5 -5 -8t-8 -3h-13zM399 220l1 2q-1 0 -1 1l-2 -1z" />
    <glyph glyph-name="FL00A5h" unicode="&#xa5;" horiz-adv-x="673" 
d="M161 86l-21 -100q-7 -35 19 -49h-1l22 -28q11 -14 34 -14h6q4 -10 17 -17h-1l22 -28q10 -13 32 -13h103q23 0 40 14t22 37l2 7h37q23 0 40 14t22 37l21 100q5 23 -6 37l-22 26q19 3 33 17t19 34l13 61q57 21 96 70.5t52 109.5l21 99q5 23 -6 37l-22 27v-1q-8 30 -43 30
h-100q-23 0 -41 -15t-23 -38l-12 -57q-5 -22 -22.5 -38.5t-44.5 -18.5h-77q-15 0 -22 4q0 3 1 6l2 6l12 58q5 23 -6 37l-22 27v-1q-8 30 -43 30h-99q-24 0 -42 -15t-23 -38l-21 -99q-10 -48 -0.5 -89t38.5 -69l22 -26l2 -3q1 -2 2.5 -3.5l2.5 -2.5l-11 -49q-6 -33 18 -48h-1
l9 -13q-18 -5 -31.5 -18.5t-18.5 -33.5zM176 86q4 17 17 28t30 11h52l7 36h-52q-17 0 -25 11t-5 27l15 71q-47 18 -65 66t-6 105l21 99q3 17 16.5 27.5t30.5 10.5h99q17 0 25.5 -10.5t5.5 -27.5l-13 -58q-2 -9 0.5 -20.5t10 -22.5t19 -19t28.5 -9h79q35 3 57 24t28 48l12 57
q3 17 16.5 27.5t29.5 10.5h100q17 0 25.5 -10.5t5.5 -27.5l-21 -99q-6 -29 -19 -56t-32 -50t-43 -40t-52 -26h-1l-15 -70q-3 -16 -16.5 -27t-29.5 -11h-50l-7 -36h50q16 0 24.5 -11t4.5 -28l-21 -100q-4 -17 -17 -28t-29 -11h-50l-4 -19q-4 -17 -17.5 -28t-30.5 -11h-103
q-17 0 -24.5 11t-3.5 28l4 19h-52q-17 0 -25.5 11t-4.5 28z" />
    <glyph glyph-name="brokenbar" unicode="&#xa6;" horiz-adv-x="274" 
d="M37 -59q-3 -17 5 -28t25 -11h99q17 0 30.5 11t16.5 28l149 698q3 17 -5.5 28t-25.5 11h-99q-17 0 -30 -11t-16 -28zM171 639q5 24 23 39t41 15h99q36 0 43 -31v1l22 -27q12 -13 7 -36l-149 -699q-5 -23 -22 -37t-40 -14h-99q-23 0 -34 14l-21 28h1q-26 12 -20 49z" />
    <glyph glyph-name="section" unicode="&#xa7;" horiz-adv-x="673" 
d="M84 -36q11 -14 34 -14h99q23 0 40 14t22 37l9 42q8 -2 17 -2.5t19 -0.5h254q6 0 17.5 9.5t22.5 22t20 24.5t10 17l27 128q1 4 16 16l3 3l1 0.5l3 1.5q14 11 29 27.5t22 48.5l34 161q5 23 -6 37l-22 27l-1 -1q-7 31 -42 31h-100q-23 0 -41 -15t-23 -39l-7 -32q-14 3 -24 3
h-254q-8 0 -21 -9t-26 -21t-23 -24.5t-11 -19.5l-33 -155q-5 -12 -24 -31l-2 -2l-3 -3q-1 -1 -1 -2v1q-15 -15 -28.5 -32t-17.5 -34l-29 -137q-7 -35 19 -49h-1zM295 92q-28 0 -47 9l-12 -60q-4 -17 -17.5 -28t-30.5 -11h-99q-17 0 -25.5 11t-4.5 28l29 137q3 14 15 28
t26 28l22.5 24.5t12.5 22.5l33 155q1 6 8.5 16t17.5 19.5t20.5 16.5t16.5 7h254q21 0 38 -6l11 50q3 17 16.5 28t29.5 11h100q17 0 25.5 -11t5.5 -28l-35 -161q-6 -29 -20.5 -43.5t-28.5 -25.5q-9 -7 -15.5 -13t-8.5 -15l-27 -128q-1 -5 -8 -15t-16 -20t-18 -18t-14 -8h-254
zM416 248q25 0 30 26l9 40q2 12 -3.5 19.5t-16.5 7.5h-39q-12 0 -20.5 -7.5t-10.5 -19.5l-9 -40q-6 -26 21 -26h39zM408 274q2 6 6.5 10.5t10.5 4.5h9l-3 -15q-2 -11 -12 -11h-13zM399 222l2 2q-1 0 -1 1l-2 -1z" />
    <glyph glyph-name="dieresis" unicode="&#xa8;" horiz-adv-x="426" 
d="M484 501q7 29 -10.5 51t-46.5 22q-14 0 -28 -6t-26 -16t-21 -23t-12 -28q-6 -29 11 -50t45 -21q15 0 29.5 5.5t26.5 15.5t20.5 23t11.5 27zM156 501q-6 -29 11 -50t46 -21q15 0 29 5.5t26 15.5t20.5 22.5t11.5 27.5q6 29 -11 51t-45 22q-14 0 -28.5 -6t-26.5 -16t-21 -23
t-12 -28zM141 501q4 18 14.5 34t25 27.5t31.5 18.5t35 7q23 0 40 -12t25 -33l1 1l18 -23q14 29 42 48t57 19q25 0 42.5 -13t24.5 -33v1l15 -19l4 -3q16 -18 13.5 -43t-16.5 -48t-37.5 -38.5t-50.5 -13.5q-17 0 -30.5 7t-21.5 18l-19 22q-9 4 -17 16q-14 -28 -40.5 -45.5
t-54.5 -17.5q-38 0 -54 25l-20 24q-17 11 -24.5 31t-2.5 43z" />
    <glyph glyph-name="copyright" unicode="&#xa9;" horiz-adv-x="293" 
d="M248 470q36 0 54 35l-14 5q-6 -14 -16 -19.5t-22 -5.5q-35 0 -26 41q10 43 45 43q18 0 26 -20l14 2q-3 31 -37 31q-23 0 -41 -14.5t-23 -41.5q-6 -26 5.5 -41t34.5 -15zM278 610q20 0 37 -11q8 -6 14.5 -13t11.5 -18q6 -19 1 -42q-4 -22 -19 -41q-18 -21 -37 -30
q-33 -11 -44 -11q-17 0 -41 12q-15 11 -23 29q-5 26 -1 41q2 11 7 21.5t12 20.5q16 21 38.5 31.5t43.5 10.5zM281 624q-27 0 -52 -13q-14 -7 -25.5 -15.5t-17.5 -18.5q-9 -14 -15 -25.5t-9 -25.5q-6 -24 3 -47q5 -14 11.5 -21.5t16.5 -15.5q19 -13 46 -13q8 0 37 9
q3 1 7 1.5t8 2.5h-1q14 8 24.5 15.5t20.5 23.5q16 19 22 45q6 27 -3 50q-8 21 -29 35q-19 13 -44 13zM284 639q16 0 29.5 -3.5t24.5 -12.5q22 -16 31 -38l14 -17v1l4 -5q7 -9 11 -22v1q10 -20 2 -57q-6 -31 -25 -53h-2q-11 -17 -22.5 -25t-27.5 -18l-4.5 -1t-9.5 -2
q-1 0 -1.5 -0.5t-1.5 -0.5h-1q-30 -9 -37 -9q-32 0 -51 13q-7 5 -12 10.5l-10 10.5l-15 18q-20 17 -31 42v-1q-10 20 -2 56q3 17 10.5 30.5t18.5 30.5q16 22 45 36h-1q17 9 32 12.5t32 3.5z" />
    <glyph glyph-name="ordfeminine" unicode="&#xaa;" 
d="M138 8q20 -27 53 -42.5t76 -15.5h150q16 0 30.5 8t23.5 22l11 -16q11 -14 34 -14h100q23 0 40 14t22 37l74 349q9 42 1.5 79t-28.5 63l-5 5l-9 12q-20 38 -58 61t-89 23h-200q-42 0 -82.5 -16t-74 -43.5t-57 -64.5t-32.5 -79l-43 -200q-11 -52 3 -95t46 -70zM436 41
q-4 -17 -17.5 -28t-30.5 -11h-150q-39 0 -70 15t-51 40.5t-27.5 59.5t0.5 73l43 200q8 39 30 73t53.5 59.5t69 40.5t75.5 15h200q39 0 70 -15t51 -40.5t27.5 -59.5t-0.5 -73l-74 -349q-4 -17 -17.5 -28t-30.5 -11h-100q-16 0 -24.5 11t-4.5 28l61 287q2 12 0.5 24.5t-8 23.5
t-18.5 18t-31 7h-78q-18 0 -33 -7t-26 -17.5t-18 -23.5t-10 -25l-17 -79q-5 -25 8.5 -47.5t49.5 -22.5h88q17 0 25.5 -11t5.5 -27zM429 194h-88q-11 0 -19 2q0 11 1 13l17 79q5 21 24 41t49 20h78q1 0 4 -0.5t8 -1.5h1q2 -11 0 -19l-34 -159q-5 11 -16 18t-25 7z" />
    <glyph glyph-name="guillemotleft" unicode="&#xab;" horiz-adv-x="410" 
d="M276 151h1h-1zM230 304q11 5 21 11.5t12 18.5l17 82q3 14 -4 23t-19 9l-91 -44h1q-10 -5 -23 -15.5t-15 -16.5l-37 -174q-2 -6 7.5 -16.5t16.5 -15.5h-1l73 -44q12 0 23 9t14 23l17 82q3 12 -4 18.5t-16 11.5l-33 19zM400 304q11 5 21 11.5t12 18.5l17 82q3 14 -4 23
t-19 9l-91 -44h1q-10 -5 -23 -15.5t-15 -16.5l-37 -174q-2 -6 7.5 -16.5t16.5 -15.5h-1l73 -44q12 0 23 9t14 23l17 82q3 12 -4 18.5t-16 11.5l-33 19zM106 151h1l-6 4q-8 5 -17 18.5t-7 24.5l37 174q1 5 6.5 11.5t12.5 13t14.5 12t13.5 8.5l95 46q15 0 25.5 -8t13.5 -20
l1 1l21 -28q3 2 5.5 3.5t5.5 3.5l98 48q15 0 26 -7.5t13 -21.5v1l19 -24l1 1l4 -5q10 -13 5 -31l-18 -82q-3 -17 -15 -25t-27 -15l-7 -4l24 -28q8 -11 5 -26l-18 -82q-4 -19 -19.5 -31t-34.5 -12l-79 47q-6 4 -13 13l-16 20l-8 -37q-4 -19 -19.5 -31t-34.5 -12l-80 47
q-8 5 -12 13z" />
    <glyph glyph-name="logicalnot" unicode="&#xac;" horiz-adv-x="455" 
d="M169 378q-17 0 -30 -11t-17 -28l-21 -99q-4 -17 5 -28t26 -11h142l-11 -52q-4 -17 4.5 -28t25.5 -11h98q17 0 30.5 11t17.5 28l40 190q4 17 -5 28t-26 11h-279zM452 393q35 0 42 -31v1l22 -27q12 -13 7 -37l-41 -190q-5 -22 -21.5 -36t-39.5 -14h-98q-23 0 -34 14l-23 26
h1q-26 14 -19 50h-88q-22 0 -33 14l-23 27h1q-26 14 -19 50l21 99q5 24 23.5 39t42.5 15h279z" />
    <glyph glyph-name="FL00ADh" unicode="&#xad;" horiz-adv-x="371" 
d="M107 338l-21 -99q-7 -36 19 -50h-1l22 -26q11 -14 34 -14h196q23 0 39.5 14t21.5 36l22 100q5 21 -7 36l-22 27v-1q-7 31 -43 31h-195q-24 0 -42 -15t-23 -39zM122 338q4 17 17 28t30 11h195q17 0 26 -11t5 -28l-21 -99q-4 -17 -17 -28t-30 -11h-195q-17 0 -26 11t-5 28z
" />
    <glyph glyph-name="registered" unicode="&#xae;" horiz-adv-x="293" 
d="M327 550v4q-1 1 -2 1t-1.5 0.5l-0.5 0.5zM240 565h20q18 0 19 -1h-1q10 -6 7 -16q-2 -9 -7.5 -13t-22.5 -4h-22zM228 578l-22 -105h15l9 45h11q12 0 14 -3q7 -5 14 -27l5 -15h19l-8 19q-2 2 -2.5 4t-2.5 4q-4 8 -6 12.5t-8 6.5l1 2q14 1 23.5 9.5t11.5 19.5q2 9 -2 15
q-3 6 -10 10q-5 3 -27 3h-35zM278 610q20 0 37 -11q8 -6 14.5 -13t11.5 -18q6 -19 1 -42q-4 -22 -19 -41q-18 -21 -37 -30q-33 -11 -44 -11q-17 0 -41 12q-15 11 -23 29q-5 26 -1 41q2 11 7 21.5t12 20.5q16 21 38.5 31.5t43.5 10.5zM281 624q-27 0 -52 -13
q-14 -7 -25.5 -15.5t-17.5 -18.5q-9 -14 -15 -25.5t-9 -25.5q-6 -24 3 -47q5 -14 11.5 -21.5t16.5 -15.5q19 -13 46 -13q8 0 37 9q3 1 7 1.5t8 2.5h-1q14 8 24.5 15.5t20.5 23.5q16 19 22 45q6 27 -3 50q-8 21 -29 35q-19 13 -44 13zM284 639q16 0 29.5 -3.5t24.5 -12.5
q21 -15 31 -37l18 -22q7 -9 11 -22v1q10 -20 2 -57q-6 -31 -25 -53h-2q-11 -17 -22.5 -25t-27.5 -18l-4.5 -1t-9.5 -2q-1 0 -1.5 -0.5t-1.5 -0.5h-1q-30 -9 -37 -9q-32 0 -51 13q-7 5 -12 10.5l-10 10.5l-15 18q-20 17 -31 42v-1q-10 20 -2 56q3 17 10.5 30.5t18.5 30.5
q16 22 45 36h-1q17 9 32 12.5t32 3.5z" />
    <glyph glyph-name="macron" unicode="&#xaf;" horiz-adv-x="574" 
d="M143 436q-4 -16 5 -27t26 -11h398q17 0 30 11t17 27l21 100q3 16 -5.5 27t-25.5 11h-398q-17 0 -30.5 -11t-16.5 -27zM149 536q5 23 23 38t42 15h398q36 0 43 -31v1l22 -26q12 -15 6 -37l-21 -99q-5 -23 -21.5 -37t-39.5 -14h-398q-23 0 -34 14l-23 27h1q-26 14 -19 49z
" />
    <glyph glyph-name="degree" unicode="&#xb0;" horiz-adv-x="241" 
d="M203 501q2 9 10.5 15.5t18.5 6.5t15 -6.5t3 -15.5q-4 -22 -27 -22q-10 0 -16 6t-4 16zM156 501q-6 -29 11 -50t46 -21t54.5 21t31.5 50t-10 51t-45 22q-14 0 -28.5 -6t-26.5 -16t-21 -23t-12 -28zM141 501q4 18 14.5 34t24.5 27.5t31.5 18.5t35.5 7q23 0 39.5 -12
t24.5 -33l1 1l19 -23q20 -24 12 -59q-4 -17 -14 -32.5t-24 -27t-30.5 -18t-33.5 -6.5q-38 0 -54 25l-20 24q-16 11 -23.5 31t-2.5 43z" />
    <glyph glyph-name="plusminus" unicode="&#xb1;" 
d="M258 41q-4 -17 4.5 -28t25.5 -11h100q17 0 30.5 11t17.5 28l34 160h160q17 0 30 11t17 28l21 100q4 17 -4.5 28t-25.5 11h-160l34 160q3 17 -5.5 28t-25.5 11h-100q-17 0 -30.5 -11t-16.5 -28l-34 -160h-160q-17 0 -30.5 -11t-17.5 -28l-21 -100q-4 -17 5 -28t26 -11h160
zM266 150h-105q-24 0 -34 13l-23 27h1q-26 14 -19 50l21 100q5 24 23.5 39t42.5 15h145l31 145q5 24 23 39t42 15h100q35 0 42 -31l1 1l22 -27q11 -14 6 -37l-22 -105h108q35 0 42 -31v1l23 -27q11 -14 6 -37l-21 -100q-5 -23 -22 -36.5t-40 -13.5h-148l-32 -149
q-5 -23 -22 -37t-40 -14h-100q-23 0 -34 14l-22 28h1q-26 14 -19 49z" />
    <glyph glyph-name="twosuperior" unicode="&#xb2;" horiz-adv-x="384" 
d="M126 358q-2 -8 2.5 -13.5t12.5 -5.5h248q19 0 23 19l11 50q2 8 -2.5 13.5t-12.5 5.5h-173q-8 0 -6 6q1 6 8 6h100q18 0 36.5 7t34 20t26.5 29.5t15 36.5q8 38 -13 65.5t-59 27.5h-175q-19 0 -23 -18l-11 -50q-2 -8 2.5 -13.5t12.5 -5.5h175q5 0 4 -6q-2 -6 -6 -6h-100
q-20 0 -38.5 -7.5t-34 -20.5t-26.5 -29.5t-15 -35.5zM127 433q5 23 18 43.5t33 35.5l-10 12h1q-21 6 -16 33l11 50q3 14 14.5 23.5t26.5 9.5h175q29 0 50 -14t30 -36l18 -22q11 -14 15.5 -33.5t-0.5 -42.5q-5 -25 -18.5 -44t-31.5 -33l19 -24q7 -9 4 -23l-10 -50
q-7 -31 -38 -31h-249q-8 0 -12 2.5t-7 6.5l-24 29h1q-22 7 -16 33z" />
    <glyph glyph-name="threesuperior" unicode="&#xb3;" horiz-adv-x="384" 
d="M143 507l-11 -50q-3 -18 4 -25q-11 -11 -14 -24l-11 -50q-6 -26 16 -33h-1l24 -29q3 -4 7 -6.5t12 -2.5h174q22 0 43 8t38.5 22.5t30 33.5t17.5 42q2 12 1 24.5t-9 22.5l-4 2q12 10 21 23t12 27q5 22 0.5 41.5t-15.5 33.5l-18 22q-9 23 -30.5 37t-50.5 14h-174
q-15 0 -26.5 -9.5t-14.5 -23.5l-11 -50q-3 -17 4 -26q-11 -11 -14 -24zM158 507q4 19 23 19h174q5 0 7 6q1 6 -5 6h-174q-8 0 -12.5 5.5t-2.5 13.5l11 50q4 18 23 18h174q19 0 34 -7.5t25 -20t14 -29.5t0 -36q-3 -14 -15 -29.5t-29 -20.5q17 -6 21.5 -20.5t1.5 -28.5
q-4 -20 -15 -37t-26.5 -29.5t-34 -20t-37.5 -7.5h-174q-8 0 -12.5 5.5t-2.5 13.5l11 50q4 19 23 19h174q5 0 7 6q1 6 -5 6h-174q-8 0 -12.5 5t-2.5 13z" />
    <glyph glyph-name="acute" unicode="&#xb4;" horiz-adv-x="288" 
d="M174 394q9 -12 28 -12h81q17 0 26.5 9.5t19.5 23.5h1l70 94q3 12 -5 23l-24 30v-1q-3 12 -15.5 20.5t-24.5 8.5h-81q-6 0 -13.5 -4t-15 -10t-14.5 -12.5t-11 -11.5l-62 -84q-6 -32 19 -45h-1zM291 461q-8 -11 -16 -19t-20 -8h-82q-13 0 -20 9t-4 21l60 82v-1q7 8 19.5 19
t18.5 11h81q11 0 21 -7t8 -16z" />
    <glyph glyph-name="mu" unicode="&#xb5;" 
d="M224 -45q-6 -37 20 -49h-1l22 -28q11 -14 34 -14h100q23 0 40 14t22 37l7 35q42 0 81.5 16t72 43t56 63.5t32.5 78.5l42 199q9 42 1.5 79t-28.5 64l-5 5l-9 12q-20 38 -58 60.5t-89 22.5h-200q-42 0 -82.5 -15.5t-74 -43t-57 -64.5t-32.5 -80l-43 -200q-11 -52 2.5 -95
t46.5 -71l14 -16q15 -20 36 -33.5t50 -19.5zM249 2h-11q-39 0 -70 15t-51 40.5t-27.5 59.5t0.5 73l43 200q8 39 30 73t53.5 59.5t69 40.5t75.5 15h200q39 0 70 -15t51 -40.5t27.5 -59.5t-0.5 -73l-43 -200q-8 -39 -30 -73t-53.5 -59.5t-69 -40.5t-75.5 -15h-11l-10 -47
q-3 -17 -16.5 -28t-30.5 -11h-100q-17 0 -25.5 11t-5.5 28zM281 252q-7 -29 10 -53l11 49q3 17 16.5 28t30.5 11h100q17 0 25.5 -11t5.5 -28l-11 -49q27 22 34 53l16 76q7 32 -10 52.5t-47 20.5h-77q-32 0 -56.5 -20.5t-31.5 -52.5zM414 349h77q1 0 4 -0.5t8 -1.5h1
q0 -5 0.5 -9.5t-0.5 -9.5l-11 -51q-5 11 -16 18t-25 7h-100q-7 0 -8 -1q10 20 28.5 34t41.5 14z" />
    <glyph glyph-name="paragraph" unicode="&#xb6;" horiz-adv-x="655" 
d="M150 539l-106 -498q-7 -35 19 -49h-1l22 -28q11 -14 34 -14h99q23 0 40 14t22 37l30 142l2 -2t3 -2q2 -3 4 -5.5t4 -4.5l18 -21q31 -42 86 -55l-2 -13q-9 -36 19 -49h-1l22 -28q9 -14 33 -14h100q23 0 40 14t22 37l11 51q9 42 1 78t-29 62l-12 13q-16 35 -47 57
q31 11 59 29.5t51 43.5t39 54.5t23 61.5l10 50q5 23 -6 37l-22 27v-1q-7 31 -43 31h-99q-24 0 -42 -15t-23 -39l-10 -46q-81 -4 -148 -58l13 63q5 23 -6 37l-22 27l-1 -1q-7 31 -42 31h-99q-24 0 -42 -15t-23 -39zM165 539q3 17 16.5 28t30.5 11h99q17 0 25.5 -11t5.5 -28
l-38 -178h17q15 26 37 48t48.5 37.5t55.5 24.5t59 9q11 0 13 9l11 51q3 17 16.5 28t30.5 11h99q17 0 25.5 -11t5.5 -28l-11 -51q-8 -38 -30 -72t-53.5 -59.5t-69 -40.5t-75.5 -15q-11 0 -12 -12q-3 -12 7 -12q39 0 70 -15t51 -40.5t27.5 -59.5t-0.5 -72l-10 -51
q-4 -17 -17.5 -28t-30.5 -11h-99q-17 0 -25.5 11t-4.5 28l10 51q3 10 -9 10q-60 0 -100 33.5t-49 84.5h-17l-38 -178q-4 -17 -17.5 -28t-30.5 -11h-99q-17 0 -25.5 11t-4.5 28z" />
    <glyph glyph-name="periodcentered" unicode="&#xb7;" horiz-adv-x="274" 
d="M112 292q-8 -36 12.5 -62.5t56.5 -26.5q18 0 35.5 7t32 19.5t25 28.5t14.5 34t0.5 34t-13 28t-24 19t-32.5 7t-35.5 -7t-32 -19t-25 -28t-14.5 -34zM97 292q4 21 16.5 39.5t29.5 33t37.5 22.5t41.5 8q28 0 48 -14.5t29 -37.5l17 -21q17 -21 18 -50t-19 -59
q-17 -26 -45.5 -43.5t-59.5 -17.5q-40 0 -64 30l-17 19q-20 14 -29 38t-3 53z" />
    <glyph glyph-name="periodcentered" unicode="&#x2219;" horiz-adv-x="274" 
d="M112 292q-8 -36 12.5 -62.5t56.5 -26.5q18 0 35.5 7t32 19.5t25 28.5t14.5 34t0.5 34t-13 28t-24 19t-32.5 7t-35.5 -7t-32 -19t-25 -28t-14.5 -34zM97 292q4 21 16.5 39.5t29.5 33t37.5 22.5t41.5 8q28 0 48 -14.5t29 -37.5l17 -21q17 -21 18 -50t-19 -59
q-17 -26 -45.5 -43.5t-59.5 -17.5q-40 0 -64 30l-17 19q-20 14 -29 38t-3 53z" />
    <glyph glyph-name="cedilla" unicode="&#xb8;" horiz-adv-x="274" 
d="M38 -55q-3 -16 5 -27t25 -11h99q17 0 30.5 11t16.5 27l31 145q4 17 -5 28t-26 11h-99q-17 0 -29.5 -11t-16.5 -28zM54 90q5 24 23.5 39t41.5 15h99q35 0 42 -31v1l22 -27q12 -13 7 -36l-31 -145q-5 -23 -22 -37t-40 -14h-99q-23 0 -34 14l-21 28h1q-26 12 -20 48z" />
    <glyph glyph-name="onesuperior" unicode="&#xb9;" horiz-adv-x="234" 
d="M198 297q7 -10 20 -10h48q14 0 25.5 9.5t14.5 23.5l36 171q5 23 1 42.5t-15 33.5l-17 21q-9 23 -30 37.5t-52 14.5h-24q-15 0 -26.5 -10.5t-14.5 -24.5l-11 -49q-2 -12 1.5 -21.5t13.5 -12.5h-1l20 -26l-28 -136q-3 -12 1.5 -21.5t15.5 -12.5h-1zM204 502q2 9 -3.5 20.5
t-17.5 12.5q-8 0 -12.5 6.5t-2.5 14.5l11 49q2 8 8.5 14t14.5 6h24q39 0 60 -27.5t13 -66.5l-36 -171q-2 -8 -10 -14.5t-16 -6.5h-47q-8 0 -13 6.5t-3 14.5z" />
    <glyph glyph-name="ordmasculine" unicode="&#xba;" horiz-adv-x="384" 
d="M174 316q11 -14 29 -22.5t41 -8.5h99q22 0 43 8t38 22.5t29.5 33.5t17.5 42l21 99q5 23 0.5 42.5t-15.5 33.5l-18 22q-10 23 -30.5 36.5t-49.5 13.5h-100q-22 0 -43.5 -8.5t-39.5 -23t-31 -34.5t-17 -42l-21 -99q-7 -30 1.5 -54.5t28.5 -38.5zM215 337q-39 0 -60 27.5
t-13 66.5l21 99q4 19 15 36t26 29.5t33.5 20t37.5 7.5h100q19 0 34.5 -7.5t25.5 -20t14 -29.5t0 -36l-21 -99q-4 -20 -15 -37t-26.5 -29.5t-34 -20t-37.5 -7.5h-100zM299 452q19 0 23 19l4 19q4 19 -15 19h-19q-19 0 -23 -19l-4 -19q-4 -19 15 -19h19z" />
    <glyph glyph-name="guillemotright" unicode="&#xbb;" horiz-adv-x="410" 
d="M108 84q10 -13 29 -13l94 44q7 1 12 6q3 -6 13 -10h-1l23 -27q10 -13 29 -13l94 44q6 3 14 8.5t15 11.5t12 12t6 11l37 174q1 6 -2.5 12.5t-8.5 13.5l-18 23v-1q-2 10 -12 21t-17 16l-75 46q-20 0 -37 -13t-22 -34l-7 -37h-1h1h-1q-3 10 -12 21.5t-16 16.5l-75 46
q-20 0 -37 -13t-22 -34l-17 -82q-3 -16 2 -24.5t16 -14.5h-1l11 -14l-2 -1q-17 -8 -29.5 -16t-17.5 -28l-17 -82q-7 -30 18 -43h-1zM312 304q-10 5 -16.5 11.5t-4.5 18.5l17 82q3 14 14 23t23 9l73 -44h-1q7 -5 16.5 -15.5t7.5 -16.5l-37 -174q-2 -6 -15 -16.5t-23 -15.5h1
l-91 -44q-12 0 -19 9t-4 23l17 82q3 12 12.5 18.5t21.5 11.5l41 19zM142 304q-10 5 -16.5 11.5t-4.5 18.5l17 82q3 14 14 23t23 9l73 -44h-1q7 -5 16.5 -15.5t7.5 -16.5l-37 -174q-2 -6 -15 -16.5t-23 -15.5h1l-91 -44q-12 0 -19 9t-4 23l17 82q3 12 12.5 18.5t21.5 11.5
l40 19zM305 281l-1 -1v2z" />
    <glyph glyph-name="onequarter" unicode="&#xbc;" horiz-adv-x="693" 
d="M131 -36q11 -14 33 -14h90q22 0 39.5 13.5t22.5 36.5l53 89q6 -35 35 -55l17 -21q11 -14 28 -22.5t40 -8.5h55q7 -9 14 -10h-1l23 -29q7 -10 21 -10h49q14 0 25.5 9.5t14.5 23.5l52 245q3 12 -5 23l-23 29v-1q-4 25 -29 25h-49q-15 0 -27.5 -10.5t-16.5 -25.5l-23 -111
h-39l15 71q3 13 -4 23l-23 29v-1q-4 25 -29 25h-4l125 212q5 26 -5 37l-24 29v-1q-8 29 -41 29h-90q-23 0 -41.5 -14.5t-23.5 -37.5l-45 -76q7 41 -16 72l-16 21q-10 24 -31.5 39t-52.5 15h-24q-16 0 -27.5 -10.5t-15.5 -25.5l-10 -49q-2 -12 1.5 -21t14.5 -12h-1l20 -26
l-29 -137q-2 -12 2.5 -21.5t15.5 -12.5h-1l23 -29q7 -10 21 -10h3l-126 -215q-8 -37 19 -50h-1zM273 41q-4 -17 -17.5 -28t-30.5 -11h-89q-17 0 -25.5 11t-4.5 28l294 498q3 17 16.5 28t30.5 11h90q17 0 25.5 -11t5.5 -28zM646 6q-2 -8 -9.5 -14.5t-15.5 -6.5h-49
q-8 0 -13.5 6.5t-3.5 14.5l6 28h-101q-39 0 -61 28t-14 67l26 122q2 8 10 14.5t16 6.5h49q8 0 13 -6.5t3 -14.5l-19 -91q-4 -19 7 -27t19 -8h72l26 126q2 8 10 14.5t16 6.5h49q8 0 13 -6.5t3 -14.5zM199 474q2 9 -3.5 20.5t-17.5 12.5q-8 0 -13 6t-3 14l10 49q2 8 9.5 14.5
t15.5 6.5h24q19 0 35 -7.5t26 -20.5t14 -30t0 -36l-37 -172q-2 -8 -9 -14.5t-15 -6.5h-50q-8 0 -13.5 6.5t-3.5 14.5z" />
    <glyph glyph-name="onehalf" unicode="&#xbd;" horiz-adv-x="689" 
d="M168 331q-2 -8 3.5 -14.5t13.5 -6.5h49q8 0 15.5 6.5t9.5 14.5l37 172q4 19 0 36t-14 30t-26 20.5t-35 7.5h-24q-8 0 -15.5 -6.5t-9.5 -14.5l-10 -49q-2 -8 3 -14t13 -6q12 -1 17.5 -12.5t3.5 -20.5zM355 4q-2 -8 2.5 -13.5t12.5 -5.5h249q19 0 23 19l10 50q4 19 -14 19
h-173q-8 0 -6 6q1 6 8 6h99q19 0 37.5 7.5t34 20t26.5 29.5t15 36q8 38 -13 66t-60 28h-175q-19 0 -23 -19l-11 -50q-2 -8 2.5 -13.5t12.5 -5.5h175q5 0 4 -6q-2 -6 -6 -6h-99q-20 0 -38.5 -7.5t-34.5 -20t-27 -29.5t-15 -36zM568 539q3 17 -5.5 28t-25.5 11h-90
q-17 0 -30.5 -11t-16.5 -28l-294 -498q-4 -17 4.5 -28t25.5 -11h89q17 0 30.5 11t17.5 28zM352 60l-36 -60q-5 -23 -22.5 -36.5t-39.5 -13.5h-90q-22 0 -33 14l-22 29h1q-27 13 -19 50l126 215h-3q-14 0 -21 10l-23 29h1q-11 3 -15.5 12.5t-2.5 21.5l29 137l-20 26h1
q-11 3 -14.5 12t-1.5 21l10 49q4 15 15.5 25.5t27.5 10.5h24q31 0 52.5 -15t31.5 -39l16 -21q23 -31 16 -72l45 76q5 23 23.5 37.5t41.5 14.5h90q33 0 41 -29v1l24 -29q10 -12 5 -37l-125 -212h124q30 0 51 -14t30 -37l17 -22q11 -14 16 -33t0 -42q-5 -25 -18.5 -44.5
t-31.5 -33.5l19 -24q7 -9 4 -23l-11 -50q-2 -14 -12.5 -22.5t-24.5 -8.5h-249q-13 0 -20 9l-24 30h1q-22 7 -16 32z" />
    <glyph glyph-name="threequarters" unicode="&#xbe;" horiz-adv-x="817" 
d="M137 479l-11 -50q-3 -19 4 -26q-12 -8 -14 -24l-11 -50q-6 -26 16 -33h-1l24 -29q7 -9 20 -9h177l-127 -215q-8 -37 19 -50h-1l22 -29q11 -14 34 -14h90q22 0 39.5 13.5t22.5 36.5l53 89q6 -35 35 -55l17 -21q11 -14 28 -22.5t39 -8.5h56q7 -9 14 -10h-1l23 -29
q7 -10 21 -10h49q14 0 25.5 9.5t14.5 23.5l52 245q2 6 0 11.5l-4 10.5l-24 30v-1q-4 25 -29 25h-49q-15 0 -27.5 -10.5t-16.5 -25.5l-23 -111h-39l15 71q3 12 -5 23l-22 29v-1q-4 25 -29 25h-4l125 212q5 23 -6 37l-23 29v-1q-8 29 -41 29h-90q-23 0 -41.5 -14.5
t-23.5 -37.5l-22 -36l-6.5 17t-8.5 16l-17 22q-9 23 -31 37.5t-51 14.5h-174q-15 0 -26.5 -10t-14.5 -24l-11 -50q-3 -18 4 -25q-11 -11 -14 -24zM397 41q-4 -17 -17.5 -28t-30.5 -11h-90q-17 0 -25.5 11t-4.5 28l295 498q3 17 16.5 28t30.5 11h90q17 0 25.5 -11t5.5 -28z
M152 479q4 19 23 19h174q5 0 7 6q2 5 -5 5h-174q-8 0 -12.5 5.5t-2.5 13.5l11 50q4 19 23 19h174q19 0 34.5 -7.5t25.5 -20.5t14 -29.5t0 -35.5q-3 -14 -15 -29.5t-28 -20.5q17 -6 21 -21t1 -29q-4 -20 -15 -37t-27 -29.5t-34.5 -20t-37.5 -7.5h-174q-8 0 -12.5 5.5
t-2.5 13.5l11 50q4 19 23 19h174q5 0 7 6q1 6 -5 6h-174q-8 0 -12.5 5.5t-2.5 13.5zM770 6q-2 -8 -9.5 -14.5t-15.5 -6.5h-49q-8 0 -13.5 6.5t-3.5 14.5l6 28h-101q-39 0 -61 28t-14 67l26 122q2 8 10 14.5t16 6.5h49q8 0 13 -6.5t3 -14.5l-19 -91q-4 -19 6.5 -27t18.5 -8
h73l26 126q2 8 10 14.5t16 6.5h49q8 0 13 -6.5t3 -14.5z" />
    <glyph glyph-name="questiondown" unicode="&#xbf;" 
d="M591 489q7 36 -13 62.5t-56 26.5q-18 0 -35.5 -7t-32.5 -19.5t-25.5 -28.5t-14.5 -34q-4 -17 -0.5 -33t13.5 -28t24.5 -19.5t32.5 -7.5t35.5 7.5t32 19.5t25 28t14.5 33zM318 379q-38 0 -75.5 -15t-68.5 -40.5t-53.5 -60t-30.5 -73.5q-8 -38 -0.5 -72.5t27.5 -60
t51 -40.5t69 -15h350q17 0 30.5 11t17.5 28l21 100q3 16 -5.5 27t-25.5 11h-350q-10 0 -8 11q3 11 13 11h61q37 0 74 13t67.5 35.5t52.5 52.5t30 64l3 13h-250zM437 394l-5 6q-20 14 -29.5 37t-3.5 52q4 21 16.5 40t30 33.5t38 22.5t41.5 8q29 0 49.5 -15t28.5 -38l17 -20
q13 -13 16 -31.5t-1.5 -38.5t-16 -38.5t-27.5 -31.5l23 -29l-6 -25q-8 -42 -34 -75t-62 -57h116q36 0 43 -31v1l22 -26q12 -15 6 -37l-21 -100q-5 -23 -22 -37t-40 -14h-350q-42 0 -74.5 15.5t-52.5 42.5l-14 16q-33 28 -47 71.5t-3 94.5q9 43 33 80t57.5 64.5t73.5 43.5
t82 16h116z" />
    <glyph glyph-name="Agrave" unicode="&#xc0;" horiz-adv-x="673" 
d="M448 245q-2 -2 -0.5 -1.5t-8.5 -4.5h45l6 29q-13 -6 -23.5 -12t-18.5 -11zM418 654q3 -11 7.5 -19t16.5 -8h82q14 0 25 9t14 21l-27 83v-1q-4 8 -11.5 19.5t-13.5 11.5h-82q-11 0 -24 -7.5t-15 -16.5zM374 742q2 9 8.5 16.5t15 13.5t17.5 9.5t17 3.5h82q11 0 22 -14
t15 -25v1l16 -21q4 -5 6 -9t4 -7l30 -89q-4 -19 -19 -32t-35 -13h-82q-16 0 -23 9l-24 30h1q-11 4 -14.5 12.5t-6.5 19.5zM741 545q2 9 -4.5 21.5t-14.5 12.5h-106q-69 -28 -146 -69.5l-158 -86.5q-12 -7 -23.5 -13t-23.5 -13q-72 -40 -117.5 -94.5t-56.5 -111.5l-32 -150
q-4 -17 4.5 -28t25.5 -11h99q17 0 30.5 11t17.5 28l32 154q0 1 10 9.5l24 19.5t29.5 22t26.5 18l13.5 7t17.5 11l60 33.5t74 35.5l-27 -127h-160q-17 0 -30.5 -10.5t-16.5 -27.5l-22 -100q-3 -17 5.5 -28t25.5 -11h159v-6q-4 -17 4.5 -28t24.5 -11h100q17 0 30.5 11t17.5 28
zM62 -8h1q-26 14 -19 49l32 150q13 61 60.5 119t122.5 100l12 6h-1l3 1.5l11 5.5q5 2 11 5.5t10 6.5q5 3 11 6t11 6l147.5 80.5t141.5 66.5h109q8 0 15.5 -8.5t12.5 -19.5l20 -25q6 -8 9.5 -18t1.5 -18l-107 -504q-5 -23 -22 -37t-40 -14h-100q-23 0 -34 14l-21 28h1l-5 3
h-129q-23 0 -34 14l-10 12l-4 -20q-5 -23 -22 -37t-40 -14h-99q-23 0 -34 14z" />
    <glyph glyph-name="Aacute" unicode="&#xc1;" horiz-adv-x="673" 
d="M448 245q-2 -2 -0.5 -1.5t-8.5 -4.5h45l6 29q-13 -6 -23.5 -12t-18.5 -11zM604 746q2 9 -8 16.5t-21 7.5h-82q-6 0 -19 -11.5t-20 -19.5v1l-61 -83q-3 -12 4 -21t21 -9h82q12 0 20 8t16 19zM396 617h1q-25 13 -19 44l64 85q4 5 11 12t14.5 13t15 10t13.5 4h82
q12 0 24 -8.5t15 -21.5l1 1l22 -30q8 -11 5 -23l-69 -94h-1q-9 -14 -19 -23.5t-27 -9.5h-82q-19 0 -28 12zM741 545q2 9 -4.5 21.5t-14.5 12.5h-106q-69 -28 -146 -69.5l-158 -86.5q-12 -7 -23.5 -13t-23.5 -13q-72 -40 -117.5 -94.5t-56.5 -111.5l-32 -150q-4 -17 4.5 -28
t25.5 -11h99q17 0 30.5 11t17.5 28l32 154q0 1 10 9.5l24 19.5t29.5 22t26.5 18l13.5 7t17.5 11l60 33.5t74 35.5l-27 -127h-160q-17 0 -30.5 -10.5t-16.5 -27.5l-22 -100q-3 -17 5.5 -28t25.5 -11h159v-6q-4 -17 4.5 -28t24.5 -11h100q17 0 30.5 11t17.5 28zM62 -8h1
q-26 14 -19 49l32 150q13 61 60.5 119t122.5 100l12 6h-1l3 1.5l11 5.5q5 2 11 5.5t10 6.5q5 3 11 6t11 6l147.5 80.5t141.5 66.5h109q8 0 15.5 -8.5t12.5 -19.5l20 -25q6 -8 9.5 -18t1.5 -18l-107 -504q-5 -23 -22 -37t-40 -14h-100q-23 0 -34 14l-21 28h1l-5 3h-129
q-23 0 -34 14l-10 12l-4 -20q-5 -23 -22 -37t-40 -14h-99q-23 0 -34 14z" />
    <glyph glyph-name="Acircumflex" unicode="&#xc2;" horiz-adv-x="673" 
d="M448 245q-2 -2 -0.5 -1.5t-8.5 -4.5h45l6 29q-13 -6 -23.5 -12t-18.5 -11zM514 654q3 -11 7.5 -19t16.5 -8h81q14 0 25 9t14 21l-26 83v-1q-4 8 -11.5 19.5t-13.5 11.5h-175q-6 0 -19 -11.5t-20 -19.5v1l-61 -83q-3 -12 4 -21t21 -9h82q12 0 20 8t16 19l27 37zM741 545
q2 9 -4.5 21.5t-14.5 12.5h-106q-69 -28 -146 -69.5l-158 -86.5q-12 -7 -23.5 -13t-23.5 -13q-72 -40 -117.5 -94.5t-56.5 -111.5l-32 -150q-4 -17 4.5 -28t25.5 -11h99q17 0 30.5 11t17.5 28l32 154q0 1 10 9.5l24 19.5t29.5 22t26.5 18l13.5 7t17.5 11l60 33.5t74 35.5
l-27 -127h-160q-17 0 -30.5 -10.5t-16.5 -27.5l-22 -100q-3 -17 5.5 -28t25.5 -11h159v-6q-4 -17 4.5 -28t24.5 -11h100q17 0 30.5 11t17.5 28zM662 726q4 -5 6 -9t4 -7l30 -89q-3 -16 -14 -27h37q8 0 15.5 -8.5t12.5 -19.5l20 -25q6 -8 9.5 -18t1.5 -18l-107 -504
q-5 -23 -22 -37t-40 -14h-100q-23 0 -34 14l-21 28h1l-5 3h-129q-23 0 -34 14l-10 12l-4 -20q-5 -23 -22 -37t-40 -14h-99q-23 0 -34 14l-22 28h1q-26 14 -19 49l32 150q13 61 60.5 119t122.5 100l12 6h-1l3 1.5l11 5.5q5 2 11 5.5t10 6.5l28 15q125 73 241 126h-7
q-16 0 -23 9l-24 30l-4 -6h-2q-9 -14 -19 -23.5t-27 -9.5h-82q-19 0 -28 12l-23 29h1q-25 13 -19 44l64 85q4 5 11 12t14.5 13t15 10t13.5 4h175q11 0 22 -14t14 -25v1z" />
    <glyph glyph-name="Atilde" unicode="&#xc3;" horiz-adv-x="673" 
d="M84 -36q11 -14 34 -14h99q23 0 40 14t22 37l4 20l10 -12q11 -14 34 -14h129l5 -3h-1l21 -28q11 -14 34 -14h100q23 0 40 14t22 37l107 503q2 8 -1.5 18t-9.5 18l-20 25q-5 11 -12.5 19.5t-15.5 8.5h-109q-69 -28 -141.5 -66l-147.5 -80q-5 -3 -11 -6t-11 -6
q-4 -3 -10 -6.5t-11 -5.5l-11 -5.5l-3 -1.5h1l-12 -6q-75 -42 -122.5 -99.5t-61.5 -120.5l-31 -149q-7 -35 19 -49h-1zM634 41q-4 -17 -17.5 -28t-30.5 -11h-100q-16 0 -24.5 11t-4.5 28v6h-159q-17 0 -25.5 11t-5.5 28l21 99q4 17 17.5 28t30.5 11h160l27 127
q-40 -17 -74 -35.5l-60 -33.5q-10 -7 -17.5 -11l-13.5 -7q-11 -7 -26.5 -18.5l-29.5 -22.5l-24 -19.5t-10 -9.5l-32 -153q-4 -17 -17.5 -28t-30.5 -11h-99q-17 0 -25.5 11t-4.5 28l31 149q12 57 57.5 112t117.5 95q12 7 23.5 13t23.5 13l158 86t146 69h106q8 0 14.5 -12.5
t4.5 -21.5zM448 245q8 5 18.5 11t23.5 12l-6 -29h-45q10 5 8.5 4.5t0.5 1.5z" />
    <glyph glyph-name="Adieresis" unicode="&#xc4;" horiz-adv-x="673" 
d="M359 697q-5 -24 2 -43.5t24 -30.5l20 -24q19 -25 56 -25q28 0 54.5 17.5t39.5 44.5q4 -4 8 -7.5t9 -6.5l19 -23q2 -4 5 -6.5t5 -4.5q-72 -30 -145 -70.5l-151 -82.5q-4 -3 -10 -6.5t-11 -5.5l-11 -5.5l-3 -1.5h1l-12 -6q-75 -42 -122.5 -100t-60.5 -119l-32 -150
q-7 -35 19 -49h-1l22 -28q11 -14 34 -14h99q23 0 40 14t22 37l4 20l10 -12q11 -14 34 -14h129l5 -3h-1l21 -28q11 -14 34 -14h100q23 0 40 14t22 37l107 504q2 8 -1.5 18t-9.5 18l-20 25q-5 11 -12.5 19.5t-15.5 8.5h-23q34 22 45 63q4 17 0 33t-13 27l-19 23v-1
q-8 21 -25 33.5t-40 12.5q-30 0 -58.5 -19.5t-42.5 -48.5l-18 23v-1q-8 21 -25 33.5t-40 12.5q-18 0 -35.5 -7t-32 -19t-25 -28t-14.5 -34zM634 41q-4 -17 -17.5 -28t-30.5 -11h-100q-16 0 -24.5 11t-4.5 28v6h-159q-17 0 -25.5 11t-5.5 28l22 100q3 17 16.5 27.5t30.5 10.5
h160l27 127q-40 -17 -74 -35.5l-60 -33.5q-10 -7 -17.5 -11l-13.5 -7q-11 -7 -26.5 -18t-29.5 -22l-24 -19.5t-10 -9.5l-32 -154q-4 -17 -17.5 -28t-30.5 -11h-99q-17 0 -25.5 11t-4.5 28l32 150q11 57 56.5 111.5t117.5 94.5q12 7 23.5 13t23.5 13l158 86.5t146 69.5h106
q8 0 14.5 -12.5t4.5 -21.5zM374 697q3 15 12 28t21 23t26.5 16t29.5 6q29 0 45.5 -22t10.5 -51q-3 -15 -11.5 -27.5t-20.5 -22.5t-26.5 -15.5t-28.5 -5.5q-29 0 -46.5 21t-11.5 50zM703 697q-3 -15 -11.5 -27.5t-20.5 -22.5t-26.5 -15.5t-28.5 -5.5q-29 0 -46 21t-11 50
q3 15 12 28t21 23t26.5 16t28.5 6q29 0 45.5 -22t10.5 -51zM448 245q8 5 18.5 11t23.5 12l-6 -29h-45q10 5 8.5 4.5t0.5 1.5z" />
    <glyph glyph-name="Aring" unicode="&#xc5;" horiz-adv-x="673" 
d="M448 245q-2 -2 -0.5 -1.5t-8.5 -4.5h45l6 29q-13 -6 -23.5 -12t-18.5 -11zM493 697q2 9 10.5 15.5t18.5 6.5t15 -6.5t3 -15.5q-2 -10 -10 -16t-18 -6t-15.5 6t-3.5 16zM445 697q-6 -29 11.5 -50t46.5 -21q14 0 28.5 5.5t26.5 15.5t20.5 22.5t11.5 27.5q6 29 -10.5 51
t-45.5 22q-15 0 -29.5 -6t-26.5 -16t-21 -23t-12 -28zM430 697q4 18 14.5 34t25 28t32 19t35.5 7q23 0 40 -12.5t25 -33.5v1l19 -23q19 -24 12 -60q-4 -17 -14 -32t-23.5 -26.5t-30 -18t-33.5 -6.5q-37 0 -56 25l-20 24q-17 11 -24 30.5t-2 43.5zM741 545q2 9 -4.5 21.5
t-14.5 12.5h-106q-69 -28 -146 -69.5l-158 -86.5q-12 -7 -23.5 -13t-23.5 -13q-72 -40 -117.5 -94.5t-56.5 -111.5l-32 -150q-4 -17 4.5 -28t25.5 -11h99q17 0 30.5 11t17.5 28l32 154q0 1 10 9.5l24 19.5t29.5 22t26.5 18l13.5 7t17.5 11l60 33.5t74 35.5l-27 -127h-160
q-17 0 -30.5 -10.5t-16.5 -27.5l-22 -100q-3 -17 5.5 -28t25.5 -11h159v-6q-4 -17 4.5 -28t24.5 -11h100q17 0 30.5 11t17.5 28zM62 -8h1q-26 14 -19 49l32 150q13 61 60.5 119t122.5 100l12 6h-1l3 1.5l11 5.5q5 2 11 5.5t10 6.5q5 3 11 6t11 6l147.5 80.5t141.5 66.5h109
q8 0 15.5 -8.5t12.5 -19.5l20 -25q6 -8 9.5 -18t1.5 -18l-107 -504q-5 -23 -22 -37t-40 -14h-100q-23 0 -34 14l-21 28h1l-5 3h-129q-23 0 -34 14l-10 12l-4 -20q-5 -23 -22 -37t-40 -14h-99q-23 0 -34 14z" />
    <glyph glyph-name="AE" unicode="&#xc6;" horiz-adv-x="1164" 
d="M448 245q-2 -2 -0.5 -1.5t-8.5 -4.5h45l6 29q-13 -6 -23.5 -12t-18.5 -11zM1077 2q17 0 30.5 11t17.5 28l21 100q3 16 -5.5 27t-25.5 11h-349q-9 0 -9 11l2 11h361q17 0 30 11t17 28l21 100q4 17 -4.5 28t-25.5 11h-360l2 11q3 11 13 11h349q17 0 30.5 11t17.5 28l21 99
q3 17 -5.5 28t-25.5 11h-349q-55 0 -110 -31q0 10 -5.5 20.5t-12.5 10.5h-106q-69 -28 -146 -69l-158 -86q-12 -7 -23.5 -13t-23.5 -13q-72 -40 -118 -95t-58 -112l-31 -149q-4 -17 4.5 -28t25.5 -11h100q17 0 30.5 11t17.5 28l32 153q0 1 10 9.5l24 20t29 22.5t26 18
l13.5 7t17.5 11l60 33.5t74 35.5l-27 -127h-160q-16 0 -29.5 -11t-17.5 -28l-21 -99q-3 -17 5.5 -28t24.5 -11h159v-6q-4 -17 4.5 -28t25.5 -11h100q14 0 26.5 8.5t19.5 22.5q40 -31 95 -31h349zM62 -8h1q-26 14 -19 49l31 149q14 63 62 120.5t123 99.5l12 6h-1l3 1.5
l11 5.5q5 2 11 5.5t10 6.5q5 3 11 6t11 6l147.5 80t141.5 66h109q8 0 14.5 -7.5t11.5 -17.5q50 25 102 25h349q35 0 42 -31l1 1l22 -27q11 -14 6 -37l-21 -99q-7 -36 -40 -48l13 -15q11 -14 6 -37l-21 -100q-8 -34 -40 -47l12 -15q12 -15 6 -37l-21 -100q-5 -23 -22 -37
t-40 -14h-349q-27 0 -49.5 7t-41.5 19q-8 -11 -22 -18.5t-28 -7.5h-100q-23 0 -34 14l-22 28h1l-5 3h-129q-23 0 -34 14l-9 12l-4 -20q-5 -23 -22 -37t-40 -14h-100q-23 0 -34 14z" />
    <glyph glyph-name="Ccedilla" unicode="&#xc7;" 
d="M587 2q17 0 30.5 11t17.5 28l21 100q4 17 -5 28t-26 11h-287q-28 0 -46.5 19t-11.5 52l17 77q2 10 8 22.5t17 24t26.5 19t36.5 7.5h287q17 0 30.5 11t17.5 28l21 100q3 16 -5.5 27t-25.5 11h-349q-38 0 -75.5 -15t-69 -40.5t-53.5 -59.5t-30 -73l-43 -200
q-8 -39 -0.5 -73t27.5 -59.5t51 -40.5t70 -15h32l-12 -58q-4 -17 5 -28t26 -11h100q17 0 30 11t17 28l12 58h139zM324 211q-1 -5 -1.5 -8t-0.5 -7q8 -2 9 -2h10h287q37 0 43 -30v1l22 -27q12 -15 6 -37l-21 -100q-5 -23 -22 -37t-40 -14h-128l-9 -46q-5 -23 -21.5 -37
t-39.5 -14h-100q-23 0 -34 14l-22 28h1q-27 12 -20 49l2 8q-36 4 -63 18.5t-44 37.5l-14 17q-32 27 -46 70t-3 95l43 200q9 43 32.5 80t57 64.5t74 43t82.5 15.5h349q35 0 42 -31l1 1l22 -26q11 -14 6 -37l-21 -100q-5 -23 -22 -37t-40 -14h-287q-17 0 -30 -6.5t-22 -15.5
t-14.5 -19.5t-7.5 -19.5z" />
    <glyph glyph-name="Egrave" unicode="&#xc8;" 
d="M446 654q3 -11 7.5 -19t16.5 -8h82q14 0 25 9t14 21l-27 83v-1q-4 8 -11.5 19.5t-13.5 11.5h-82q-11 0 -24 -7.5t-15 -16.5zM587 2q17 0 30.5 11t17.5 28l21 100q4 17 -5 28t-26 11h-349q-10 0 -8 11l1 11h361q17 0 30 10.5t17 27.5l21 100q4 17 -4.5 28t-25.5 11h-360
l2 11q3 11 13 11h349q17 0 30.5 11t17.5 28l21 100q3 17 -5.5 28t-25.5 11h-349q-38 0 -75.5 -15t-69 -40.5t-53.5 -60t-30 -73.5l-42 -199q-9 -39 -1.5 -73.5t27.5 -60t51 -40.5t70 -15h349zM595 726q4 -5 6 -9t4 -7l29 -89q-3 -16 -14 -27h93q36 0 43 -31v1l22 -27
q11 -14 6 -37l-21 -100q-7 -36 -40 -48l13 -15q11 -14 6 -37l-21 -99q-8 -35 -40 -48l12 -15q12 -15 6 -37l-21 -100q-5 -23 -22 -37t-40 -14h-349q-43 0 -76 15.5t-53 42.5l-14 17q-32 27 -45.5 69.5t-2.5 96.5l42 199q9 43 32.5 80t57 64.5t74 43.5t82.5 16h105l-17 21h1
q-11 4 -14.5 12.5t-6.5 19.5l-30 95q2 9 8.5 16.5t15 13.5t17.5 9.5t17 3.5h82q11 0 22 -14t15 -25v1z" />
    <glyph glyph-name="Eacute" unicode="&#xc9;" 
d="M639 746q2 9 -8 16.5t-21 7.5h-82q-6 0 -19 -11.5t-20 -19.5v1l-61 -83q-3 -12 4 -21t21 -9h82q12 0 20 8t16 19zM587 2q17 0 30.5 11t17.5 28l21 100q4 17 -5 28t-26 11h-349q-10 0 -8 11l1 11h361q17 0 30 10.5t17 27.5l21 100q4 17 -4.5 28t-25.5 11h-360l2 11
q3 11 13 11h349q17 0 30.5 11t17.5 28l21 100q3 17 -5.5 28t-25.5 11h-349q-38 0 -75.5 -15t-69 -40.5t-53.5 -60t-30 -73.5l-42 -199q-9 -39 -1.5 -73.5t27.5 -60t51 -40.5t70 -15h349zM124 25q-32 27 -45.5 69.5t-2.5 96.5l42 199q9 43 32.5 80t57 64.5t74 43.5t82.5 16
h85l-18 23h1q-25 13 -19 44l64 85q4 5 11 12t14.5 13t15 10t13.5 4h82q12 0 24 -8.5t14 -21.5l1 1l23 -30q8 -11 5 -23l-69 -94h-1q-8 -13 -10 -15h113q36 0 43 -31v1l22 -27q11 -14 6 -37l-21 -100q-7 -36 -40 -48l13 -15q11 -14 6 -37l-21 -99q-8 -35 -40 -48l12 -15
q12 -15 6 -37l-21 -100q-5 -23 -22 -37t-40 -14h-349q-43 0 -76 15.5t-53 42.5z" />
    <glyph glyph-name="Ecircumflex" unicode="&#xca;" 
d="M528 609q-8 -13 -10 -15h33l-17 21l-4 -6h-2zM528 654q3 -11 7.5 -19t16.5 -8h81q14 0 25 9t14 21l-27 83v-1q-3 8 -10.5 19.5t-13.5 11.5h-175q-6 0 -19 -11.5t-20 -19.5v1l-61 -83q-3 -12 4 -21t21 -9h82q12 0 20 8t16 19l27 37zM587 2q17 0 30.5 11t17.5 28l21 100
q4 17 -5 28t-26 11h-349q-10 0 -8 11l1 11h361q17 0 30 10.5t17 27.5l21 100q4 17 -4.5 28t-25.5 11h-360l2 11q3 11 13 11h349q17 0 30.5 11t17.5 28l21 100q3 17 -5.5 28t-25.5 11h-349q-38 0 -75.5 -15t-69 -40.5t-53.5 -60t-30 -73.5l-42 -199q-9 -39 -1.5 -73.5
t27.5 -60t51 -40.5t70 -15h349zM124 25q-32 27 -45.5 69.5t-2.5 96.5l42 199q9 43 32.5 80t57 64.5t74 43.5t82.5 16h3l-18 23h1q-25 13 -19 44l64 85q4 5 11 12t14.5 13t15 10t13.5 4h175q11 0 21.5 -14t14.5 -25v1l16 -21q4 -5 6 -9t4 -7l30 -89q-3 -16 -14 -27h11
q36 0 43 -31v1l22 -27q11 -14 6 -37l-21 -100q-7 -36 -40 -48l13 -15q11 -14 6 -37l-21 -99q-8 -35 -40 -48l12 -15q12 -15 6 -37l-21 -100q-5 -23 -22 -37t-40 -14h-349q-43 0 -76 15.5t-53 42.5z" />
    <glyph glyph-name="Edieresis" unicode="&#xcb;" 
d="M338 697q-5 -24 2 -43.5t24 -30.5l20 -24q2 -4 3 -5h-23q-42 0 -82.5 -16t-74 -43.5t-57 -64.5t-32.5 -80l-42 -199q-11 -54 2.5 -96.5t45.5 -69.5l14 -17q20 -27 53 -42.5t76 -15.5h349q23 0 40 14t22 37l21 100q6 22 -6 37l-12 15q32 13 40 48l21 99q5 23 -6 37l-13 15
q33 12 40 48l21 100q5 23 -6 37l-22 27v-1q-7 31 -43 31h-32q34 22 45 63q4 17 0 33t-13 27l-3 3l-15 19v-1q-7 20 -24.5 33.5t-41.5 13.5q-30 0 -58.5 -19.5t-42.5 -48.5l-18 23v-1q-8 21 -25 33.5t-40 12.5q-18 0 -35.5 -7t-32 -19t-25 -28t-14.5 -34zM238 2q-39 0 -70 15
t-51 40.5t-27.5 60t1.5 73.5l42 199q8 39 30 73.5t53.5 60t69 40.5t75.5 15h349q17 0 25.5 -11t5.5 -28l-21 -100q-4 -17 -17.5 -28t-30.5 -11h-349q-10 0 -13 -11l-2 -11h360q17 0 25.5 -11t4.5 -28l-21 -100q-4 -17 -17 -27.5t-30 -10.5h-361l-1 -11q-2 -11 8 -11h349
q17 0 26 -11t5 -28l-21 -100q-4 -17 -17.5 -28t-30.5 -11h-349zM353 697q3 15 12 28t21 23t26.5 16t29.5 6q29 0 45.5 -22t10.5 -51q-3 -15 -11.5 -27.5t-20.5 -22.5t-26.5 -15.5t-28.5 -5.5q-29 0 -46.5 21t-11.5 50zM682 697q-3 -15 -11.5 -27.5t-20.5 -22.5t-26.5 -15.5
t-28.5 -5.5q-29 0 -46 21t-11 50q3 15 12 28t21 23t26.5 16t28.5 6q29 0 45.5 -22t10.5 -51zM570 599q2 -4 3 -5h-75q11 8 21 18.5t15 22.5q5 -5 9.5 -8.5t8.5 -5.5z" />
    <glyph glyph-name="Igrave" unicode="&#xcc;" horiz-adv-x="550" 
d="M358 654q3 -11 7.5 -19t16.5 -8h82q14 0 25 9t14 21l-27 83v-1q-4 8 -11.5 19.5t-13.5 11.5h-82q-11 0 -24 -7.5t-15 -16.5zM463 2q17 0 30.5 11t17.5 28l21 100q4 17 -5 28t-26 11h-98l47 221h98q17 0 30.5 11t17.5 28l21 100q3 17 -5.5 28t-25.5 11h-374
q-17 0 -30.5 -11t-16.5 -28l-21 -100q-4 -17 4.5 -28t25.5 -11h98l-47 -221h-98q-17 0 -30 -11t-17 -28l-21 -100q-4 -17 4.5 -28t25.5 -11h374zM343 649l-29 93q2 9 8.5 16.5t15 13.5t17.5 9.5t17 3.5h82q11 0 22 -14t15 -25v1l16 -21q4 -5 6 -9t4 -7l29 -89
q-3 -16 -14 -27h57q36 0 43 -31v1l22 -27q11 -14 6 -37l-21 -100q-5 -23 -22 -37t-40 -14h-87l-33 -154h47q36 0 43 -31v1l22 -27q12 -15 6 -37l-21 -100q-5 -23 -22 -37t-40 -14h-374q-23 0 -34 14l-22 28h1q-26 14 -19 49l21 100q5 24 23 39t42 15h83l33 154h-43
q-23 0 -34 14l-22 27h1q-28 13 -19 50l21 100q5 24 23 39t42 15h166l-17 21h1q-11 4 -14.5 12.5t-6.5 19.5z" />
    <glyph glyph-name="Iacute" unicode="&#xcd;" horiz-adv-x="550" 
d="M540 746q2 9 -8 16.5t-21 7.5h-82q-6 0 -19 -11.5t-20 -19.5v1l-61 -83q-3 -12 4 -21t21 -9h82q12 0 20 8t16 19zM463 2q17 0 30.5 11t17.5 28l21 100q4 17 -5 28t-26 11h-98l47 221h98q17 0 30.5 11t17.5 28l21 100q3 17 -5.5 28t-25.5 11h-374q-17 0 -30.5 -11
t-16.5 -28l-21 -100q-4 -17 4.5 -28t25.5 -11h98l-47 -221h-98q-17 0 -30 -11t-17 -28l-21 -100q-4 -17 4.5 -28t25.5 -11h374zM147 390h1q-28 13 -19 50l21 100q5 24 23 39t42 15h135l-18 23h1q-25 13 -19 44l64 85q4 5 11 12t14.5 13t15 10t13.5 4h82q12 0 24 -8.5
t15 -21.5l1 1l22 -30q8 -11 5 -23l-69 -94h-1q-8 -13 -10 -15h88q36 0 43 -31v1l22 -27q11 -14 6 -37l-21 -100q-5 -23 -22 -37t-40 -14h-87l-33 -154h47q36 0 43 -31v1l22 -27q12 -15 6 -37l-21 -100q-5 -23 -22 -37t-40 -14h-374q-23 0 -34 14l-22 28h1q-26 14 -19 49
l21 100q5 24 23 39t42 15h83l33 154h-43q-23 0 -34 14z" />
    <glyph glyph-name="Icircumflex" unicode="&#xce;" horiz-adv-x="550" 
d="M433 609q-8 -13 -10 -15h33l-17 21l-4 -6h-2zM433 654q3 -11 7.5 -19t16.5 -8h81q14 0 25 9t14 21l-27 83v-1q-3 8 -10.5 19.5t-13.5 11.5h-175q-6 0 -19 -11.5t-20 -19.5v1l-60 -83q-3 -12 4 -21t20 -9h82q12 0 20 8t16 19l27 37zM463 2q17 0 30.5 11t17.5 28l21 100
q4 17 -5 28t-26 11h-98l47 221h98q17 0 30.5 11t17.5 28l21 100q3 17 -5.5 28t-25.5 11h-374q-17 0 -30.5 -11t-16.5 -28l-21 -100q-4 -17 4.5 -28t25.5 -11h98l-47 -221h-98q-17 0 -30 -11t-17 -28l-21 -100q-4 -17 4.5 -28t25.5 -11h374zM581 726q4 -5 6 -9t4 -7l30 -89
q-4 -15 -16 -30q23 -6 27 -28v1l22 -27q11 -14 6 -37l-21 -100q-5 -23 -22 -37t-40 -14h-87l-33 -154h47q36 0 43 -31v1l22 -27q12 -15 6 -37l-21 -100q-5 -23 -22 -37t-40 -14h-374q-23 0 -34 14l-22 28h1q-26 14 -19 49l21 100q5 24 23 39t42 15h83l33 154h-43
q-23 0 -34 14l-22 27h1q-28 13 -19 50l21 100q5 24 23 39t42 15h57l-17 23h1q-25 13 -19 44l63 85q4 5 11 12t14.5 13t15 10t13.5 4h175q11 0 21.5 -14t14.5 -25v1z" />
    <glyph glyph-name="Idieresis" unicode="&#xcf;" horiz-adv-x="550" 
d="M244 697q-5 -24 2 -43.5t23 -30.5l20 -24q2 -4 3 -5h-77q-24 0 -42 -15t-23 -39l-21 -100q-9 -37 19 -50h-1l22 -27q11 -14 34 -14h43l-33 -154h-83q-24 0 -42 -15t-23 -39l-21 -100q-7 -35 19 -49h-1l22 -28q11 -14 34 -14h374q23 0 40 14t22 37l21 100q6 22 -6 37
l-22 27v-1q-7 31 -43 31h-47l33 154h87q23 0 40 14t22 37l21 100q5 23 -6 37l-22 27v-1q-7 31 -43 31h-3q34 22 45 63q4 17 0 33t-13 27l-3 3l-15 19v-1q-7 20 -24.5 33.5t-41.5 13.5q-30 0 -58.5 -19.5t-42.5 -48.5l-18 23v-1q-8 21 -25 33.5t-40 12.5q-18 0 -35.5 -7
t-32 -19t-24.5 -28t-14 -34zM89 2q-17 0 -25.5 11t-4.5 28l21 100q4 17 17 28t30 11h98l47 221h-98q-17 0 -25.5 11t-4.5 28l21 100q3 17 16.5 28t30.5 11h374q17 0 25.5 -11t5.5 -28l-21 -100q-4 -17 -17.5 -28t-30.5 -11h-98l-47 -221h98q17 0 26 -11t5 -28l-21 -100
q-4 -17 -17.5 -28t-30.5 -11h-374zM259 697q3 15 11.5 28t20.5 23t26.5 16t29.5 6q29 0 45.5 -22t10.5 -51q-3 -15 -11.5 -27.5t-20.5 -22.5t-26.5 -15.5t-28.5 -5.5q-29 0 -46 21t-11 50zM587 697q-3 -15 -11.5 -27.5t-20.5 -22.5t-26.5 -15.5t-28.5 -5.5q-29 0 -46 21
t-11 50q3 15 12 28t21 23t26.5 16t28.5 6q29 0 45.5 -22t10.5 -51zM475 599q2 -4 3 -5h-75q11 8 21 18.5t15 22.5q5 -5 9.5 -8.5t8.5 -5.5z" />
    <glyph glyph-name="Eth" unicode="&#xd0;" horiz-adv-x="751" 
d="M503 200l-1.5 -3l-0.5 -1l-1 -2q16 1 37 14.5t27 41.5l17 78q2 8 0 20h-6q-2 0 -3 0.5t-3 0.5h-61l10 -12q11 -14 6 -37zM387 392q4 9 13 9h140q20 0 32 -7.5t18 -19t7 -24t-1 -22.5l-17 -78q-4 -18 -14 -31.5t-23 -22.5t-26 -13t-23 -4h-151l5 22h65q17 0 30 11t17 28
l21 100q4 17 -4.5 28t-25.5 11h-65zM101 240q-4 -17 5 -28t26 -11h38l-34 -160q-4 -17 4.5 -28t25.5 -11h349q38 0 75.5 15t69 40.5t53.5 59.5t30 73l43 200q8 39 0.5 73t-27.5 59.5t-51 40.5t-70 15h-349q-17 0 -30.5 -11t-16.5 -28l-34 -160h-38q-17 0 -30.5 -11
t-17.5 -28zM107 340q5 24 23.5 39t42.5 15h23l31 145q5 24 23 39t42 15h349q51 0 89 -23t58 -61l9 -12l5 -5q21 -26 28.5 -63t-1.5 -79l-42 -199q-9 -42 -32.5 -78.5t-56.5 -64t-73 -43t-82 -15.5h-349q-22 0 -33 14l-22 28h1q-26 14 -19 49l23 110q-13 5 -17 12l-23 27h1
q-26 14 -19 50z" />
    <glyph glyph-name="Ntilde" unicode="&#xd1;" 
d="M525 492q3 -4 5 -8t5 -8l14 64q4 21 19 36h-60q-16 0 -23 9l-23 29l-5 -5h-1q-6 -10 -11.5 -16.5t-13.5 -11.5q53 -23 81 -73l8 -11zM512 743q-3 11 -7.5 19t-16.5 8h-114q-6 0 -19 -11.5t-20 -19.5v1l-60 -83q-3 -12 4 -21t20 -9h82q12 0 20 8t16 19l27 37l12 -37
q3 -11 7.5 -19t15.5 -8h115q6 0 19 11.5t19 19.5v-1l61 83q3 12 -4 21t-21 9h-81q-12 0 -20 -8t-16 -19l-27 -37zM610 579q-16 0 -29.5 -11t-16.5 -28l-74 -349q-3 -11 -14 -11t-8 11l42 199q8 39 0.5 73t-28 60t-51.5 41t-70 15q-38 0 -75.5 -15t-69 -41t-53.5 -60t-30 -73
l-74 -349q-4 -17 4.5 -28t25.5 -11h99q17 0 30.5 11t17.5 28l74 349q3 11 13 11q12 0 9 -11l-42 -199q-9 -39 -1.5 -73.5t28 -60t51.5 -40.5t70 -15q38 0 75.5 15t68.5 40.5t53.5 60t31.5 73.5l74 349q3 17 -5.5 28t-25.5 11h-100zM491 785q16 0 22.5 -7.5t9.5 -19.5v1
l11 -14l4 4v-1q11 15 21.5 26t30.5 11h81q15 0 23.5 -8t12.5 -20v1l23 -28q10 -14 6 -33l-64 -84q0 -1 -0.5 -1.5t-0.5 -1.5q-4 -4 -8 -8.5t-9 -7.5h59q36 0 43 -31v1l22 -27q11 -14 6 -37l-74 -349q-9 -42 -33 -78.5t-57 -64t-73 -43t-80 -15.5q-43 0 -76 15.5t-54 42.5
l-14 16q-9 8 -17 16.5t-14 19.5l-13 -59q-5 -23 -22 -37t-40 -14h-99q-23 0 -34 14l-22 28h1q-26 14 -19 49l74 349q7 34 24 65t41.5 56.5t54.5 44.5t63 28q-1 1 -1 5v-1l-22 29h1q-25 13 -19 44l64 85q4 5 10.5 12t14 13t15 10t13.5 4h114z" />
    <glyph glyph-name="Ograve" unicode="&#xd2;" horiz-adv-x="701" 
d="M430 654q3 -11 7.5 -19t16.5 -8h82q14 0 25 9t14 21l-27 83v-1q-4 8 -11.5 19.5t-13.5 11.5h-82q-11 0 -24 -7.5t-15 -16.5zM443 195q24 0 45 16.5t26 40.5l16 76q1 2 1 9v10h-2q-4 1 -7 1.5t-6 0.5h-104q-25 0 -46.5 -17.5t-26.5 -43.5l-16 -76q-1 -5 -1.5 -9t-0.5 -6
q8 -2 18 -2h104zM336 180q-30 0 -46.5 20t-9.5 52l16 76q7 32 32 52.5t55 20.5h104q32 0 48.5 -20.5t9.5 -52.5l-16 -76q-7 -32 -32 -52t-57 -20h-104zM464 2q39 0 76.5 15t68 40.5t53 60t31.5 73.5l42 199q8 39 0.5 73.5t-27.5 60t-51 40.5t-70 15h-228q-38 0 -75.5 -15
t-68.5 -40.5t-53 -60t-30 -73.5l-42 -199q-9 -39 -1.5 -73.5t27.5 -60t51 -40.5t69 -15h228zM579 726q4 -5 6 -9t4 -7l30 -89q-3 -18 -15 -28q48 -3 81 -25.5t52 -57.5l14 -17q21 -27 28.5 -64t-1.5 -79l-42 -199q-9 -42 -32.5 -78.5t-56.5 -64t-72.5 -43t-81.5 -15.5h-228
q-42 0 -74.5 15.5t-52.5 42.5l-12 14q-34 28 -48 71.5t-3 97.5l42 199q9 43 32.5 80t57 64.5t73.5 43.5t82 16h91l-17 21h1q-11 4 -14.5 12.5t-6.5 19.5l-1 2l-29 93q2 9 8.5 16.5t15 13.5t17.5 9.5t17 3.5h82q11 0 22 -14t15 -25v1z" />
    <glyph glyph-name="Oacute" unicode="&#xd3;" horiz-adv-x="701" 
d="M618 746q2 9 -8 16.5t-21 7.5h-82q-6 0 -19 -11.5t-20 -19.5v1l-61 -83q-3 -12 4 -21t21 -9h82q12 0 20 8t16 19zM445 195q23 0 44 16.5t26 40.5l16 76q1 5 0.5 9.5t-0.5 9.5h-1q-5 1 -8 1.5t-4 0.5h-104q-26 0 -47.5 -17.5t-26.5 -43.5l-16 -76q-1 -4 -2 -7.5t0 -7.5
q8 -2 9 -2h10h104zM338 180q-32 0 -48 20t-9 52l16 76q7 32 31.5 52.5t56.5 20.5h104q30 0 47 -20.5t10 -52.5l-16 -76q-7 -32 -32.5 -52t-55.5 -20h-104zM466 2q39 0 76 15t67.5 40.5t53 60t31.5 73.5l42 199q8 39 0.5 73.5t-27.5 60t-51 40.5t-69 15h-228q-38 0 -75.5 -15
t-69 -40.5t-53.5 -60t-30 -73.5l-42 -199q-9 -39 -1.5 -73.5t27.5 -60t51 -40.5t70 -15h228zM124 25q-32 27 -45.5 69.5t-2.5 96.5l42 199q9 43 32.5 80t57 64.5t74 43.5t82.5 16h64l-18 23h1q-25 13 -19 44l64 85q4 5 11 12t14.5 13t15 10t13.5 4h82q12 0 24 -8.5t15 -21.5
l1 1l23 -30q7 -10 4 -23l-69 -94h-1q-8 -13 -10 -15h13q52 0 90.5 -24t57.5 -64l11 -13q21 -27 29.5 -63.5t-1.5 -79.5l-42 -199q-9 -42 -32.5 -78.5t-56.5 -64t-72.5 -43t-80.5 -15.5h-228q-43 0 -76 15.5t-53 42.5z" />
    <glyph glyph-name="Ocircumflex" unicode="&#xd4;" horiz-adv-x="701" 
d="M511 609q-8 -13 -10 -15h33l-17 21l-4 -6h-2zM445 195q23 0 44 16.5t26 40.5l16 76q1 5 0.5 9.5t-0.5 9.5h-1q-5 1 -8 1.5t-4 0.5h-104q-26 0 -47.5 -17.5t-26.5 -43.5l-16 -76q-1 -4 -2 -7.5t0 -7.5q8 -2 9 -2h10h104zM511 654q3 -11 7.5 -19t16.5 -8h82q14 0 24.5 9
t13.5 21l-26 83v-1q-4 8 -11.5 19.5t-13.5 11.5h-175q-6 0 -19 -11.5t-20 -19.5v1l-61 -83q-3 -12 4 -21t21 -9h82q12 0 20 8t16 19l27 37zM338 180q-32 0 -48 20t-9 52l16 76q7 32 31.5 52.5t56.5 20.5h104q30 0 47 -20.5t10 -52.5l-16 -76q-7 -32 -32.5 -52t-55.5 -20
h-104zM466 2q39 0 76 15t67.5 40.5t53 60t31.5 73.5l42 199q8 39 0.5 73.5t-27.5 60t-51 40.5t-69 15h-228q-38 0 -75.5 -15t-69 -40.5t-53.5 -60t-30 -73.5l-42 -199q-9 -39 -1.5 -73.5t27.5 -60t51 -40.5t70 -15h228zM124 25q-32 27 -45.5 69.5t-2.5 96.5l42 199
q9 41 31 77t53 63t69 44t79 20l-18 23h1q-25 13 -19 44l64 85q4 5 11 12t14.5 13t15 10t13.5 4h175q11 0 22 -14t15 -25v1l16 -21q3 -5 5 -9t4 -7l30 -89q-7 -31 -35 -42q26 -11 44.5 -30t31.5 -43l11 -13q21 -27 29.5 -63.5t-1.5 -79.5l-42 -199q-9 -42 -32.5 -78.5
t-56.5 -64t-72.5 -43t-80.5 -15.5h-228q-43 0 -76 15.5t-53 42.5z" />
    <glyph glyph-name="Otilde" unicode="&#xd5;" horiz-adv-x="701" 
d="M472 609q-8 -13 -10 -15h32l-16 20l-5 -5h-1zM445 195q23 0 44 16.5t26 40.5l16 76q1 5 0.5 9.5t-0.5 9.5h-1q-5 1 -8 1.5t-4 0.5h-104q-26 0 -47.5 -17.5t-26.5 -43.5l-16 -76q-1 -4 -2 -7.5t0 -7.5q8 -2 9 -2h10h104zM528 743q-3 11 -7.5 19t-16.5 8h-114
q-6 0 -19 -11.5t-20 -19.5v1l-60 -83q-3 -12 4 -21t20 -9h82q12 0 20 8t16 19l27 37l12 -37q3 -11 7.5 -19t15.5 -8h115q6 0 19 11.5t19 19.5v-1l61 83q3 12 -4 21t-21 9h-81q-12 0 -20 -8t-16 -19l-27 -37zM338 180q-32 0 -48 20t-9 52l16 76q7 32 31.5 52.5t56.5 20.5h104
q30 0 47 -20.5t10 -52.5l-16 -76q-7 -32 -32.5 -52t-55.5 -20h-104zM466 2q39 0 76 15t67.5 40.5t53 60t31.5 73.5l42 199q8 39 0.5 73.5t-27.5 60t-51 40.5t-69 15h-228q-38 0 -75.5 -15t-69 -40.5t-53.5 -60t-30 -73.5l-42 -199q-9 -39 -1.5 -73.5t27.5 -60t51 -40.5
t70 -15h228zM118 390q7 36 25.5 68.5t45 58.5t59 44.5t67.5 26.5l-21 29h1q-25 13 -19 44l63 85q4 5 11 12t14.5 13t15 10t13.5 4h114q15 0 22 -7.5t10 -18.5l1 1l10 -15l4 4v-1q11 15 21.5 26t30.5 11h81q15 0 23.5 -8t12.5 -20v1l23 -28q10 -14 6 -33l-68 -89l-12.5 -12.5
t-15.5 -13.5q59 -23 84 -76l6 -8l5 -5q21 -27 29.5 -63.5t-1.5 -79.5l-42 -199q-9 -42 -32.5 -78.5t-56.5 -64t-72.5 -43t-80.5 -15.5h-228q-43 0 -76 15.5t-53 42.5l-14 17q-32 27 -45.5 69.5t-2.5 96.5z" />
    <glyph glyph-name="Odieresis" unicode="&#xd6;" horiz-adv-x="701" 
d="M320 697q-5 -24 2 -43.5t24 -30.5l20 -24q2 -4 3 -5h-5q-42 0 -82.5 -16t-74 -43.5t-57 -64.5t-32.5 -80l-42 -199q-11 -54 2.5 -96.5t45.5 -69.5l14 -17q20 -27 53 -42.5t76 -15.5h228q41 0 80.5 15.5t72.5 43t56.5 64t32.5 78.5l42 199q10 43 1.5 79.5t-29.5 63.5
l-11 13q-14 28 -37 48.5t-55 30.5q23 11 39 30t21 42q4 17 0 33t-13 27l-19 23v-1q-7 21 -24.5 33.5t-40.5 12.5q-30 0 -58.5 -19.5t-42.5 -48.5l-2 3l-15 19v-1q-7 20 -24.5 33.5t-41.5 13.5q-18 0 -35.5 -7t-32 -19t-25 -28t-14.5 -34zM238 2q-39 0 -70 15t-51 40.5
t-27.5 60t1.5 73.5l42 199q8 39 30 73.5t53.5 60t69 40.5t75.5 15h228q38 0 69 -15t51 -40.5t27.5 -60t-0.5 -73.5l-42 -199q-9 -39 -31.5 -73.5t-53 -60t-67.5 -40.5t-76 -15h-228zM442 180q30 0 55.5 20t32.5 52l16 76q7 32 -10 52.5t-47 20.5h-104q-32 0 -56.5 -20.5
t-31.5 -52.5l-16 -76q-7 -32 9 -52t48 -20h104zM445 195h-104h-10q-1 0 -9 2q-1 4 0 7.5t2 7.5l16 76q5 26 26.5 43.5t47.5 17.5h104q1 0 4 -0.5t8 -1.5h1q0 -5 0.5 -9.5t-0.5 -9.5l-16 -76q-5 -24 -26 -40.5t-44 -16.5zM335 697q3 15 12 28t21 23t26.5 16t29.5 6
q29 0 45.5 -22t10.5 -51q-3 -15 -11.5 -27.5t-20.5 -22.5t-26.5 -15.5t-28.5 -5.5q-29 0 -46.5 21t-11.5 50zM664 697q-3 -15 -11.5 -27.5t-20.5 -22.5t-26 -15.5t-29 -5.5q-29 0 -46 21t-11 50q3 15 12 28t21 23t26.5 16t28.5 6q29 0 45.5 -22t10.5 -51zM552 599q2 -4 3 -5
h-75q11 8 21 18.5t15 22.5q5 -5 9.5 -8.5t8.5 -5.5z" />
    <glyph glyph-name="multiply" unicode="&#xd7;" horiz-adv-x="444" 
d="M143 380q-15 -12 -18 -28q-3 -15 6 -27l29 -35l-44 -37q-15 -12 -18 -28q-5 -14 6 -26l54 -71q9 -12 25 -12t30 12l44 36l29 -37q9 -11 25 -11q18 0 29 11l86 71q14 14 17 27q3 14 -5 28l-29 37l44 36q14 11 17 27q3 10 -5 27l-56 71q-8 12 -25 12q-14 0 -29 -12l-45 -37
l-28 36q-11 12 -26 12q-16 0 -29 -12zM218 461q19 16 41 16q23 0 36 -16l20 -25l31 26q19 16 42 16q22 0 34 -16l57 -72q1 -2 1.5 -5.5t2.5 -7.5v1l25 -30q9 -17 6 -35q-4 -20 -22 -35l-34 -28l23 -29q9 -17 5 -36q-5 -20 -20 -35l-87 -71q-17 -14 -40 -14q-21 0 -32 14
l-22 27l-33 -26q-18 -15 -40 -15t-32 13l-24 29h1q-15 8 -19 17h1l-44 59q-17 19 -12 42q4 22 24 39l31 26l-20 24q-13 14 -8 38q4 22 24 39z" />
    <glyph glyph-name="Oslash" unicode="&#xd8;" horiz-adv-x="701" 
d="M428 179l111 197q13 -19 7 -48l-16 -76q-7 -32 -32.5 -52.5t-55.5 -20.5h-14zM288 201q-14 25 -7 51l16 76q7 32 31.5 52.5t56.5 20.5h14zM466 2q38 0 75 15t68.5 40.5t53.5 59.5t30 73l43 200q8 39 0.5 73t-27.5 59.5t-51 40.5t-69 15h-228q-38 0 -75.5 -15t-69 -40.5
t-53.5 -59.5t-30 -73l-43 -200q-8 -39 -0.5 -73t27.5 -59.5t51 -40.5t70 -15h228zM124 25q-32 27 -46 70t-3 95l43 200q9 42 32.5 79t57 64.5t74 43.5t82.5 16h228q52 0 90.5 -24t56.5 -64l12 -13q21 -26 29.5 -62.5t-1.5 -79.5l-42 -199q-9 -42 -32.5 -78.5t-56.5 -64
t-72.5 -43t-80.5 -15.5h-228q-43 0 -76 15.5t-53 42.5z" />
    <glyph glyph-name="Ugrave" unicode="&#xd9;" 
d="M374 740l29 -91q3 -11 7 -20t15 -14h-1l24 -30q7 -9 23 -9h82q11 0 19 3q-18 -13 -23 -39l-74 -345h-136q-9 0 -17 2q0 2 0.5 5.5t1.5 8.5l61 289q5 23 -6 37l-22 27v-1q-7 31 -43 31h-99q-24 0 -42 -15t-23 -39l-74 -349q-11 -54 2.5 -96.5t45.5 -69.5l14 -17
q20 -27 53 -42.5t76 -15.5h349q23 0 40 14t22 37l106 499q5 23 -6 37l-22 27v-1q-7 31 -43 31h-100q-8 0 -25 -5q15 13 19 32l-30 89q-2 3 -4 7t-6 9l-16 21v-1q-4 11 -15 25t-22 14h-82q-16 0 -34.5 -12.5t-23.5 -27.5v-5zM635 41q-4 -17 -17.5 -28t-30.5 -11h-349
q-39 0 -70 15t-51 40.5t-27.5 60t1.5 73.5l74 349q3 17 16.5 28t30.5 11h99q17 0 25.5 -11t5.5 -28l-62 -289q-2 -11 0 -23t8.5 -23t18 -18t29.5 -7h140q10 0 13 9l75 351q3 17 16.5 28t29.5 11h100q17 0 25.5 -11t5.5 -28zM390 746q2 9 15 16.5t24 7.5h82q6 0 13.5 -11.5
t11.5 -19.5v1l27 -83q-3 -12 -14 -21t-25 -9h-82q-12 0 -16.5 8t-7.5 19z" />
    <glyph glyph-name="Uacute" unicode="&#xda;" 
d="M324 211l61 289q5 23 -6 37l-22 27v-1q-7 31 -43 31h-99q-24 0 -42 -15t-23 -39l-74 -349q-11 -54 2.5 -96.5t45.5 -69.5l14 -17q20 -27 53 -42.5t76 -15.5h349q23 0 40 14t22 37l106 499q5 23 -6 37l-22 27v-1q-7 31 -43 31h-100q-23 0 -41 -15t-23 -39l-74 -345h-136
q-9 0 -17 2q0 2 0.5 5.5t1.5 8.5zM635 41q-4 -17 -17.5 -28t-30.5 -11h-349q-39 0 -70 15t-51 40.5t-27.5 60t1.5 73.5l74 349q3 17 16.5 28t30.5 11h99q17 0 25.5 -11t5.5 -28l-62 -289q-2 -11 0 -23t8.5 -23t18 -18t29.5 -7h140q10 0 13 9l75 351q3 17 16.5 28t29.5 11
h100q17 0 25.5 -11t5.5 -28zM419 588q9 -12 28 -12h82q17 0 27 9.5t19 23.5h1l69 94q3 12 -5 23l-22 30l-1 -1q-3 13 -15 21.5t-24 8.5h-82q-6 0 -13.5 -4t-15 -10t-14.5 -13t-11 -12l-64 -85q-6 -31 19 -44h-1zM536 654q-8 -11 -16 -19t-20 -8h-82q-14 0 -21 9t-4 21l61 83
v-1q7 8 20 19.5t19 11.5h82q11 0 21 -7.5t8 -16.5z" />
    <glyph glyph-name="Ucircumflex" unicode="&#xdb;" 
d="M324 211l61 289q5 23 -6 37l-22 27v-1q-7 31 -43 31h-99q-24 0 -42 -15t-23 -39l-74 -349q-11 -54 2.5 -96.5t45.5 -69.5l14 -17q20 -27 53 -42.5t76 -15.5h349q23 0 40 14t22 37l106 499q5 23 -6 37l-22 27v-1q-7 31 -43 31h-42q11 11 14 27l-30 89q-2 3 -4 7t-6 9
l-15 21v-1q-4 11 -15 25t-22 14h-175q-6 0 -13.5 -4t-15 -10t-14.5 -13t-11 -12l-63 -85q-6 -32 18 -44h-1l23 -29q9 -12 28 -12h82q17 0 27 9.5t19 23.5h2l4 6l24 -30q7 -9 23 -9h18q-15 -15 -19 -36l-74 -345h-136q-9 0 -17 2q0 2 0.5 5.5t1.5 8.5zM635 41
q-4 -17 -17.5 -28t-30.5 -11h-349q-39 0 -70 15t-51 40.5t-27.5 60t1.5 73.5l74 349q3 17 16.5 28t30.5 11h99q17 0 25.5 -11t5.5 -28l-62 -289q-2 -11 0 -23t8.5 -23t18 -18t29.5 -7h140q10 0 13 9l75 351q3 17 16.5 28t29.5 11h100q17 0 25.5 -11t5.5 -28zM458 654
q-8 -11 -16 -19t-20 -8h-82q-14 0 -21 9t-4 21l61 83v-1q7 8 20 19.5t19 11.5h175q6 0 13.5 -11.5t11.5 -19.5v1l26 -83q-3 -12 -14 -21t-24 -9h-82q-12 0 -16.5 8t-7.5 19l-12 37z" />
    <glyph glyph-name="Udieresis" unicode="&#xdc;" 
d="M307 697q-11 -50 25 -74l20 -24q19 -25 56 -25q28 0 54.5 17.5t39.5 44.5q7 -9 18 -15l18 -22q11 -16 30 -23q-15 -15 -19 -36l-74 -345h-136q-9 0 -17 2q0 2 0.5 5.5t1.5 8.5l61 289q5 23 -6 37l-22 27v-1q-7 31 -43 31h-99q-24 0 -42 -15t-23 -39l-74 -349
q-11 -54 2.5 -96.5t45.5 -69.5l14 -17q20 -27 53 -42.5t76 -15.5h349q23 0 40 14t22 37l106 499q5 23 -6 37l-22 27v-1q-7 31 -43 31h-64q34 22 45 63q4 17 0 33t-13 27l-19 23v-1q-8 21 -25 33.5t-40 12.5q-30 0 -58.5 -19.5t-42.5 -48.5l-2 3l-15 19v-1q-7 20 -24.5 33.5
t-41.5 13.5q-18 0 -35.5 -7t-32 -19t-24.5 -28t-14 -34zM635 41q-4 -17 -17.5 -28t-30.5 -11h-349q-39 0 -70 15t-51 40.5t-27.5 60t1.5 73.5l74 349q3 17 16.5 28t30.5 11h99q17 0 25.5 -11t5.5 -28l-62 -289q-2 -11 0 -23t8.5 -23t18 -18t29.5 -7h140q10 0 13 9l75 351
q3 17 16.5 28t29.5 11h100q17 0 25.5 -11t5.5 -28zM321 697q3 15 12 28t21 23t26.5 16t29.5 6q29 0 45.5 -22t10.5 -51q-3 -15 -11.5 -27.5t-20.5 -22.5t-26.5 -15.5t-28.5 -5.5q-29 0 -46.5 21t-11.5 50zM650 697q-3 -15 -11.5 -27.5t-20.5 -22.5t-26 -15.5t-29 -5.5
q-29 0 -46 21t-11 50q3 15 12 28t21 23t26.5 16t28.5 6q29 0 45.5 -22t10.5 -51z" />
    <glyph glyph-name="Yacute" unicode="&#xdd;" 
d="M604 746q2 9 -8 16.5t-21 7.5h-82q-6 0 -19 -11.5t-20 -19.5v1l-61 -83q-3 -12 4 -21t21 -9h82q12 0 20 8t16 19zM396 617h1q-25 13 -19 44l64 85q4 5 11 12t14.5 13t15 10t13.5 4h82q12 0 24 -8.5t15 -21.5l1 1l22 -30q8 -11 5 -23l-69 -94h-1q-9 -14 -19 -23.5
t-27 -9.5h-82q-19 0 -28 12zM342 542q3 15 -5.5 26t-25.5 11h-99q-17 0 -30.5 -11t-16.5 -28l-32 -150q-8 -39 -0.5 -73.5t27.5 -60t51 -40t70 -14.5h211l-2 -11q-3 -11 -14 -11h-349q-17 0 -30 -11t-17 -28l-21 -100q-4 -17 4.5 -28t25.5 -11h349q39 0 76.5 15t68 40.5
t53 60t31.5 73.5l74 349q3 17 -5.5 28t-25.5 11h-100q-16 0 -29.5 -11t-16.5 -28l-34 -161h-149q-12 0 -24 4t-21 13t-13 22.5t0 32.5zM166 223q-32 28 -45.5 70.5t-2.5 96.5l32 150q5 24 23 39t42 15h99q37 0 44 -31v1l21 -27q11 -17 7 -35l-20 -91q-1 -5 -1.5 -8.5
t-0.5 -6.5q8 -2 10 -2h10h134l31 146q5 24 23 39t41 15h100q36 0 43 -31v1l22 -27q11 -14 6 -37l-74 -349q-9 -42 -32.5 -78.5t-56.5 -64t-72.5 -43t-81.5 -15.5h-349q-23 0 -34 14l-22 28h1q-26 14 -19 49l21 100q5 24 23 39t42 15h60q-3 2 -5.5 5.5t-4.5 7.5z" />
    <glyph glyph-name="Thorn" unicode="&#xde;" 
d="M341 294l-11 -56q1 1 9 1h89q9 0 19 1.5t19.5 4.5t16 7.5t7.5 10.5l6 30q-2 1 -15 1h-140zM59 41q-4 -17 4.5 -28t25.5 -11h99q17 0 30.5 11t17.5 28l63 297q3 8 13 8h141q35 0 49.5 -13t11.5 -27l-9 -43q-2 -10 -11 -17t-21 -12t-25 -7.5t-23 -2.5h-89q-17 0 -30.5 -11
t-17.5 -28l-21 -99q-3 -17 5.5 -28t25.5 -11h150q38 0 75.5 15t69 40.5t53.5 59.5t30 73l21 100q8 39 0.5 73t-27.5 59.5t-51 40.5t-70 15h-211l4 16q3 17 -5.5 28t-25.5 11h-99q-17 0 -30.5 -11t-16.5 -28zM150 539q5 24 23 39t42 15h99q35 0 42 -31l1 1l20 -25h175
q51 0 89.5 -22.5t58.5 -60.5l13 -17q21 -27 29 -64t-1 -79l-22 -100q-9 -42 -32 -78.5t-56 -63.5t-72.5 -42.5t-81.5 -15.5h-150q-23 0 -34 14l-10 12l-4 -20q-5 -23 -22 -37t-40 -14h-99q-23 0 -34 14l-22 28h1q-26 14 -19 49z" />
    <glyph glyph-name="germandbls" unicode="&#xdf;" 
d="M37 -59q-3 -17 5.5 -28t25.5 -11h99q17 0 30.5 11t16.5 28l98 460h211q6 0 8 -3.5t1 -7.5t-4.5 -7.5t-8.5 -3.5h-141q-17 0 -30.5 -11t-17.5 -28l-21 -100q-4 -17 5 -28t26 -11h141q11 0 8 -11q-1 -10 -13 -10h-141q-17 0 -30 -11t-17 -28l-21 -100q-4 -17 4.5 -28
t25.5 -11h141q38 0 75.5 15t68.5 40.5t53.5 59.5t30.5 73q3 14 2.5 29t-5 29t-14.5 25.5t-25 17.5q15 6 29.5 16.5t25.5 24t19 28.5t11 30q8 39 0 73t-28 59.5t-51 40.5t-69 15h-349q-17 0 -30.5 -11t-16.5 -27zM150 540q5 23 23 38t42 15h349q51 0 89 -24t58 -62l13 -15
q21 -27 29 -63.5t-1 -78.5q-5 -26 -24 -54t-44 -44l10 -13q14 -18 17.5 -41.5t-1.5 -46.5q-9 -42 -33 -78.5t-57 -64t-73 -43t-80 -15.5h-141q-23 0 -34 14l-16 21l-18 -84q-5 -23 -22 -37t-40 -14h-99q-23 0 -34 14l-22 28h1q-26 12 -20 49z" />
    <glyph glyph-name="agrave" unicode="&#xe0;" 
d="M415 349q-33 0 -51 -18.5t-23 -36.5h155l8 34q2 8 0 19h-1q-5 1 -8 1.5t-4 0.5h-76zM418 654q3 -11 7.5 -19t16.5 -8h82q14 0 25 9t14 21l-27 83v-1q-4 8 -11.5 19.5t-13.5 11.5h-82q-11 0 -24 -7.5t-15 -16.5zM297 328q2 10 8.5 23t17 24t26.5 18.5t37 7.5h76
q18 0 30 -7t18.5 -18t8.5 -23.5t0 -24.5l-11 -49h-222zM458 41q-4 -17 4.5 -28t24.5 -11h100q17 0 30.5 11t17.5 28l74 349q8 39 0.5 73.5t-27.5 60t-51 40.5t-70 15h-200q-38 0 -75.5 -15t-69 -40.5t-53.5 -60t-30 -73.5l-74 -349q-4 -17 4.5 -28t25.5 -11h99q17 0 30.5 11
t17.5 28l13 61h222zM445 50h-155l-11 -49q-5 -23 -22 -37t-40 -14h-99q-23 0 -34 14l-22 28h1q-26 14 -19 49l74 349q9 43 32.5 80t57 64.5t74 43.5t82.5 16h77l-17 21h1q-11 4 -14.5 12.5t-6.5 19.5l-30 95q2 9 8.5 16.5t15 13.5t17.5 9.5t17 3.5h82q11 0 22 -14t15 -25v1
l16 -21q4 -5 6 -9t4 -7l30 -89q-4 -15 -16 -30q42 -5 72.5 -27t47.5 -54l14 -17q21 -27 28.5 -64t-1.5 -79l-74 -349q-5 -23 -22 -37t-40 -14h-100q-23 0 -34 14l-21 28h1q-26 14 -19 49z" />
    <glyph glyph-name="aacute" unicode="&#xe1;" 
d="M415 349q-33 0 -51 -18.5t-23 -36.5h155l8 34q2 8 0 19h-1q-5 1 -8 1.5t-4 0.5h-76zM604 746q2 9 -8 16.5t-21 7.5h-82q-6 0 -19 -11.5t-20 -19.5v1l-61 -83q-3 -12 4 -21t21 -9h82q12 0 20 8t16 19zM297 328q2 10 8.5 23t17 24t26.5 18.5t37 7.5h76q18 0 30 -7t18.5 -18
t8.5 -23.5t0 -24.5l-11 -49h-222zM458 41q-4 -17 4.5 -28t24.5 -11h100q17 0 30.5 11t17.5 28l74 349q8 39 0.5 73.5t-27.5 60t-51 40.5t-70 15h-200q-38 0 -75.5 -15t-69 -40.5t-53.5 -60t-30 -73.5l-74 -349q-4 -17 4.5 -28t25.5 -11h99q17 0 30.5 11t17.5 28l13 61h222z
M445 50h-155l-11 -49q-5 -23 -22 -37t-40 -14h-99q-23 0 -34 14l-22 28h1q-26 14 -19 49l74 349q9 43 32.5 80t57 64.5t74 43.5t82.5 16h50l-18 23h1q-25 13 -19 44l64 85q4 5 11 12t14.5 13t15 10t13.5 4h82q12 0 24 -8.5t15 -21.5l1 1l22 -30q8 -11 5 -23l-69 -94h-1
q-8 -13 -10 -15q51 -1 88.5 -23.5t57.5 -60.5l14 -17q21 -27 28.5 -64t-1.5 -79l-74 -349q-5 -23 -22 -37t-40 -14h-100q-23 0 -34 14l-21 28h1q-26 14 -19 49z" />
    <glyph glyph-name="acircumflex" unicode="&#xe2;" 
d="M497 609q-8 -13 -10 -15h33l-17 21l-4 -6h-2zM415 349q-33 0 -51 -18.5t-23 -36.5h155l8 34q2 8 0 19h-1q-5 1 -8 1.5t-4 0.5h-76zM297 328q2 10 8.5 23t17 24t26.5 18.5t37 7.5h76q18 0 30 -7t18.5 -18t8.5 -23.5t0 -24.5l-11 -49h-222zM497 654q3 -11 7.5 -19t16.5 -8
h82q13 0 24 9t14 21l-26 83v-1q-4 8 -11.5 19.5t-13.5 11.5h-175q-6 0 -19 -11.5t-20 -19.5v1l-61 -83q-3 -12 4 -21t21 -9h82q12 0 20 8t16 19l27 37zM458 41q-4 -17 4.5 -28t24.5 -11h100q17 0 30.5 11t17.5 28l74 349q8 39 0.5 73.5t-27.5 60t-51 40.5t-70 15h-200
q-38 0 -75.5 -15t-69 -40.5t-53.5 -60t-30 -73.5l-74 -349q-4 -17 4.5 -28t25.5 -11h99q17 0 30.5 11t17.5 28l13 61h222zM445 50h-155l-11 -49q-5 -23 -22 -37t-40 -14h-99q-23 0 -34 14l-22 28h1q-26 14 -19 49l74 349q8 39 29 73.5t50.5 61.5t65.5 44t74 22l-19 26h1
q-24 12 -18 44l63 85q4 5 11 12t14.5 13t15 10t13.5 4h175q11 0 22 -14t15 -25v1l15 -21q4 -5 6 -9t4 -7l30 -89q-8 -38 -45 -45q48 -22 71 -66l9 -12l5 -5q21 -27 28.5 -64t-1.5 -79l-74 -349q-5 -23 -22 -37t-40 -14h-100q-23 0 -34 14l-21 28h1q-26 14 -19 49z" />
    <glyph glyph-name="atilde" unicode="&#xe3;" 
d="M456 609q-8 -13 -10 -15h32l-16 20l-5 -5h-1zM415 349q-33 0 -51 -18.5t-23 -36.5h155l8 34q2 8 0 19h-1q-5 1 -8 1.5t-4 0.5h-76zM297 328q2 10 8.5 23t17 24t26.5 18.5t37 7.5h76q18 0 30 -7t18.5 -18t8.5 -23.5t0 -24.5l-11 -49h-222zM512 743q-3 11 -7.5 19t-16.5 8
h-114q-6 0 -19 -11.5t-20 -19.5v1l-60 -83q-3 -12 4 -21t20 -9h82q12 0 20 8t16 19l27 37l12 -37q3 -11 7.5 -19t15.5 -8h115q6 0 19 11.5t19 19.5v-1l61 83q3 12 -4 21t-21 9h-81q-12 0 -20 -8t-16 -19l-27 -37zM458 41q-4 -17 4.5 -28t24.5 -11h100q17 0 30.5 11t17.5 28
l74 349q8 39 0.5 73.5t-27.5 60t-51 40.5t-70 15h-200q-38 0 -75.5 -15t-69 -40.5t-53.5 -60t-30 -73.5l-74 -349q-4 -17 4.5 -28t25.5 -11h99q17 0 30.5 11t17.5 28l13 61h222zM445 50h-155l-11 -49q-5 -23 -22 -37t-40 -14h-99q-23 0 -34 14l-22 28h1q-26 14 -19 49
l74 349q7 34 24 65.5t41.5 57t54.5 44t63 27.5q-1 1 -1 5v-1l-22 29h1q-25 13 -19 44l64 85q4 5 10.5 12t14 13t15 10t13.5 4h114q16 0 22.5 -7.5t9.5 -19.5v1l11 -14l4 4v-1q11 15 21.5 26t30.5 11h81q15 0 23.5 -8t12.5 -20v1l23 -28l1 -1q4 -6 5.5 -14.5t-0.5 -17.5
l-67 -88q-5 -7 -15 -15.5t-19 -13.5q51 -22 76 -70l14 -17q21 -27 28.5 -64t-1.5 -79l-74 -349q-5 -23 -22 -37t-40 -14h-100q-23 0 -34 14l-21 28h1q-26 14 -19 49z" />
    <glyph glyph-name="adieresis" unicode="&#xe4;" 
d="M307 697q-11 -50 25 -74l20 -24q2 -4 3 -5q-41 -2 -80 -18.5t-71 -44t-54.5 -63.5t-31.5 -78l-74 -349q-7 -35 19 -49h-1l22 -28q11 -14 34 -14h99q23 0 40 14t22 37l11 49h155l-2 -9q-7 -35 19 -49h-1l21 -28q11 -14 34 -14h100q23 0 40 14t22 37l74 349q9 42 1.5 79
t-28.5 64l-14 17q-14 24 -34 42.5t-48 29.5q23 10 41.5 31t23.5 44q4 17 0 32.5t-12 26.5l-20 24v-1q-8 21 -25 33.5t-40 12.5q-30 0 -58.5 -19.5t-42.5 -48.5l-2 3l-15 19v-1q-7 20 -24.5 33.5t-41.5 13.5q-18 0 -35.5 -7t-32 -19t-24.5 -28t-14 -34zM249 102l-13 -61
q-4 -17 -17.5 -28t-30.5 -11h-99q-17 0 -25.5 11t-4.5 28l74 349q8 39 30 73.5t53.5 60t69 40.5t75.5 15h200q39 0 70 -15t51 -40.5t27.5 -60t-0.5 -73.5l-74 -349q-4 -17 -17.5 -28t-30.5 -11h-100q-16 0 -24.5 11t-4.5 28l13 61h-222zM508 279l11 49q2 12 0 24.5
t-8.5 23.5t-18.5 18t-30 7h-76q-21 0 -37 -7.5t-26.5 -18.5t-17 -24t-8.5 -23l-11 -49h222zM321 697q3 15 12 28t21 23t26.5 16t29.5 6q29 0 45.5 -22t10.5 -51q-3 -15 -11.5 -27.5t-20.5 -22.5t-26.5 -15.5t-28.5 -5.5q-29 0 -46.5 21t-11.5 50zM650 697
q-3 -15 -11.5 -27.5t-20.5 -22.5t-26 -15.5t-29 -5.5q-29 0 -46 21t-11 50q3 15 12 28t21 23t26.5 16t28.5 6q29 0 45.5 -22t10.5 -51zM415 349h76q1 0 4 -0.5t8 -1.5h1q2 -11 0 -19l-8 -34h-155q5 18 23 36.5t51 18.5zM538 599q2 -4 3 -5h-75q11 8 21 18.5t15 22.5
q5 -5 9.5 -8.5t8.5 -5.5z" />
    <glyph glyph-name="aring" unicode="&#xe5;" 
d="M462 697q2 9 10.5 15.5t18.5 6.5t15 -6.5t3 -15.5q-2 -10 -10 -16t-18 -6t-15.5 6t-3.5 16zM415 349q-33 0 -51 -18.5t-23 -36.5h155l8 34q2 8 0 19h-1q-5 1 -8 1.5t-4 0.5h-76zM414 697q-6 -29 11.5 -50t46.5 -21q14 0 28.5 5.5t26.5 15.5t20.5 22.5t11.5 27.5
q6 29 -10.5 51t-45.5 22q-15 0 -29.5 -6t-26.5 -16t-21 -23t-12 -28zM297 328q2 10 8.5 23t17 24t26.5 18.5t37 7.5h76q18 0 30 -7t18.5 -18t8.5 -23.5t0 -24.5l-11 -49h-222zM458 41q-4 -17 4.5 -28t24.5 -11h100q17 0 30.5 11t17.5 28l74 349q8 39 0.5 73.5t-27.5 60
t-51 40.5t-70 15h-200q-38 0 -75.5 -15t-69 -40.5t-53.5 -60t-30 -73.5l-74 -349q-4 -17 4.5 -28t25.5 -11h99q17 0 30.5 11t17.5 28l13 61h222zM399 697q4 18 14.5 34t25 28t32 19t35.5 7q24 0 41.5 -13.5t24.5 -33.5v1l15 -19l3 -3q9 -11 13 -26.5t0 -33.5
q-11 -41 -45 -63h6q51 0 89 -23t58 -61l14 -17q21 -27 28.5 -64t-1.5 -79l-74 -349q-5 -23 -22 -37t-40 -14h-100q-23 0 -34 14l-21 28h1q-26 14 -19 49l2 9h-155l-11 -49q-5 -23 -22 -37t-40 -14h-99q-23 0 -34 14l-22 28h1q-26 14 -19 49l74 349q9 43 32.5 80t57 64.5
t74 43.5t82.5 16h84q-1 1 -3 5l-20 24q-17 11 -24 30.5t-2 43.5z" />
    <glyph glyph-name="ae" unicode="&#xe6;" horiz-adv-x="1135" 
d="M415 349q-33 0 -50.5 -18.5t-22.5 -36.5h154l8 34q2 8 0 19h-1q-5 1 -8 1.5t-4 0.5h-76zM298 328q2 10 8.5 23t17 24t26 18.5t36.5 7.5h76q18 0 30 -7t18.5 -18t8.5 -23.5t0 -24.5l-11 -49h-221zM458 41q-4 -17 4.5 -28t25.5 -11h100q20 0 35 17q19 -8 37.5 -12.5
t38.5 -4.5h349q17 0 30.5 11t17.5 28l21 100q3 16 -5.5 27t-25.5 11h-349q-9 0 -9 11l2 11h361q17 0 30 11t17 28l21 100q4 17 -4.5 28t-25.5 11h-360l2 11q3 11 13 11h349q17 0 30.5 11t17.5 28l21 99q3 17 -5.5 28t-25.5 11h-349q-38 0 -74 -14t-68 -39q-22 25 -51.5 39
t-67.5 14h-199q-39 0 -76.5 -15t-69 -40.5t-53.5 -59.5t-30 -73l-74 -349q-4 -17 4.5 -28t25.5 -11h100q17 0 30.5 11t17.5 28l13 61h221zM445 50h-154l-11 -49q-5 -23 -22 -37t-40 -14h-100q-23 0 -34 14l-22 28h1q-26 14 -19 49l74 349q9 42 32.5 79t57 64.5t74 43.5
t83.5 16h199q37 0 66.5 -13t53.5 -35q32 22 67.5 35t73.5 13h349q35 0 42 -31l1 1l22 -27q11 -14 6 -37l-21 -99q-7 -36 -40 -48l13 -15q11 -14 6 -37l-21 -100q-8 -34 -40 -47l12 -15q12 -15 6 -37l-21 -100q-5 -23 -22 -37t-40 -14h-349q-39 0 -72 15q-20 -15 -39 -15
h-100q-23 0 -34 14l-22 28h1q-26 14 -19 49z" />
    <glyph glyph-name="ccedilla" unicode="&#xe7;" 
d="M587 2q17 0 30.5 11t17.5 28l21 100q4 17 -5 28t-26 11h-287q-28 0 -46.5 19t-11.5 52l17 77q2 10 8 22.5t17 24t26.5 19t36.5 7.5h287q17 0 30.5 11t17.5 28l21 100q3 16 -5.5 27t-25.5 11h-349q-38 0 -75.5 -15t-69 -40.5t-53.5 -59.5t-30 -73l-43 -200
q-8 -39 -0.5 -73t27.5 -59.5t51 -40.5t70 -15h32l-12 -58q-4 -17 5 -28t26 -11h100q17 0 30 11t17 28l12 58h139zM324 211q-1 -5 -1.5 -8t-0.5 -7q8 -2 9 -2h10h287q37 0 43 -30v1l22 -27q12 -15 6 -37l-21 -100q-5 -23 -22 -37t-40 -14h-128l-9 -46q-5 -23 -21.5 -37
t-39.5 -14h-100q-23 0 -34 14l-22 28h1q-27 12 -20 49l2 8q-36 4 -63 18.5t-44 37.5l-14 17q-32 27 -46 70t-3 95l43 200q9 43 32.5 80t57 64.5t74 43t82.5 15.5h349q35 0 42 -31l1 1l22 -26q11 -14 6 -37l-21 -100q-5 -23 -22 -37t-40 -14h-287q-17 0 -30 -6.5t-22 -15.5
t-14.5 -19.5t-7.5 -19.5z" />
    <glyph glyph-name="egrave" unicode="&#xe8;" 
d="M446 654q3 -11 7.5 -19t16.5 -8h82q14 0 25 9t14 21l-27 83v-1q-4 8 -11.5 19.5t-13.5 11.5h-82q-11 0 -24 -7.5t-15 -16.5zM587 2q17 0 30.5 11t17.5 28l21 100q4 17 -5 28t-26 11h-349q-10 0 -8 11l1 11h361q17 0 30 10.5t17 27.5l21 100q4 17 -4.5 28t-25.5 11h-360
l2 11q3 11 13 11h349q17 0 30.5 11t17.5 28l21 100q3 17 -5.5 28t-25.5 11h-349q-38 0 -75.5 -15t-69 -40.5t-53.5 -60t-30 -73.5l-42 -199q-9 -39 -1.5 -73.5t27.5 -60t51 -40.5t70 -15h349zM595 726q4 -5 6 -9t4 -7l29 -89q-3 -16 -14 -27h93q36 0 43 -31v1l22 -27
q11 -14 6 -37l-21 -100q-7 -36 -40 -48l13 -15q11 -14 6 -37l-21 -99q-8 -35 -40 -48l12 -15q12 -15 6 -37l-21 -100q-5 -23 -22 -37t-40 -14h-349q-43 0 -76 15.5t-53 42.5l-14 17q-32 27 -45.5 69.5t-2.5 96.5l42 199q9 43 32.5 80t57 64.5t74 43.5t82.5 16h105l-17 21h1
q-11 4 -14.5 12.5t-6.5 19.5l-30 95q2 9 8.5 16.5t15 13.5t17.5 9.5t17 3.5h82q11 0 22 -14t15 -25v1z" />
    <glyph glyph-name="eacute" unicode="&#xe9;" 
d="M639 746q2 9 -8 16.5t-21 7.5h-82q-6 0 -19 -11.5t-20 -19.5v1l-61 -83q-3 -12 4 -21t21 -9h82q12 0 20 8t16 19zM587 2q17 0 30.5 11t17.5 28l21 100q4 17 -5 28t-26 11h-349q-10 0 -8 11l1 11h361q17 0 30 10.5t17 27.5l21 100q4 17 -4.5 28t-25.5 11h-360l2 11
q3 11 13 11h349q17 0 30.5 11t17.5 28l21 100q3 17 -5.5 28t-25.5 11h-349q-38 0 -75.5 -15t-69 -40.5t-53.5 -60t-30 -73.5l-42 -199q-9 -39 -1.5 -73.5t27.5 -60t51 -40.5t70 -15h349zM124 25q-32 27 -45.5 69.5t-2.5 96.5l42 199q9 43 32.5 80t57 64.5t74 43.5t82.5 16
h85l-18 23h1q-25 13 -19 44l64 85q4 5 11 12t14.5 13t15 10t13.5 4h82q12 0 24 -8.5t14 -21.5l1 1l23 -30q8 -11 5 -23l-69 -94h-1q-8 -13 -10 -15h113q36 0 43 -31v1l22 -27q11 -14 6 -37l-21 -100q-7 -36 -40 -48l13 -15q11 -14 6 -37l-21 -99q-8 -35 -40 -48l12 -15
q12 -15 6 -37l-21 -100q-5 -23 -22 -37t-40 -14h-349q-43 0 -76 15.5t-53 42.5z" />
    <glyph glyph-name="ecircumflex" unicode="&#xea;" 
d="M528 609q-8 -13 -10 -15h33l-17 21l-4 -6h-2zM528 654q3 -11 7.5 -19t16.5 -8h81q14 0 25 9t14 21l-27 83v-1q-3 8 -10.5 19.5t-13.5 11.5h-175q-6 0 -19 -11.5t-20 -19.5v1l-61 -83q-3 -12 4 -21t21 -9h82q12 0 20 8t16 19l27 37zM587 2q17 0 30.5 11t17.5 28l21 100
q4 17 -5 28t-26 11h-349q-10 0 -8 11l1 11h361q17 0 30 10.5t17 27.5l21 100q4 17 -4.5 28t-25.5 11h-360l2 11q3 11 13 11h349q17 0 30.5 11t17.5 28l21 100q3 17 -5.5 28t-25.5 11h-349q-38 0 -75.5 -15t-69 -40.5t-53.5 -60t-30 -73.5l-42 -199q-9 -39 -1.5 -73.5
t27.5 -60t51 -40.5t70 -15h349zM124 25q-32 27 -45.5 69.5t-2.5 96.5l42 199q9 43 32.5 80t57 64.5t74 43.5t82.5 16h3l-18 23h1q-25 13 -19 44l64 85q4 5 11 12t14.5 13t15 10t13.5 4h175q11 0 21.5 -14t14.5 -25v1l16 -21q4 -5 6 -9t4 -7l30 -89q-3 -16 -14 -27h11
q36 0 43 -31v1l22 -27q11 -14 6 -37l-21 -100q-7 -36 -40 -48l13 -15q11 -14 6 -37l-21 -99q-8 -35 -40 -48l12 -15q12 -15 6 -37l-21 -100q-5 -23 -22 -37t-40 -14h-349q-43 0 -76 15.5t-53 42.5z" />
    <glyph glyph-name="edieresis" unicode="&#xeb;" 
d="M338 697q-5 -24 2 -43.5t24 -30.5l20 -24q2 -4 3 -5h-23q-42 0 -82.5 -16t-74 -43.5t-57 -64.5t-32.5 -80l-42 -199q-11 -54 2.5 -96.5t45.5 -69.5l14 -17q20 -27 53 -42.5t76 -15.5h349q23 0 40 14t22 37l21 100q6 22 -6 37l-12 15q32 13 40 48l21 99q5 23 -6 37l-13 15
q33 12 40 48l21 100q5 23 -6 37l-22 27v-1q-7 31 -43 31h-32q34 22 45 63q4 17 0 33t-13 27l-3 3l-15 19v-1q-7 20 -24.5 33.5t-41.5 13.5q-30 0 -58.5 -19.5t-42.5 -48.5l-18 23v-1q-8 21 -25 33.5t-40 12.5q-18 0 -35.5 -7t-32 -19t-25 -28t-14.5 -34zM238 2q-39 0 -70 15
t-51 40.5t-27.5 60t1.5 73.5l42 199q8 39 30 73.5t53.5 60t69 40.5t75.5 15h349q17 0 25.5 -11t5.5 -28l-21 -100q-4 -17 -17.5 -28t-30.5 -11h-349q-10 0 -13 -11l-2 -11h360q17 0 25.5 -11t4.5 -28l-21 -100q-4 -17 -17 -27.5t-30 -10.5h-361l-1 -11q-2 -11 8 -11h349
q17 0 26 -11t5 -28l-21 -100q-4 -17 -17.5 -28t-30.5 -11h-349zM353 697q3 15 12 28t21 23t26.5 16t29.5 6q29 0 45.5 -22t10.5 -51q-3 -15 -11.5 -27.5t-20.5 -22.5t-26.5 -15.5t-28.5 -5.5q-29 0 -46.5 21t-11.5 50zM682 697q-3 -15 -11.5 -27.5t-20.5 -22.5t-26.5 -15.5
t-28.5 -5.5q-29 0 -46 21t-11 50q3 15 12 28t21 23t26.5 16t28.5 6q29 0 45.5 -22t10.5 -51zM570 599q2 -4 3 -5h-75q11 8 21 18.5t15 22.5q5 -5 9.5 -8.5t8.5 -5.5z" />
    <glyph glyph-name="igrave" unicode="&#xec;" horiz-adv-x="274" 
d="M227 654q3 -11 7.5 -19t16.5 -8h81q14 0 25 9t14 21l-26 83v-1q-4 8 -11.5 19.5t-13.5 11.5h-82q-11 0 -23.5 -7.5t-14.5 -16.5zM341 540q3 17 -5.5 28t-24.5 11h-100q-16 0 -29.5 -11t-16.5 -28l-106 -499q-4 -17 4.5 -28t24.5 -11h100q16 0 29.5 11t17.5 28zM375 726
q4 -5 6 -9t4 -7l30 -89q-4 -19 -19 -32t-35 -13h-11q2 -3 3 -6t3 -7v1l22 -27q11 -14 6 -37l-106 -499q-5 -23 -22 -37t-40 -14h-99q-23 0 -34 14l-21 28h1q-26 14 -19 49l106 499q5 24 23 39t41 15h36l-17 21h1q-11 5 -15 14t-7 20l-28 93q2 9 8.5 16.5t15 13.5t17.5 9.5
t16 3.5h82q11 0 22 -14t14 -25v1z" />
    <glyph glyph-name="iacute" unicode="&#xed;" horiz-adv-x="274" 
d="M363 604l-1 -1v1q1 0 2 1zM394 746q2 9 -8 16.5t-21 7.5h-81q-6 0 -19 -11.5t-20 -19.5v1l-60 -83q-3 -12 4 -21t20 -9h82q12 0 20 8t16 19zM59 41q-4 -17 4.5 -28t24.5 -11h100q16 0 29.5 11t17.5 28l106 499q3 17 -5.5 28t-24.5 11h-100q-16 0 -29.5 -11t-16.5 -28z
M150 540q5 22 20 36t35 17l-17 24h1q-25 13 -19 44l63 85q4 5 11 12t14.5 13t15 10t13.5 4h81q12 0 24 -8.5t15 -21.5l1 1l24 -31q7 -10 4 -22l-70 -94h-1q-1 -2 -2 -3.5l-1 -1.5q-5 -7 -9 -12t-9 -8q9 -8 12 -21v1l22 -27q11 -14 6 -37l-106 -499q-5 -23 -22 -37t-40 -14
h-99q-23 0 -34 14l-21 28h1q-26 14 -19 49z" />
    <glyph glyph-name="icircumflex" unicode="&#xee;" horiz-adv-x="275" 
d="M297 609q-8 -13 -10 -15h27h4l-15 21l-4 -6h-2zM297 654q3 -11 7.5 -19t16.5 -8h82q14 0 24.5 9t13.5 21l-26 83v-1q-4 8 -11.5 19.5t-13.5 11.5h-174q-6 0 -19 -11.5t-20 -19.5v1l-61 -83q-3 -12 4 -21t21 -9h82q11 0 19 8t16 19l27 37zM59 41q-4 -17 4.5 -28t25.5 -11
h99q17 0 30.5 11t17.5 28l106 499q3 17 -5.5 28t-25.5 11h-99q-17 0 -30.5 -11t-16.5 -28zM150 540q4 21 19 36q-18 0 -27 12l-23 29h1q-11 5 -16.5 16.5t-2.5 27.5l64 85q4 5 11 12t14.5 13t15 10t13.5 4h174q11 0 22 -14t15 -25v1l16 -21q4 -5 5.5 -9t3.5 -7l30 -89
q-4 -19 -19 -32t-35 -13h-80q2 -3 3 -6t3 -7v1l22 -27q11 -14 6 -37l-106 -499q-5 -23 -22 -37t-40 -14h-100q-22 0 -33 14l-22 28h1q-26 14 -19 49z" />
    <glyph glyph-name="idieresis" unicode="&#xef;" horiz-adv-x="275" 
d="M108 697q-5 -24 2.5 -43.5t24.5 -30.5l19 -24q7 -11 21 -18q-21 -16 -25 -41l-106 -499q-7 -35 19 -49h-1l22 -28q11 -14 33 -14h100q23 0 40 14t22 37l106 499q5 23 -6 37l-22 27v-1q-7 31 -43 31h-47q11 8 21 18.5t15 22.5q5 -5 9.5 -8.5t8.5 -5.5l18 -22q9 -11 23 -18
t31 -7q26 0 49.5 14t38.5 37q16 24 15.5 48.5t-13.5 42.5l-20 24v-1q-7 21 -24.5 33.5t-40.5 12.5q-30 0 -58.5 -19.5t-42.5 -48.5l-18 23v-1q-8 21 -24.5 33.5t-39.5 12.5q-18 0 -35.5 -7t-32 -19t-25 -28t-14.5 -34zM165 540q3 17 16.5 28t30.5 11h99q17 0 25.5 -11
t5.5 -28l-106 -499q-4 -17 -17.5 -28t-30.5 -11h-99q-17 0 -25.5 11t-4.5 28zM123 697q3 15 12 28t21 23t26.5 16t29.5 6q29 0 45 -22t10 -51q-3 -15 -11.5 -27.5t-20.5 -22.5t-26 -15.5t-28 -5.5q-29 0 -46.5 21t-11.5 50zM451 697q-3 -15 -11.5 -27.5t-20.5 -22.5
t-26 -15.5t-29 -5.5q-29 0 -46 21t-11 50q3 15 12 28t21 23t26.5 16t28.5 6q29 0 45.5 -22t10.5 -51z" />
    <glyph glyph-name="eth" unicode="&#xf0;" 
d="M75 190q-11 -54 4 -97t49 -71l11 -13q20 -27 53 -43t75 -16h200q42 0 81.5 15.5t72.5 43t56.5 64t32.5 78.5l42 199q9 42 1.5 79t-28.5 63l-14 17q-20 38 -58 61t-89 23h-349q-24 0 -42 -15t-23 -39l-21 -99q-9 -37 19 -50h-1l22 -27q4 -10 17 -13q-42 -29 -71 -70
t-40 -90zM174 401q-17 0 -25.5 11t-4.5 28l21 99q3 17 16.5 28t30.5 11h349q39 0 70 -15t51 -40.5t27.5 -59.5t-0.5 -73l-43 -200q-8 -39 -30 -73t-53.5 -59.5t-69 -40.5t-75.5 -15h-200q-38 0 -69 15t-51 40.5t-28 59.5t0 73t30.5 73t54 60t69 41t75.5 15h211q-3 20 -23 22
h-333zM281 201q-11 0 -14 -11q-2 -11 9 -11h183q8 0 18 6.5t15 15.5h-211z" />
    <glyph glyph-name="ntilde" unicode="&#xf1;" 
d="M447 609q-8 -13 -10 -15h32l-16 20l-5 -5h-1zM503 743q-3 11 -7.5 19t-16.5 8h-114q-6 0 -19 -11.5t-20 -19.5v1l-60 -83q-3 -12 4 -21t21 -9h81q12 0 20 8t16 19l27 37l12 -37q3 -11 7.5 -19t15.5 -8h115q6 0 19 11.5t20 19.5v-1l60 83q3 12 -4 21t-21 9h-81
q-12 0 -20 -8t-16 -19l-27 -37zM59 41q-4 -17 4.5 -28t25.5 -11h99q17 0 30.5 11t17.5 28l74 351q4 9 13 9h140q17 0 29 -7.5t18.5 -18t8.5 -23.5t0 -23l-61 -288q-4 -17 4.5 -28t24.5 -11h100q17 0 30.5 11t17.5 28l74 349q8 39 0.5 73.5t-27.5 60t-51 40.5t-70 15h-349
q-17 0 -30.5 -11t-16.5 -28zM150 540q5 24 23 39t42 15h72l-18 23h1q-25 13 -19 44l64 85q4 5 10.5 12t14 13t15 10t13.5 4h114q15 0 22 -7.5t10 -18.5l1 1l10 -15l4 4v-1q11 15 21.5 26t30.5 11h81q15 0 23.5 -8t12.5 -20v1l23 -28q10 -14 6 -33l-68 -89l-13 -13t-16 -13
q55 -23 81 -72l14 -17q21 -27 28.5 -64t-1.5 -79l-74 -349q-5 -23 -22 -37t-40 -14h-100q-23 0 -34 14l-21 28h1q-26 14 -19 49l61 288q1 7 0 18q-3 1 -5.5 1.5t-6.5 0.5h-139l-74 -348q-5 -23 -22 -37t-40 -14h-99q-23 0 -34 14l-22 28h1q-26 14 -19 49z" />
    <glyph glyph-name="ograve" unicode="&#xf2;" 
d="M418 654q3 -11 7.5 -19t16.5 -8h82q14 0 25 9t14 21l-27 83v-1q-4 8 -11.5 19.5t-13.5 11.5h-82q-11 0 -24 -7.5t-15 -16.5zM418 195q23 0 44 16.5t26 40.5l16 76q1 5 0.5 9.5t-0.5 9.5h-1q-5 1 -8 1.5t-4 0.5h-77q-26 0 -47.5 -17.5t-26.5 -43.5l-16 -76q-1 -4 -2 -7.5
t0 -7.5q8 -2 9 -2h10h77zM338 180q-32 0 -48 20t-9 52l16 76q7 32 31.5 52.5t56.5 20.5h77q30 0 47 -20.5t10 -52.5l-16 -76q-7 -32 -32.5 -52t-55.5 -20h-77zM438 2q39 0 76.5 15t68 40.5t53 60t31.5 73.5l42 199q8 39 0.5 73.5t-27.5 60t-51 40.5t-70 15h-200
q-38 0 -75.5 -15t-69 -40.5t-53.5 -60t-30 -73.5l-42 -199q-9 -39 -1.5 -73.5t27.5 -60t51 -40.5t70 -15h200zM374 742q2 9 8.5 16.5t15 13.5t17.5 9.5t17 3.5h82q11 0 22 -14t15 -25v1l16 -21q4 -5 6 -9t4 -7l30 -89q-4 -15 -16 -30q42 -5 72.5 -27t47.5 -54l9 -12l5 -5
q21 -27 28.5 -64t-1.5 -79l-42 -199q-9 -42 -32.5 -78.5t-56.5 -64t-72.5 -43t-81.5 -15.5h-200q-43 0 -76 15.5t-53 42.5l-14 17q-32 27 -45.5 69.5t-2.5 96.5l42 199q9 43 32.5 80t57 64.5t74 43.5t82.5 16h77l-17 21h1q-11 4 -14.5 12.5t-6.5 19.5z" />
    <glyph glyph-name="oacute" unicode="&#xf3;" 
d="M604 746q2 9 -8 16.5t-21 7.5h-82q-6 0 -19 -11.5t-20 -19.5v1l-61 -83q-3 -12 4 -21t21 -9h82q12 0 20 8t16 19zM417 195q24 0 45 16.5t26 40.5l16 76q1 2 1 9v10h-2q-4 1 -7 1.5t-6 0.5h-77q-25 0 -46.5 -17.5t-26.5 -43.5l-16 -76q-1 -5 -1.5 -9t-0.5 -6q8 -2 18 -2
h77zM337 180q-30 0 -46.5 20t-9.5 52l16 76q7 32 32 52.5t55 20.5h77q32 0 48.5 -20.5t9.5 -52.5l-16 -76q-7 -32 -32 -52t-57 -20h-77zM438 2q39 0 76.5 15t68 40.5t53 60t31.5 73.5l42 199q8 39 0.5 73.5t-27.5 60t-51 40.5t-70 15h-200q-38 0 -75.5 -15t-69 -40.5
t-53.5 -60t-30 -73.5l-42 -199q-9 -39 -1.5 -73.5t27.5 -60t51 -40.5t70 -15h200zM575 609q-8 -13 -10 -15q51 -1 88.5 -23.5t57.5 -60.5l14 -17q21 -27 28.5 -64t-1.5 -79l-42 -199q-9 -42 -32.5 -78.5t-56.5 -64t-72.5 -43t-81.5 -15.5h-200q-43 0 -76 15.5t-53 42.5
l-14 17q-32 27 -45.5 69.5t-2.5 96.5l42 199q9 43 32.5 80t57 64.5t74 43.5t82.5 16h50l-18 23h1q-25 13 -19 44l64 85q4 5 11 12t14.5 13t15 10t13.5 4h82q12 0 24 -8.5t15 -21.5l1 1l22 -30q8 -11 5 -23l-69 -94h-1z" />
    <glyph glyph-name="ocircumflex" unicode="&#xf4;" 
d="M497 609q-8 -13 -10 -15h33l-17 21l-4 -6h-2zM418 195q23 0 44 16.5t26 40.5l16 76q1 5 0.5 9.5t-0.5 9.5h-1q-5 1 -8 1.5t-4 0.5h-77q-26 0 -47.5 -17.5t-26.5 -43.5l-16 -76q-1 -4 -2 -7.5t0 -7.5q8 -2 9 -2h10h77zM497 654q3 -11 7.5 -19t16.5 -8h82q13 0 24 9t14 21
l-26 83v-1q-4 8 -11.5 19.5t-13.5 11.5h-175q-6 0 -19 -11.5t-20 -19.5v1l-61 -83q-3 -12 4 -21t21 -9h82q12 0 20 8t16 19l27 37zM338 180q-32 0 -48 20t-9 52l16 76q7 32 31.5 52.5t56.5 20.5h77q30 0 47 -20.5t10 -52.5l-16 -76q-7 -32 -32.5 -52t-55.5 -20h-77zM438 2
q39 0 76.5 15t68 40.5t53 60t31.5 73.5l42 199q8 39 0.5 73.5t-27.5 60t-51 40.5t-70 15h-200q-38 0 -75.5 -15t-69 -40.5t-53.5 -60t-30 -73.5l-42 -199q-9 -39 -1.5 -73.5t27.5 -60t51 -40.5t70 -15h200zM124 25q-32 27 -45.5 69.5t-2.5 96.5l42 199q8 39 29 73.5
t50.5 61.5t65.5 44t74 22l-19 26h1q-24 12 -18 44l63 85q4 5 11 12t14.5 13t15 10t13.5 4h175q11 0 22 -14t15 -25v1l15 -21q4 -5 6 -9t4 -7l30 -89q-8 -38 -45 -45q48 -22 71 -66l9 -12l5 -5q21 -27 28.5 -64t-1.5 -79l-42 -199q-9 -42 -32.5 -78.5t-56.5 -64t-72.5 -43
t-81.5 -15.5h-200q-43 0 -76 15.5t-53 42.5z" />
    <glyph glyph-name="otilde" unicode="&#xf5;" 
d="M456 609q-8 -13 -10 -15h32l-16 20l-5 -5h-1zM418 195q23 0 44 16.5t26 40.5l16 76q1 5 0.5 9.5t-0.5 9.5h-1q-5 1 -8 1.5t-4 0.5h-77q-26 0 -47.5 -17.5t-26.5 -43.5l-16 -76q-1 -4 -2 -7.5t0 -7.5q8 -2 9 -2h10h77zM338 180q-32 0 -48 20t-9 52l16 76q7 32 31.5 52.5
t56.5 20.5h77q30 0 47 -20.5t10 -52.5l-16 -76q-7 -32 -32.5 -52t-55.5 -20h-77zM512 743q-3 11 -7.5 19t-16.5 8h-114q-6 0 -19 -11.5t-20 -19.5v1l-60 -83q-3 -12 4 -21t20 -9h82q12 0 20 8t16 19l27 37l12 -37q3 -11 7.5 -19t15.5 -8h115q6 0 19 11.5t19 19.5v-1l61 83
q3 12 -4 21t-21 9h-81q-12 0 -20 -8t-16 -19l-27 -37zM438 2q39 0 76.5 15t68 40.5t53 60t31.5 73.5l42 199q8 39 0.5 73.5t-27.5 60t-51 40.5t-70 15h-200q-38 0 -75.5 -15t-69 -40.5t-53.5 -60t-30 -73.5l-42 -199q-9 -39 -1.5 -73.5t27.5 -60t51 -40.5t70 -15h200z
M278 617h1q-25 13 -19 44l64 85q4 5 10.5 12t14 13t15 10t13.5 4h114q15 0 22 -7.5t10 -18.5l1 1l10 -15l4 4v-1q11 15 21.5 26t30.5 11h81q15 0 23.5 -8t12.5 -20v1l23 -28q10 -14 6 -33l-67 -88q-5 -7 -15 -15.5t-19 -13.5q51 -22 76 -70l14 -17q21 -27 28.5 -64t-1.5 -79
l-42 -199q-9 -42 -32.5 -78.5t-56.5 -64t-72.5 -43t-81.5 -15.5h-200q-43 0 -76 15.5t-53 42.5l-14 17q-32 27 -45.5 69.5t-2.5 96.5l42 199q7 34 24 65.5t41.5 57t54.5 44t63 27.5q-1 1 -1 5v-1z" />
    <glyph glyph-name="odieresis" unicode="&#xf6;" 
d="M307 697q-11 -50 25 -74l20 -24q2 -4 3 -5q-41 -2 -80 -18.5t-71 -44t-54.5 -63.5t-31.5 -78l-42 -199q-11 -54 2.5 -96.5t45.5 -69.5l14 -17q20 -27 53 -42.5t76 -15.5h200q42 0 81.5 15.5t72.5 43t56.5 64t32.5 78.5l42 199q9 42 1.5 79t-28.5 64l-14 17
q-14 24 -34 42.5t-48 29.5q23 10 41.5 31t23.5 44q4 17 0 33t-13 27l-19 23v-1q-8 21 -25 33.5t-40 12.5q-30 0 -58.5 -19.5t-42.5 -48.5l-18 23v-1q-8 21 -25 33.5t-40 12.5q-18 0 -35.5 -7t-32 -19t-24.5 -28t-14 -34zM238 2q-39 0 -70 15t-51 40.5t-27.5 60t1.5 73.5
l42 199q8 39 30 73.5t53.5 60t69 40.5t75.5 15h200q39 0 70 -15t51 -40.5t27.5 -60t-0.5 -73.5l-42 -199q-9 -39 -31.5 -73.5t-53 -60t-68 -40.5t-76.5 -15h-200zM415 180q30 0 55.5 20t32.5 52l16 76q7 32 -10 52.5t-47 20.5h-77q-32 0 -56.5 -20.5t-31.5 -52.5l-16 -76
q-7 -32 9 -52t48 -20h77zM341 195h-10q-1 0 -9 2q-1 4 0 7.5t2 7.5l16 76q5 26 26.5 43.5t47.5 17.5h77q1 0 4 -0.5t8 -1.5h1q0 -5 0.5 -9.5t-0.5 -9.5l-16 -76q-5 -24 -26 -40.5t-44 -16.5h-77zM321 697q3 15 12 28t21 23t26.5 16t29.5 6q29 0 45.5 -22t10.5 -51
q-3 -15 -11.5 -27.5t-20.5 -22.5t-26.5 -15.5t-28.5 -5.5q-29 0 -46.5 21t-11.5 50zM650 697q-3 -15 -11.5 -27.5t-20.5 -22.5t-26 -15.5t-29 -5.5q-29 0 -46 21t-11 50q3 15 12 28t21 23t26.5 16t28.5 6q29 0 45.5 -22t10.5 -51zM538 599q2 -4 3 -5h-75q11 8 21 18.5
t15 22.5q5 -5 9.5 -8.5t8.5 -5.5z" />
    <glyph glyph-name="divide" unicode="&#xf7;" 
d="M258 41q-4 -17 4.5 -28t25.5 -11h100q17 0 30.5 11t17.5 28l21 100q3 16 -5.5 27t-25.5 11h-100q-17 0 -30.5 -11t-16.5 -27zM343 440q-4 -17 4.5 -28t25.5 -11h100q17 0 30.5 11t17.5 28l21 99q3 17 -5.5 28t-25.5 11h-100q-17 0 -30.5 -11t-16.5 -28zM101 240
q-4 -17 5 -28t26 -11h498q17 0 30 11t17 28l21 100q4 17 -4.5 28t-25.5 11h-498q-17 0 -30.5 -11t-17.5 -28zM349 539q5 24 23 39t42 15h100q35 0 42 -31l1 1l22 -27q11 -14 6 -37l-21 -99q0 -2 -1 -2.5t-1 -1.5v-2h109q35 0 42 -31v1l23 -27q11 -14 6 -37l-21 -100
q-5 -23 -22 -36.5t-40 -13.5h-174l9 -12q12 -15 6 -37l-21 -100q-5 -23 -22 -37t-40 -14h-100q-23 0 -34 14l-22 28h1q-26 14 -19 49l23 109h-105q-24 0 -34 13l-23 27h1q-26 14 -19 50l21 100q5 24 23.5 39t42.5 15h169q-22 10 -14 46z" />
    <glyph glyph-name="oslash" unicode="&#xf8;" 
d="M519 360q1 -8 1.5 -16t-1.5 -16l-16 -76q-7 -32 -32.5 -52t-55.5 -21l102 181h2zM282 213q-7 16 -1 39l16 76q7 32 32 52.5t57 20.5zM438 2q38 0 75.5 15t69 40.5t53.5 59.5t30 73l43 200q8 39 0.5 73t-27.5 59.5t-51 40.5t-70 15h-200q-38 0 -75.5 -15t-69 -40.5
t-53.5 -59.5t-30 -73l-43 -200q-8 -39 -0.5 -73t27.5 -59.5t51 -40.5t70 -15h200zM124 25q-32 27 -46 70t-3 95l43 200q9 42 32.5 79t57 64.5t74 43.5t82.5 16h200q51 0 89 -23t58 -61l14 -17q21 -26 28.5 -63t-1.5 -79l-42 -199q-9 -42 -32.5 -78.5t-56.5 -64t-72.5 -43
t-81.5 -15.5h-200q-43 0 -76 15.5t-53 42.5z" />
    <glyph glyph-name="ugrave" unicode="&#xf9;" 
d="M418 654q3 -11 7.5 -19t16.5 -8h82q14 0 25 9t14 21l-27 83v-1q-4 8 -11.5 19.5t-13.5 11.5h-82q-11 0 -24 -7.5t-15 -16.5zM342 540q3 17 -5.5 28t-25.5 11h-99q-20 0 -32 -11t-15 -28l-74 -349q-9 -39 -1.5 -73.5t27.5 -60t51 -40.5t70 -15h200q39 0 76.5 15t68 40.5
t53 60t31.5 73.5l74 349q3 17 -5.5 28t-25.5 11h-100q-16 0 -29.5 -11t-16.5 -28l-62 -289q-4 -20 -14 -33.5t-23 -22t-27 -12.5t-25 -4h-77q-12 0 -23.5 5t-20 15t-12 23.5t0.5 30.5zM567 726q4 -5 6 -9t4 -7l30 -89q-4 -19 -19 -32q17 5 25 5h100q36 0 43 -31v1l22 -27
q11 -14 6 -37l-74 -349q-9 -42 -32.5 -78.5t-56.5 -64t-72.5 -43t-81.5 -15.5h-200q-43 0 -76 15.5t-53 42.5l-14 17q-32 27 -45.5 69.5t-2.5 96.5l74 349q5 24 21 39t44 15h99q36 0 43 -31v1l22 -27q11 -14 6 -37l-61 -287q-1 -5 -2 -8.5t0 -8.5l8 -2h9h77q19 0 41.5 12.5
t29.5 44.5l62 289q5 26 23 39q-8 -3 -19 -3h-82q-16 0 -23 9l-24 30h1q-11 4 -14.5 12.5t-6.5 19.5l-30 95q2 9 8.5 16.5t15 13.5t17.5 9.5t17 3.5h82q11 0 22 -14t15 -25v1z" />
    <glyph glyph-name="uacute" unicode="&#xfa;" 
d="M604 746q2 9 -8 16.5t-21 7.5h-82q-6 0 -19 -11.5t-20 -19.5v1l-61 -83q-3 -12 4 -21t21 -9h82q12 0 20 8t16 19zM396 617h1q-25 13 -19 44l64 85q4 5 11 12t14.5 13t15 10t13.5 4h82q12 0 24 -8.5t15 -21.5l1 1l22 -30q8 -11 5 -23l-69 -94h-1q-9 -14 -19 -23.5
t-27 -9.5h-82q-19 0 -28 12zM503 253q-4 -17 -13.5 -30.5t-21.5 -23.5t-26 -15t-26 -5h-77q-12 0 -24 4t-21 12.5t-13.5 22t-0.5 33.5l62 289q3 17 -5.5 28t-25.5 11h-99q-17 0 -30.5 -11t-16.5 -28l-74 -349q-9 -39 -1.5 -73.5t27.5 -60t51 -40.5t70 -15h200q39 0 76.5 15
t68 40.5t53 60t31.5 73.5l74 349q3 17 -4 28t-27 11h-100q-16 0 -29.5 -11t-16.5 -28zM549 540q5 24 23 39t41 15h100q19 0 29.5 -8t13.5 -20l1 1l22 -29q11 -14 5 -38l-74 -349q-9 -42 -32.5 -78.5t-56.5 -64t-72.5 -43t-81.5 -15.5h-200q-43 0 -76 15.5t-53 42.5l-14 17
q-32 27 -45.5 69.5t-2.5 96.5l74 349q5 24 23 39t42 15h99q36 0 43 -31v1l22 -27q11 -14 6 -37l-61 -289q-1 -5 -1.5 -8.5t-0.5 -5.5q7 -3 20 -3h77q20 0 41.5 16t27.5 43z" />
    <glyph glyph-name="ucircumflex" unicode="&#xfb;" 
d="M497 654q3 -11 7.5 -19t16.5 -8h82q13 0 24 9t14 21l-26 83v-1q-4 8 -11.5 19.5t-13.5 11.5h-175q-6 0 -19 -11.5t-20 -19.5v1l-61 -83q-3 -12 4 -21t21 -9h82q12 0 20 8t16 19l27 37zM503 253q-4 -17 -13.5 -30.5t-21.5 -23.5t-26 -15t-26 -5h-77q-12 0 -24 4t-21 12.5
t-13.5 22t-0.5 33.5l62 289q3 17 -5.5 28t-25.5 11h-99q-17 0 -30.5 -11t-16.5 -28l-74 -349q-9 -39 -1.5 -73.5t27.5 -60t51 -40.5t70 -15h200q39 0 76.5 15t68 40.5t53 60t31.5 73.5l74 349q3 17 -4 28t-27 11h-100q-16 0 -29.5 -11t-16.5 -28zM645 726q4 -5 6 -9t4 -7
l30 -89q-3 -16 -14 -27h42q19 0 29.5 -8t13.5 -20l1 1l22 -29q11 -14 5 -38l-74 -349q-9 -42 -32.5 -78.5t-56.5 -64t-72.5 -43t-81.5 -15.5h-200q-43 0 -76 15.5t-53 42.5l-14 17q-32 27 -45.5 69.5t-2.5 96.5l74 349q5 24 23 39t42 15h99q36 0 43 -31v1l22 -27
q11 -14 6 -37l-61 -289q-1 -5 -1.5 -8.5t-0.5 -5.5q7 -3 20 -3h77q20 0 41.5 16t27.5 43l61 287q4 21 19 36h-18q-16 0 -23 9l-24 30l-4 -6h-2q-9 -14 -19 -23.5t-27 -9.5h-82q-19 0 -28 12l-23 29h1q-24 12 -18 44l63 85q4 5 11 12t14.5 13t15 10t13.5 4h175q11 0 22 -14
t15 -25v1z" />
    <glyph glyph-name="udieresis" unicode="&#xfc;" 
d="M650 697q6 29 -10.5 51t-45.5 22q-14 0 -28.5 -6t-26.5 -16t-21 -23t-12 -28q-6 -29 11 -50t46 -21q15 0 29 5.5t26 15.5t20.5 22.5t11.5 27.5zM321 697q-6 -29 11.5 -50t46.5 -21q14 0 28.5 5.5t26.5 15.5t20.5 22.5t11.5 27.5q6 29 -10.5 51t-45.5 22q-15 0 -29.5 -6
t-26.5 -16t-21 -23t-12 -28zM503 253q-4 -17 -13.5 -30.5t-21.5 -23.5t-26 -15t-26 -5h-77q-12 0 -24 4t-21 12.5t-13.5 22t-0.5 33.5l62 289q3 17 -5.5 28t-25.5 11h-99q-17 0 -30.5 -11t-16.5 -28l-74 -349q-9 -39 -1.5 -73.5t27.5 -60t51 -40.5t70 -15h200q39 0 76.5 15
t68 40.5t53 60t31.5 73.5l74 349q3 17 -4 28t-27 11h-100q-16 0 -29.5 -11t-16.5 -28zM307 697q4 18 14 34t24.5 28t32 19t35.5 7q23 0 40 -12.5t25 -33.5v1l18 -23q14 29 42.5 48.5t58.5 19.5q25 0 42 -13.5t24 -33.5v1l15 -19l3 -3q9 -11 13 -27t0 -33q-11 -41 -45 -63h64
q19 0 29.5 -8t13.5 -20l1 1l22 -29q11 -14 5 -38l-74 -349q-9 -42 -32.5 -78.5t-56.5 -64t-72.5 -43t-81.5 -15.5h-200q-43 0 -76 15.5t-53 42.5l-14 17q-32 27 -45.5 69.5t-2.5 96.5l74 349q5 24 23 39t42 15h99q36 0 43 -31v1l22 -27q11 -14 6 -37l-61 -289
q-1 -5 -1.5 -8.5t-0.5 -5.5q7 -3 20 -3h77q20 0 41.5 16t27.5 43l61 287q4 21 19 36q-19 7 -30 23l-18 22q-11 6 -18 15q-13 -27 -39.5 -44.5t-54.5 -17.5q-37 0 -56 25l-20 24q-36 24 -25 74z" />
    <glyph glyph-name="yacute" unicode="&#xfd;" horiz-adv-x="673" 
d="M604 746q2 9 -8 16.5t-21 7.5h-82q-6 0 -19 -11.5t-20 -19.5v1l-61 -83q-3 -12 4 -21t21 -9h82q12 0 20 8t16 19zM396 617h1q-25 13 -19 44l64 85q4 5 11 12t14.5 13t15 10t13.5 4h82q12 0 24 -8.5t15 -21.5l1 1l23 -31q7 -10 4 -22l-69 -94h-1q-9 -14 -19 -23.5
t-27 -9.5h-82q-19 0 -28 12zM475 195h-1q1 1 6 1q7 2 27 6t58 17q27 9 50.5 26t42 40t31.5 49.5t19 55.5l32 150q3 17 -5.5 28t-25.5 11h-100q-16 0 -29.5 -11t-16.5 -28l-19 -87q-5 -27 -27 -48t-57 -24h-79q-17 1 -29 9t-19 19t-9.5 22.5t-0.5 20.5l19 88q3 17 -5.5 28
t-25.5 11h-99q-17 0 -30.5 -11t-16.5 -28l-32 -150q-12 -57 6 -105t65 -66q32 -13 50.5 -17t25.5 -6q4 0 4 -1h-1l6 -2l-32 -152q-4 -17 3.5 -28t24.5 -11h103q17 0 30.5 11t17.5 28l32 152zM367 412l-2 -6t-1 -6q7 -4 21 -4h77q28 2 45 18.5t22 38.5l19 87q5 24 23 39
t41 15h100q36 0 43 -31v1l22 -27q11 -14 6 -37l-32 -150q-6 -30 -19.5 -58.5t-33.5 -52.5t-45.5 -42t-54.5 -28q-37 -13 -56 -17.5l-27 -6.5q-2 0 -2.5 -0.5t-1.5 -0.5h-1l-31 -143q-5 -23 -22 -37t-40 -14h-103q-22 0 -32 13l-22 28h1q-26 14 -19 50l24 112q-9 2 -18.5 6.5
l-19.5 9.5h-1q-16 6 -28 16t-21 22l-12 13q-35 26 -47 71t-1 99l32 150q5 24 23 39t42 15h99q36 0 43 -31v1l22 -27q11 -14 6 -37z" />
    <glyph glyph-name="thorn" unicode="&#xfe;" 
d="M341 294l-11 -56q1 1 9 1h89q9 0 19 1.5t19.5 4.5t16 7.5t7.5 10.5l6 30q-2 1 -15 1h-140zM59 41q-4 -17 4.5 -28t25.5 -11h99q17 0 30.5 11t17.5 28l63 297q3 8 13 8h141q35 0 49.5 -13t11.5 -27l-9 -43q-2 -10 -11 -17t-21 -12t-25 -7.5t-23 -2.5h-89q-17 0 -30.5 -11
t-17.5 -28l-21 -99q-3 -17 5.5 -28t25.5 -11h150q38 0 75.5 15t69 40.5t53.5 59.5t30 73l21 100q8 39 0.5 73t-27.5 59.5t-51 40.5t-70 15h-211l4 16q3 17 -5.5 28t-25.5 11h-99q-17 0 -30.5 -11t-16.5 -28zM150 539q5 24 23 39t42 15h99q35 0 42 -31l1 1l20 -25h175
q51 0 89.5 -22.5t58.5 -60.5l13 -17q21 -27 29 -64t-1 -79l-22 -100q-9 -42 -32 -78.5t-56 -63.5t-72.5 -42.5t-81.5 -15.5h-150q-23 0 -34 14l-10 12l-4 -20q-5 -23 -22 -37t-40 -14h-99q-23 0 -34 14l-22 28h1q-26 14 -19 49z" />
    <glyph glyph-name="ydieresis" unicode="&#xff;" horiz-adv-x="673" 
d="M307 697q-11 -50 25 -74l20 -24q19 -25 56 -25q28 0 54.5 17.5t39.5 44.5q4 -4 8 -7.5t9 -6.5l19 -23q5 -7 12 -13t17 -10q-15 -15 -19 -36l-19 -87q-5 -22 -22 -38.5t-45 -18.5h-78q-13 0 -20 4q0 3 1 6l2 6l18 88q5 23 -6 37l-22 27v-1q-7 31 -43 31h-99q-24 0 -42 -15
t-23 -39l-32 -150q-11 -54 1 -99t47 -71l12 -13q9 -12 21 -22t28 -16h1l19.5 -9.5t18.5 -6.5l-24 -112q-7 -36 19 -50h-1l22 -28q10 -13 32 -13h103q23 0 40 14t22 37l31 143h1q1 0 1.5 0.5t2.5 0.5l27 6.5t56 17.5q29 10 54.5 28t45.5 42t33.5 52.5t19.5 58.5l32 150
q5 23 -6 37l-22 27v-1q-7 31 -43 31h-63q34 22 45 63q4 17 0 33t-13 27l-19 23v-1q-8 21 -25 33.5t-40 12.5q-30 0 -58.5 -19.5t-42.5 -48.5l-18 23v-1q-8 21 -25 33.5t-40 12.5q-18 0 -35.5 -7t-32 -19t-24.5 -28t-14 -34zM436 41q-4 -17 -17.5 -28t-30.5 -11h-103
q-17 0 -24.5 11t-3.5 28l32 152l-6 2h1q0 1 -4 1q-7 2 -25.5 6t-50.5 17q-47 18 -65 66t-6 105l32 150q3 17 16.5 28t30.5 11h99q17 0 25.5 -11t5.5 -28l-19 -88q-2 -9 0.5 -20.5t9.5 -22.5t19 -19t29 -9h79q35 3 57 24t27 48l19 87q3 17 16.5 28t29.5 11h100q17 0 25.5 -11
t5.5 -28l-32 -150q-6 -29 -19 -55.5t-31.5 -49.5t-42 -40t-50.5 -26q-38 -13 -58 -17t-27 -6q-5 0 -6 -1h1l-7 -2zM321 697q3 15 12 28t21 23t26.5 16t29.5 6q29 0 45.5 -22t10.5 -51q-3 -15 -11.5 -27.5t-20.5 -22.5t-26.5 -15.5t-28.5 -5.5q-29 0 -46.5 21t-11.5 50z
M650 697q-3 -15 -11.5 -27.5t-20.5 -22.5t-26 -15.5t-29 -5.5q-29 0 -46 21t-11 50q3 15 12 28t21 23t26.5 16t28.5 6q29 0 45.5 -22t10.5 -51z" />
    </font>
</defs>
</svg>
